<svg xmlns="http://www.w3.org/2000/svg" xmlns:xlink="http://www.w3.org/1999/xlink" width="65.837mm" height="51.308mm" viewBox="3990.8 2991 259.2 202"><title></title><style type="text/css">
*[layerid="1"] {stroke:#000000;fill:#000000;}
*[layerid="2"] {stroke:#000000;fill:#000000;}
*[layerid="3"] {stroke:#000000;fill:#000000;}
*[layerid="4"] {stroke:#000000;fill:#000000;}
*[layerid="5"] {stroke:#000000;fill:#000000;}
*[layerid="6"] {stroke:#000000;fill:#000000;}
*[layerid="7"] {stroke:#000000;fill:#000000;}
*[layerid="8"] {stroke:#000000;fill:#000000;}
*[layerid="9"] {stroke:#000000;fill:#000000;}
*[layerid="10"] {stroke:#000000;fill:#000000;}
*[layerid="11"] {stroke:#000000;fill:#000000;}
*[layerid="12"] {stroke:#000000;fill:#000000;}
*[layerid="13"] {stroke:#000000;fill:#000000;}
*[layerid="14"] {stroke:#000000;fill:#000000;}
*[layerid="15"] {stroke:#000000;fill:#000000;}
*[layerid="21"] {stroke:#000000;fill:#000000;}
*[layerid="22"] {stroke:#000000;fill:#000000;}
*[layerid="23"] {stroke:#000000;fill:#000000;}
*[layerid="24"] {stroke:#000000;fill:#000000;}
*[layerid="25"] {stroke:#000000;fill:#000000;}
*[layerid="26"] {stroke:#000000;fill:#000000;}
*[layerid="27"] {stroke:#000000;fill:#000000;}
*[layerid="28"] {stroke:#000000;fill:#000000;}
*[layerid="29"] {stroke:#000000;fill:#000000;}
*[layerid="30"] {stroke:#000000;fill:#000000;}
*[layerid="31"] {stroke:#000000;fill:#000000;}
*[layerid="32"] {stroke:#000000;fill:#000000;}
*[layerid="33"] {stroke:#000000;fill:#000000;}
*[layerid="34"] {stroke:#000000;fill:#000000;}
*[layerid="35"] {stroke:#000000;fill:#000000;}
*[layerid="36"] {stroke:#000000;fill:#000000;}
*[layerid="37"] {stroke:#000000;fill:#000000;}
*[layerid="38"] {stroke:#000000;fill:#000000;}
*[layerid="39"] {stroke:#000000;fill:#000000;}
*[layerid="40"] {stroke:#000000;fill:#000000;}
*[layerid="41"] {stroke:#000000;fill:#000000;}
*[layerid="42"] {stroke:#000000;fill:#000000;}
*[layerid="43"] {stroke:#000000;fill:#000000;}
*[layerid="44"] {stroke:#000000;fill:#000000;}
*[layerid="45"] {stroke:#000000;fill:#000000;}
*[layerid="46"] {stroke:#000000;fill:#000000;}
*[layerid="47"] {stroke:#000000;fill:#000000;}
*[layerid="48"] {stroke:#000000;fill:#000000;}
*[layerid="49"] {stroke:#000000;fill:#000000;}
*[layerid="50"] {stroke:#000000;fill:#000000;}
*[layerid="51"] {stroke:#000000;fill:#000000;}
*[layerid="52"] {stroke:#000000;fill:#000000;}
*[fill="none"] {fill: none;}
*[stroke="none"] {stroke: none;}
path, polyline, polygon, line {stroke-linecap:round;}
g[c_partid="part_pad"][layerid="1"] ellipse:not([c_padid]) {fill:#000000;}
g[c_partid="part_pad"][layerid="1"]  polygon:not([c_padid]) {fill:#000000;}
g[c_partid="part_pad"][layerid="1"]  polyline:not([c_padid]) {stroke:#000000;}
g[c_partid="part_pad"][layerid="1"]  circle {fill:#000000;}
g[c_partid="part_pad"][layerid="2"]  ellipse:not([c_padid]) {fill:#000000;}
g[c_partid="part_pad"][layerid="2"]  polygon:not([c_padid]) {fill:#000000;}
g[c_partid="part_pad"][layerid="2"]  polyline:not([c_padid]) {stroke:#000000;}
g[c_partid="part_pad"][layerid="2"]  circle {fill:#000000;}
g[c_partid="part_pad"][layerid="11"]  ellipse:not([c_padid]) {fill:#000000;}
g[c_partid="part_pad"][layerid="11"]  polygon:not([c_padid]) {fill:#000000;}
g[c_partid="part_pad"][layerid="11"]  polyline:not([c_padid]) {stroke:#000000;}
g[c_partid="part_pad"][layerid="11"]  circle {fill:#000000;}
g[c_partid="part_pad"][layerid] > circle[c_padhole] {fill: #FFFFFF;}
g[c_partid="part_pad"][layerid] > polyline[c_padhole] {stroke:#FFFFFF;}
g[c_partid="part_via"][layerid] > * + circle {fill: #FFFFFF;}
g[c_partid="part_pad"] > polygon[c_padid] {stroke-linejoin: miter;stroke-miterlimit: 100;}
g[c_partid="part_hole"] > circle {fill: #FFFFFF;}path, polyline, polygon {stroke-linejoin:round;}
rect, circle, ellipse, polyline, line, polygon, path {shape-rendering:crispEdges;}
</style>
<rect x="3990.8" y="2991" width="259.2" height="202" fill="#FFFFFF" stroke="none"/><g id="g1" cpara="package`R1206`" c_transformList="" importFlag="0" xmlns="http://www.w3.org/2000/svg"><polyline points="4193.799 3035 4224.5 3035 4225.5 3036 4225.5 3127 4214.299 3127" stroke-width="1.6" c_shapetype="line" stroke-linecap="round" fill="none" layerid="1" net="GND" id="gge827" /><polyline points="4128.059 3099.75 4128.059 3124.059 4133 3129 4172 3129" stroke-width="1.6" c_shapetype="line" stroke-linecap="round" fill="none" layerid="1" net="LED2_2" id="gge828" /><polyline points="4137.539 3065.25 4137.5 3065.211 4137.5 3052.5 4138.5 3051.5 4190 3051.5 4193.5 3055 4193.799 3055" stroke-width="1.6" c_shapetype="line" stroke-linecap="round" fill="none" layerid="1" net="SW2_2" id="gge829" /><polyline points="4124.949 3065.25 4124.949 3058.949 4099.5 3033.5 4075 3033.5 4071.5 3030 4071.5 3026" stroke-width="1.6" c_shapetype="line" stroke-linecap="round" fill="none" layerid="1" net="P1_2" id="gge830" /><polyline points="4018 3054.5 4018.5 3054 4018.5 3023" stroke-width="1.6" c_shapetype="line" stroke-linecap="round" fill="none" layerid="1" net="GND" id="gge831" /><polyline points="4209.299 3083.5 4215.5 3083.5 4215.299 3088.5 4215.299 3115 4148.299 3115 4140.649 3107.35 4140.649 3099.75" stroke-width="1.6" c_shapetype="line" stroke-linecap="round" fill="none" layerid="1" net="MOSI" id="gge832" /><polyline points="4150 3080.9 4176 3081" stroke-width="1.6" c_shapetype="line" stroke-linecap="round" fill="none" layerid="1" net="GND-R" id="gge833" /><polyline points="4143.799 3099.75 4199.5 3099.5 4199.299 3093.5" stroke-width="1.6" c_shapetype="line" stroke-linecap="round" fill="none" layerid="1" net="MISO" id="gge834" /><polyline points="4199.3 3073.5 4209.5 3063.3 4209.5 3045.7 4209.3 3045.5" stroke-width="1.6" c_shapetype="line" stroke-linecap="round" fill="none" layerid="1" net="RST" id="gge835" /><polyline points="4176 3081 4184.8 3078.5 4204.5 3078.5 4209.299 3073.5" stroke-width="1.6" c_shapetype="line" stroke-linecap="round" fill="none" layerid="1" net="GND-R" id="gge836" /><polyline points="4176.309 3093.49 4191 3083.5 4199.299 3083.5" stroke-width="1.6" c_shapetype="line" stroke-linecap="round" fill="none" layerid="1" net="SCK" id="gge837" /><polyline points="4150 3093.49 4176.309 3093.49" stroke-width="1.6" c_shapetype="line" stroke-linecap="round" fill="none" layerid="1" net="SCK" id="gge838" /><polyline points="4209.299 3045.5 4190.799 3045.5 4134.299 3045.5 4131.299 3049 4131.25 3049.45 4131.25 3065.25" stroke-width="1.6" c_shapetype="line" stroke-linecap="round" fill="none" layerid="1" net="RST" id="gge839" /><polyline points="4062.299 3099.5 4071.5 3090.3 4115.599 3090.3" stroke-width="1.6" c_shapetype="line" stroke-linecap="round" fill="none" layerid="1" net="X2_1" id="gge840" /><polyline points="4062.299 3099.5 4058.799 3096 4032.598 3096" stroke-width="1.6" c_shapetype="line" stroke-linecap="round" fill="none" layerid="1" net="X2_1" id="gge841" /><polyline points="4063.11 3141.64 4091.79 3112.96 4103.75 3101 4109.3 3101 4115.6 3094.7 4115.6 3093.45" stroke-width="1.6" c_shapetype="line" stroke-linecap="round" fill="none" layerid="1" net="X2_2" id="gge842" /><polyline points="4063.106 3141.641 4062.464 3141 4032.598 3141" stroke-width="1.6" c_shapetype="line" stroke-linecap="round" fill="none" layerid="1" net="X2_2" id="gge843" /><polyline points="4020 3141 4020 3096" stroke-width="1.6" c_shapetype="line" stroke-linecap="round" fill="none" layerid="1" net="GND" id="gge844" /><polyline points="4020 3096 4018 3094.001 4018 3054.5" stroke-width="1.6" c_shapetype="line" stroke-linecap="round" fill="none" layerid="1" net="GND" id="gge845" /><polyline points="4018.5 3023 4018.5 3010.5 4092.5 3010.5 4119 3035 4193.8 3035" stroke-width="1.6" c_shapetype="line" stroke-linecap="round" fill="none" layerid="1" net="GND" id="gge846" /><polyline points="4214.299 3127 4214.3 3151.5" stroke-width="1.6" c_shapetype="line" stroke-linecap="round" fill="none" layerid="1" net="GND" id="gge847" /><polyline points="4115.599 3071.41 4115.189 3071 4054.5 3071 4038 3054.5" stroke-width="1.6" c_shapetype="line" stroke-linecap="round" fill="none" layerid="1" net="SW1_2" id="gge848" /><polyline points="4121.799 3065.25 4117.549 3061 4090.799 3061 4052.799 3023 4038.5 3023" stroke-width="1.6" c_shapetype="line" stroke-linecap="round" fill="none" layerid="1" net="SW8_2" id="gge849" /><polyline points="4115.599 3080.86 4115.459 3081 4049.5 3081" stroke-width="1.6" c_shapetype="line" stroke-linecap="round" fill="none" layerid="1" net="VCC" id="gge850" /><polyline points="4128.099 3065.25 4128.299 3065.05 4128.299 3054 4100.299 3026 4081.5 3026" stroke-width="1.6" c_shapetype="line" stroke-linecap="round" fill="none" layerid="1" net="P1_1" id="gge851" /><polyline points="4182 3151.5 4201.701 3151.5" stroke-width="1.6" c_shapetype="line" stroke-linecap="round" fill="none" layerid="1" net="R6_2" id="gge852" /><polyline points="4182 3129 4184 3127 4201.7 3127" stroke-width="1.6" c_shapetype="line" stroke-linecap="round" fill="none" layerid="1" net="LED2_1" id="gge853" /><polyline points="4172 3151.5 4154 3133.5 4124.799 3133.5 4124.909 3133.39 4124.909 3099.75" stroke-width="1.6" c_shapetype="line" stroke-linecap="round" fill="none" layerid="1" net="LED1_2" id="gge854" /><polyline points="4209.299 3093.5 4205 3107" stroke-width="1.6" c_shapetype="line" stroke-linecap="round" fill="none" layerid="1" net="VCC" id="gge826" /><g c_partid="part_pad" c_etype="pinpart" c_origin="4062.3,3099.5" layerid="1" number="1" net="X2_1" plated ="Y" c_shapetype="group" id="gge12" locked="0" c_rotation="90" c_width="21.653" c_height="7.874" title="X2_1" c_shape="RECT" pasteExpansion="0" solderExpansion="0.4"><polygon points="4058.362 3110.327 4058.362 3088.673 4066.236 3088.673 4066.236 3110.327" stroke-width="0" /><circle c_padhole="1" cx="4062.2992" cy="3099.5" r="1.8" stroke-width="0" /></g><g c_partid="part_pad" c_etype="pinpart" c_origin="4063.11,3141.64" layerid="1" number="2" net="X2_2" plated ="Y" c_shapetype="group" id="gge17" locked="0" c_rotation="90" c_width="21.653" c_height="7.874" title="X2_2" c_shape="RECT" pasteExpansion="0" solderExpansion="0.4"><polygon points="4059.168 3152.468 4059.168 3130.814 4067.042 3130.814 4067.042 3152.468" stroke-width="0" /><circle c_padhole="1" cx="4063.1052" cy="3141.641" r="1.8" stroke-width="0" /></g><g c_partid="part_pad" c_etype="pinpart" c_origin="4121.8,3065.25" layerid="1" number="32" net="SW8_2" plated ="Y" c_shapetype="group" id="gge100" locked="0" c_rotation="0" c_width="1.7717" c_height="6.4961" title="SW8_2" c_shape="OVAL" pasteExpansion="0" solderExpansion="0.4"><polyline points="4121.8 3062.888 4121.8 3067.612" stroke-width="1.7717" /><circle c_padhole="1" cx="4121.7992" cy="3065.25" r="0" stroke-width="0" /></g><g c_partid="part_pad" c_etype="pinpart" c_origin="4124.95,3065.25" layerid="1" number="31" net="P1_2" plated ="Y" c_shapetype="group" id="gge105" locked="0" c_rotation="0" c_width="1.7717" c_height="6.4961" title="P1_2" c_shape="OVAL" pasteExpansion="0" solderExpansion="0.4"><polyline points="4124.95 3062.888 4124.95 3067.612" stroke-width="1.7717" /><circle c_padhole="1" cx="4124.9492" cy="3065.25" r="0" stroke-width="0" /></g><g c_partid="part_pad" c_etype="pinpart" c_origin="4128.1,3065.25" layerid="1" number="30" net="P1_1" plated ="Y" c_shapetype="group" id="gge110" locked="0" c_rotation="0" c_width="1.7717" c_height="6.4961" title="P1_1" c_shape="OVAL" pasteExpansion="0" solderExpansion="0.4"><polyline points="4128.1 3062.888 4128.1 3067.612" stroke-width="1.7717" /><circle c_padhole="1" cx="4128.0992" cy="3065.25" r="0" stroke-width="0" /></g><g c_partid="part_pad" c_etype="pinpart" c_origin="4131.25,3065.25" layerid="1" number="29" net="RST" plated ="Y" c_shapetype="group" id="gge115" locked="0" c_rotation="0" c_width="1.7717" c_height="6.4961" title="RST" c_shape="OVAL" pasteExpansion="0" solderExpansion="0.4"><polyline points="4131.25 3062.888 4131.25 3067.612" stroke-width="1.7717" /><circle c_padhole="1" cx="4131.2492" cy="3065.25" r="0" stroke-width="0" /></g><g c_partid="part_pad" c_etype="pinpart" c_origin="4134.39,3065.25" layerid="1" number="28" net="U2_28" plated ="Y" c_shapetype="group" id="gge120" locked="0" c_rotation="0" c_width="1.7717" c_height="6.4961" title="U2_28" c_shape="OVAL" pasteExpansion="0" solderExpansion="0.4"><polyline points="4134.39 3062.888 4134.39 3067.612" stroke-width="1.7717" /><circle c_padhole="1" cx="4134.3892" cy="3065.25" r="0" stroke-width="0" /></g><g c_partid="part_pad" c_etype="pinpart" c_origin="4137.54,3065.25" layerid="1" number="27" net="SW2_2" plated ="Y" c_shapetype="group" id="gge125" locked="0" c_rotation="0" c_width="1.7717" c_height="6.4961" title="SW2_2" c_shape="OVAL" pasteExpansion="0" solderExpansion="0.4"><polyline points="4137.54 3062.888 4137.54 3067.612" stroke-width="1.7717" /><circle c_padhole="1" cx="4137.5392" cy="3065.25" r="0" stroke-width="0" /></g><g c_partid="part_pad" c_etype="pinpart" c_origin="4140.69,3065.25" layerid="1" number="26" net="U2_26" plated ="Y" c_shapetype="group" id="gge130" locked="0" c_rotation="0" c_width="1.7717" c_height="6.4961" title="U2_26" c_shape="OVAL" pasteExpansion="0" solderExpansion="0.4"><polyline points="4140.69 3062.888 4140.69 3067.612" stroke-width="1.7717" /><circle c_padhole="1" cx="4140.6892" cy="3065.25" r="0" stroke-width="0" /></g><g c_partid="part_pad" c_etype="pinpart" c_origin="4143.84,3065.25" layerid="1" number="25" net="U2_25" plated ="Y" c_shapetype="group" id="gge135" locked="0" c_rotation="0" c_width="1.7717" c_height="6.4961" title="U2_25" c_shape="OVAL" pasteExpansion="0" solderExpansion="0.4"><polyline points="4143.84 3062.888 4143.84 3067.612" stroke-width="1.7717" /><circle c_padhole="1" cx="4143.8392" cy="3065.25" r="0" stroke-width="0" /></g><g c_partid="part_pad" c_etype="pinpart" c_origin="4150,3071.45" layerid="1" number="24" net="U2_24" plated ="Y" c_shapetype="group" id="gge140" locked="0" c_rotation="90" c_width="1.7717" c_height="6.4961" title="U2_24" c_shape="OVAL" pasteExpansion="0" solderExpansion="0.4"><polyline points="4147.638 3071.45 4152.362 3071.45" stroke-width="1.7717" /><circle c_padhole="1" cx="4149.9992" cy="3071.45" r="0" stroke-width="0" /></g><g c_partid="part_pad" c_etype="pinpart" c_origin="4150,3074.6" layerid="1" number="23" net="U2_23" plated ="Y" c_shapetype="group" id="gge145" locked="0" c_rotation="90" c_width="1.7717" c_height="6.4961" title="U2_23" c_shape="OVAL" pasteExpansion="0" solderExpansion="0.4"><polyline points="4147.638 3074.6 4152.362 3074.6" stroke-width="1.7717" /><circle c_padhole="1" cx="4149.9992" cy="3074.6" r="0" stroke-width="0" /></g><g c_partid="part_pad" c_etype="pinpart" c_origin="4150,3077.75" layerid="1" number="22" net="U2_22" plated ="Y" c_shapetype="group" id="gge150" locked="0" c_rotation="90" c_width="1.7717" c_height="6.4961" title="U2_22" c_shape="OVAL" pasteExpansion="0" solderExpansion="0.4"><polyline points="4147.638 3077.75 4152.362 3077.75" stroke-width="1.7717" /><circle c_padhole="1" cx="4149.9992" cy="3077.75" r="0" stroke-width="0" /></g><g c_partid="part_pad" c_etype="pinpart" c_origin="4150,3080.9" layerid="1" number="21" net="GND-R" plated ="Y" c_shapetype="group" id="gge155" locked="0" c_rotation="90" c_width="1.7717" c_height="6.4961" title="GND-R" c_shape="OVAL" pasteExpansion="0" solderExpansion="0.4"><polyline points="4147.638 3080.9 4152.362 3080.9" stroke-width="1.7717" /><circle c_padhole="1" cx="4149.9992" cy="3080.9" r="0" stroke-width="0" /></g><g c_partid="part_pad" c_etype="pinpart" c_origin="4150,3084.04" layerid="1" number="20" net="U2_20" plated ="Y" c_shapetype="group" id="gge160" locked="0" c_rotation="90" c_width="1.7717" c_height="6.4961" title="U2_20" c_shape="OVAL" pasteExpansion="0" solderExpansion="0.4"><polyline points="4147.638 3084.04 4152.362 3084.04" stroke-width="1.7717" /><circle c_padhole="1" cx="4149.9992" cy="3084.04" r="0" stroke-width="0" /></g><g c_partid="part_pad" c_etype="pinpart" c_origin="4150,3087.19" layerid="1" number="19" net="U2_19" plated ="Y" c_shapetype="group" id="gge165" locked="0" c_rotation="90" c_width="1.7717" c_height="6.4961" title="U2_19" c_shape="OVAL" pasteExpansion="0" solderExpansion="0.4"><polyline points="4147.638 3087.19 4152.362 3087.19" stroke-width="1.7717" /><circle c_padhole="1" cx="4149.9992" cy="3087.19" r="0" stroke-width="0" /></g><g c_partid="part_pad" c_etype="pinpart" c_origin="4150,3090.34" layerid="1" number="18" net="U2_18" plated ="Y" c_shapetype="group" id="gge170" locked="0" c_rotation="90" c_width="1.7717" c_height="6.4961" title="U2_18" c_shape="OVAL" pasteExpansion="0" solderExpansion="0.4"><polyline points="4147.638 3090.34 4152.362 3090.34" stroke-width="1.7717" /><circle c_padhole="1" cx="4149.9992" cy="3090.34" r="0" stroke-width="0" /></g><g c_partid="part_pad" c_etype="pinpart" c_origin="4150,3093.49" layerid="1" number="17" net="SCK" plated ="Y" c_shapetype="group" id="gge175" locked="0" c_rotation="90" c_width="1.7717" c_height="6.4961" title="SCK" c_shape="OVAL" pasteExpansion="0" solderExpansion="0.4"><polyline points="4147.638 3093.49 4152.362 3093.49" stroke-width="1.7717" /><circle c_padhole="1" cx="4149.9992" cy="3093.49" r="0" stroke-width="0" /></g><g c_partid="part_pad" c_etype="pinpart" c_origin="4143.8,3099.75" layerid="1" number="16" net="MISO" plated ="Y" c_shapetype="group" id="gge180" locked="0" c_rotation="0" c_width="1.7717" c_height="6.4961" title="MISO" c_shape="OVAL" pasteExpansion="0" solderExpansion="0.4"><polyline points="4143.8 3097.388 4143.8 3102.112" stroke-width="1.7717" /><circle c_padhole="1" cx="4143.7992" cy="3099.75" r="0" stroke-width="0" /></g><g c_partid="part_pad" c_etype="pinpart" c_origin="4140.65,3099.75" layerid="1" number="15" net="MOSI" plated ="Y" c_shapetype="group" id="gge185" locked="0" c_rotation="0" c_width="1.7717" c_height="6.4961" title="MOSI" c_shape="OVAL" pasteExpansion="0" solderExpansion="0.4"><polyline points="4140.65 3097.388 4140.65 3102.112" stroke-width="1.7717" /><circle c_padhole="1" cx="4140.6492" cy="3099.75" r="0" stroke-width="0" /></g><g c_partid="part_pad" c_etype="pinpart" c_origin="4137.5,3099.75" layerid="1" number="14" net="U2_14" plated ="Y" c_shapetype="group" id="gge190" locked="0" c_rotation="0" c_width="1.7717" c_height="6.4961" title="U2_14" c_shape="OVAL" pasteExpansion="0" solderExpansion="0.4"><polyline points="4137.5 3097.388 4137.5 3102.112" stroke-width="1.7717" /><circle c_padhole="1" cx="4137.4992" cy="3099.75" r="0" stroke-width="0" /></g><g c_partid="part_pad" c_etype="pinpart" c_origin="4134.35,3099.75" layerid="1" number="13" net="U2_13" plated ="Y" c_shapetype="group" id="gge195" locked="0" c_rotation="0" c_width="1.7717" c_height="6.4961" title="U2_13" c_shape="OVAL" pasteExpansion="0" solderExpansion="0.4"><polyline points="4134.35 3097.388 4134.35 3102.112" stroke-width="1.7717" /><circle c_padhole="1" cx="4134.3492" cy="3099.75" r="0" stroke-width="0" /></g><g c_partid="part_pad" c_etype="pinpart" c_origin="4131.21,3099.75" layerid="1" number="12" net="U2_12" plated ="Y" c_shapetype="group" id="gge200" locked="0" c_rotation="0" c_width="1.7717" c_height="6.4961" title="U2_12" c_shape="OVAL" pasteExpansion="0" solderExpansion="0.4"><polyline points="4131.21 3097.388 4131.21 3102.112" stroke-width="1.7717" /><circle c_padhole="1" cx="4131.2092" cy="3099.75" r="0" stroke-width="0" /></g><g c_partid="part_pad" c_etype="pinpart" c_origin="4128.06,3099.75" layerid="1" number="11" net="LED2_2" plated ="Y" c_shapetype="group" id="gge205" locked="0" c_rotation="0" c_width="1.7717" c_height="6.4961" title="LED2_2" c_shape="OVAL" pasteExpansion="0" solderExpansion="0.4"><polyline points="4128.06 3097.388 4128.06 3102.112" stroke-width="1.7717" /><circle c_padhole="1" cx="4128.0592" cy="3099.75" r="0" stroke-width="0" /></g><g c_partid="part_pad" c_etype="pinpart" c_origin="4124.91,3099.75" layerid="1" number="10" net="LED1_2" plated ="Y" c_shapetype="group" id="gge210" locked="0" c_rotation="0" c_width="1.7717" c_height="6.4961" title="LED1_2" c_shape="OVAL" pasteExpansion="0" solderExpansion="0.4"><polyline points="4124.91 3097.388 4124.91 3102.112" stroke-width="1.7717" /><circle c_padhole="1" cx="4124.9092" cy="3099.75" r="0" stroke-width="0" /></g><g c_partid="part_pad" c_etype="pinpart" c_origin="4121.76,3099.75" layerid="1" number="9" net="U2_9" plated ="Y" c_shapetype="group" id="gge215" locked="0" c_rotation="0" c_width="1.7717" c_height="6.4961" title="U2_9" c_shape="OVAL" pasteExpansion="0" solderExpansion="0.4"><polyline points="4121.76 3097.388 4121.76 3102.112" stroke-width="1.7717" /><circle c_padhole="1" cx="4121.7592" cy="3099.75" r="0" stroke-width="0" /></g><g c_partid="part_pad" c_etype="pinpart" c_origin="4115.6,3093.45" layerid="1" number="8" net="X2_2" plated ="Y" c_shapetype="group" id="gge220" locked="0" c_rotation="90" c_width="1.7717" c_height="6.4961" title="X2_2" c_shape="OVAL" pasteExpansion="0" solderExpansion="0.4"><polyline points="4113.238 3093.45 4117.962 3093.45" stroke-width="1.7717" /><circle c_padhole="1" cx="4115.5992" cy="3093.45" r="0" stroke-width="0" /></g><g c_partid="part_pad" c_etype="pinpart" c_origin="4115.6,3090.3" layerid="1" number="7" net="X2_1" plated ="Y" c_shapetype="group" id="gge225" locked="0" c_rotation="90" c_width="1.7717" c_height="6.4961" title="X2_1" c_shape="OVAL" pasteExpansion="0" solderExpansion="0.4"><polyline points="4113.238 3090.3 4117.962 3090.3" stroke-width="1.7717" /><circle c_padhole="1" cx="4115.5992" cy="3090.3" r="0" stroke-width="0" /></g><g c_partid="part_pad" c_etype="pinpart" c_origin="4115.6,3087.15" layerid="1" number="6" net="U2_6" plated ="Y" c_shapetype="group" id="gge230" locked="0" c_rotation="90" c_width="1.7717" c_height="6.4961" title="U2_6" c_shape="OVAL" pasteExpansion="0" solderExpansion="0.4"><polyline points="4113.238 3087.15 4117.962 3087.15" stroke-width="1.7717" /><circle c_padhole="1" cx="4115.5992" cy="3087.15" r="0" stroke-width="0" /></g><g c_partid="part_pad" c_etype="pinpart" c_origin="4115.6,3084" layerid="1" number="5" net="GND-L" plated ="Y" c_shapetype="group" id="gge235" locked="0" c_rotation="90" c_width="1.7717" c_height="6.4961" title="GND-L" c_shape="OVAL" pasteExpansion="0" solderExpansion="0.4"><polyline points="4113.238 3084 4117.962 3084" stroke-width="1.7717" /><circle c_padhole="1" cx="4115.5992" cy="3084" r="0" stroke-width="0" /></g><g c_partid="part_pad" c_etype="pinpart" c_origin="4115.6,3080.86" layerid="1" number="4" net="VCC" plated ="Y" c_shapetype="group" id="gge240" locked="0" c_rotation="90" c_width="1.7717" c_height="6.4961" title="VCC" c_shape="OVAL" pasteExpansion="0" solderExpansion="0.4"><polyline points="4113.238 3080.86 4117.962 3080.86" stroke-width="1.7717" /><circle c_padhole="1" cx="4115.5992" cy="3080.86" r="0" stroke-width="0" /></g><g c_partid="part_pad" c_etype="pinpart" c_origin="4115.6,3077.71" layerid="1" number="3" net="U2_3" plated ="Y" c_shapetype="group" id="gge245" locked="0" c_rotation="90" c_width="1.7717" c_height="6.4961" title="U2_3" c_shape="OVAL" pasteExpansion="0" solderExpansion="0.4"><polyline points="4113.238 3077.71 4117.962 3077.71" stroke-width="1.7717" /><circle c_padhole="1" cx="4115.5992" cy="3077.71" r="0" stroke-width="0" /></g><g c_partid="part_pad" c_etype="pinpart" c_origin="4115.6,3074.56" layerid="1" number="2" net="U2_2" plated ="Y" c_shapetype="group" id="gge250" locked="0" c_rotation="90" c_width="1.7717" c_height="6.4961" title="U2_2" c_shape="OVAL" pasteExpansion="0" solderExpansion="0.4"><polyline points="4113.238 3074.56 4117.962 3074.56" stroke-width="1.7717" /><circle c_padhole="1" cx="4115.5992" cy="3074.56" r="0" stroke-width="0" /></g><g c_partid="part_pad" c_etype="pinpart" c_origin="4115.6,3071.41" layerid="1" number="1" net="SW1_2" plated ="Y" c_shapetype="group" id="gge255" locked="0" c_rotation="90" c_width="1.7717" c_height="6.4961" title="SW1_2" c_shape="OVAL" pasteExpansion="0" solderExpansion="0.4"><polyline points="4113.238 3071.41 4117.962 3071.41" stroke-width="1.7717" /><circle c_padhole="1" cx="4115.5992" cy="3071.41" r="0" stroke-width="0" /></g><g c_partid="part_pad" c_etype="pinpart" c_origin="4032.6,3096" layerid="1" number="2" net="X2_1" plated ="Y" c_shapetype="group" id="gge363" locked="0" c_rotation="0" c_width="4.7244" c_height="7.4803" title="X2_1" c_shape="RECT" pasteExpansion="0" solderExpansion="0.4"><polygon points="4030.237 3092.26 4034.961 3092.26 4034.961 3099.74 4030.237 3099.74" stroke-width="0" /><circle c_padhole="1" cx="4032.5983" cy="3096" r="0" stroke-width="0" /></g><g c_partid="part_pad" c_etype="pinpart" c_origin="4020,3096" layerid="1" number="1" net="GND" plated ="Y" c_shapetype="group" id="gge368" locked="0" c_rotation="0" c_width="4.7244" c_height="7.4803" title="GND" c_shape="RECT" pasteExpansion="0" solderExpansion="0.4"><polygon points="4017.638 3092.26 4022.362 3092.26 4022.362 3099.74 4017.638 3099.74" stroke-width="0" /><circle c_padhole="1" cx="4019.9997" cy="3096" r="0" stroke-width="0" /></g><g c_partid="part_pad" c_etype="pinpart" c_origin="4032.6,3141" layerid="1" number="2" net="X2_2" plated ="Y" c_shapetype="group" id="gge384" locked="0" c_rotation="0" c_width="4.7244" c_height="7.4803" title="X2_2" c_shape="RECT" pasteExpansion="0" solderExpansion="0.4"><polygon points="4030.237 3137.26 4034.961 3137.26 4034.961 3144.74 4030.237 3144.74" stroke-width="0" /><circle c_padhole="1" cx="4032.5983" cy="3141" r="0" stroke-width="0" /></g><g c_partid="part_pad" c_etype="pinpart" c_origin="4020,3141" layerid="1" number="1" net="GND" plated ="Y" c_shapetype="group" id="gge389" locked="0" c_rotation="0" c_width="4.7244" c_height="7.4803" title="GND" c_shape="RECT" pasteExpansion="0" solderExpansion="0.4"><polygon points="4017.638 3137.26 4022.362 3137.26 4022.362 3144.74 4017.638 3144.74" stroke-width="0" /><circle c_padhole="1" cx="4019.9997" cy="3141" r="0" stroke-width="0" /></g><g c_partid="part_pad" c_etype="pinpart" c_origin="4201.7,3127" layerid="1" number="2" net="LED2_1" plated ="Y" c_shapetype="group" id="gge405" locked="0" c_rotation="180" c_width="4.7244" c_height="7.4803" title="LED2_1" c_shape="RECT" pasteExpansion="0" solderExpansion="0.4"><polygon points="4204.062 3130.74 4199.338 3130.74 4199.338 3123.26 4204.062 3123.26" stroke-width="0" /><circle c_padhole="1" cx="4201.7003" cy="3127" r="0" stroke-width="0" /></g><g c_partid="part_pad" c_etype="pinpart" c_origin="4214.3,3127" layerid="1" number="1" net="GND" plated ="Y" c_shapetype="group" id="gge410" locked="0" c_rotation="180" c_width="4.7244" c_height="7.4803" title="GND" c_shape="RECT" pasteExpansion="0" solderExpansion="0.4"><polygon points="4216.661 3130.74 4211.937 3130.74 4211.937 3123.26 4216.661 3123.26" stroke-width="0" /><circle c_padhole="1" cx="4214.2989" cy="3127" r="0" stroke-width="0" /></g><g c_partid="part_pad" c_etype="pinpart" c_origin="4201.7,3151.5" layerid="1" number="2" net="R6_2" plated ="Y" c_shapetype="group" id="gge426" locked="0" c_rotation="180" c_width="4.7244" c_height="7.4803" title="R6_2" c_shape="RECT" pasteExpansion="0" solderExpansion="0.4"><polygon points="4204.063 3155.24 4199.338 3155.24 4199.338 3147.76 4204.063 3147.76" stroke-width="0" /><circle c_padhole="1" cx="4201.7009" cy="3151.5" r="0" stroke-width="0" /></g><g c_partid="part_pad" c_etype="pinpart" c_origin="4214.3,3151.5" layerid="1" number="1" net="GND" plated ="Y" c_shapetype="group" id="gge431" locked="0" c_rotation="180" c_width="4.7244" c_height="7.4803" title="GND" c_shape="RECT" pasteExpansion="0" solderExpansion="0.4"><polygon points="4216.662 3155.24 4211.937 3155.24 4211.937 3147.76 4216.662 3147.76" stroke-width="0" /><circle c_padhole="1" cx="4214.2995" cy="3151.5" r="0" stroke-width="0" /></g><g c_partid="part_pcbtext" c_origin="4096,3179.5" c_rotation="0" c_mirror="" id="gge855" layerid="1" c_shapetype="group" ><path c_fontSize="8" c_fontFamily="" c_text="240mm" d="M 4096.36 3173.25 L 4096.36 3172.89 L 4096.73 3172.16 L 4097.09 3171.8 L 4097.82 3171.44 L 4099.27 3171.44 L 4100 3171.8 L 4100.36 3172.16 L 4100.73 3172.89 L 4100.73 3173.62 L 4100.36 3174.35 L 4099.64 3175.44 L 4096 3179.07 L 4101.09 3179.07 M 4107.13 3171.44 L 4103.49 3176.53 L 4108.95 3176.53 M 4107.13 3171.44 L 4107.13 3179.07 M 4113.53 3171.44 L 4112.44 3171.8 L 4111.71 3172.89 L 4111.35 3174.71 L 4111.35 3175.8 L 4111.71 3177.62 L 4112.44 3178.71 L 4113.53 3179.07 L 4114.25 3179.07 L 4115.35 3178.71 L 4116.07 3177.62 L 4116.44 3175.8 L 4116.44 3174.71 L 4116.07 3172.89 L 4115.35 3171.8 L 4114.25 3171.44 L 4113.53 3171.44 M 4118.84 3173.98 L 4118.84 3179.07 M 4118.84 3175.44 L 4119.93 3174.35 L 4120.65 3173.98 L 4121.75 3173.98 L 4122.47 3174.35 L 4122.84 3175.44 L 4122.84 3179.07 M 4122.84 3175.44 L 4123.93 3174.35 L 4124.65 3173.98 L 4125.75 3173.98 L 4126.47 3174.35 L 4126.84 3175.44 L 4126.84 3179.07 M 4129.24 3173.98 L 4129.24 3179.07 M 4129.24 3175.44 L 4130.33 3174.35 L 4131.05 3173.98 L 4132.15 3173.98 L 4132.87 3174.35 L 4133.24 3175.44 L 4133.24 3179.07 M 4133.24 3175.44 L 4134.33 3174.35 L 4135.05 3173.98 L 4136.15 3173.98 L 4136.87 3174.35 L 4137.24 3175.44 L 4137.24 3179.07" fill="none"  stroke-width="0.8"  /></g><g c_partid="part_pad" c_etype="pinpart" c_origin="4049.5,3081" layerid="11" number="1" net="" plated ="Y" c_shapetype="group" id="gge641" locked="0" c_rotation="0" c_width="6" c_height="6" title="" c_shape="ELLIPSE" pasteExpansion="0" solderExpansion="0.4"><ellipse cx="4049.5" cy="3081" rx="3" ry="3" stroke-width="0" /><circle c_padhole="1" cx="4049.5" cy="3081" r="1.8" stroke-width="0" /></g><g c_partid="part_pad" c_etype="pinpart" c_origin="4205,3107" layerid="11" number="2" net="" plated ="Y" c_shapetype="group" id="gge760" locked="0" c_rotation="0" c_width="6" c_height="6" title="" c_shape="ELLIPSE" pasteExpansion="0" solderExpansion="0.4"><ellipse cx="4205" cy="3107" rx="3" ry="3" stroke-width="0" /><circle c_padhole="1" cx="4205" cy="3107" r="1.8" stroke-width="0" /></g><g c_partid="part_pad" c_etype="pinpart" c_origin="4199.3,3083.5" layerid="11" number="3" net="SCK" plated ="Y" c_shapetype="group" id="gge49" locked="0" c_rotation="180" c_width="6.4" c_height="6.4" title="SCK" c_shape="ELLIPSE" pasteExpansion="0" solderExpansion="0.4"><ellipse cx="4199.3" cy="3083.5" rx="3.2" ry="3.2" stroke-width="0" /><circle c_padhole="1" cx="4199.2992" cy="3083.5" r="1.77" stroke-width="0" /></g><g c_partid="part_pad" c_etype="pinpart" c_origin="4209.3,3083.5" layerid="11" number="4" net="MOSI" plated ="Y" c_shapetype="group" id="gge54" locked="0" c_rotation="180" c_width="6.4" c_height="6.4" title="MOSI" c_shape="ELLIPSE" pasteExpansion="0" solderExpansion="0.4"><ellipse cx="4209.3" cy="3083.5" rx="3.2" ry="3.2" stroke-width="0" /><circle c_padhole="1" cx="4209.2992" cy="3083.5" r="1.77" stroke-width="0" /></g><g c_partid="part_pad" c_etype="pinpart" c_origin="4209.3,3093.5" layerid="11" number="2" net="VCC" plated ="Y" c_shapetype="group" id="gge59" locked="0" c_rotation="180" c_width="6.4" c_height="6.4" title="VCC" c_shape="ELLIPSE" pasteExpansion="0" solderExpansion="0.4"><ellipse cx="4209.3" cy="3093.5" rx="3.2" ry="3.2" stroke-width="0" /><circle c_padhole="1" cx="4209.2992" cy="3093.5" r="1.77" stroke-width="0" /></g><g c_partid="part_pad" c_etype="pinpart" c_origin="4199.3,3093.5" layerid="11" number="1" net="MISO" plated ="Y" c_shapetype="group" id="gge64" locked="0" c_rotation="180" c_width="6.4" c_height="6.4" title="MISO" c_shape="ELLIPSE" pasteExpansion="0" solderExpansion="0.4"><ellipse cx="4199.3" cy="3093.5" rx="3.2" ry="3.2" stroke-width="0" /><circle c_padhole="1" cx="4199.2992" cy="3093.5" r="1.77" stroke-width="0" /></g><g c_partid="part_pad" c_etype="pinpart" c_origin="4199.3,3073.5" layerid="11" number="5" net="RST" plated ="Y" c_shapetype="group" id="gge69" locked="0" c_rotation="180" c_width="6.4" c_height="6.4" title="RST" c_shape="ELLIPSE" pasteExpansion="0" solderExpansion="0.4"><ellipse cx="4199.3" cy="3073.5" rx="3.2" ry="3.2" stroke-width="0" /><circle c_padhole="1" cx="4199.2992" cy="3073.5" r="1.77" stroke-width="0" /></g><g c_partid="part_pad" c_etype="pinpart" c_origin="4209.3,3073.5" layerid="11" number="6" net="GND-R" plated ="Y" c_shapetype="group" id="gge74" locked="0" c_rotation="180" c_width="6.4" c_height="6.4" title="GND-R" c_shape="ELLIPSE" pasteExpansion="0" solderExpansion="0.4"><ellipse cx="4209.3" cy="3073.5" rx="3.2" ry="3.2" stroke-width="0" /><circle c_padhole="1" cx="4209.2992" cy="3073.5" r="1.77" stroke-width="0" /></g><g c_partid="part_pad" c_etype="pinpart" c_origin="4081.5,3026" layerid="11" number="1" net="P1_1" plated ="Y" c_shapetype="group" id="gge85" locked="0" c_rotation="90" c_width="6.2" c_height="6.2" title="P1_1" c_shape="RECT" pasteExpansion="0" solderExpansion="0.4"><polygon points="4078.4 3029.1 4078.4 3022.9 4084.6 3022.9 4084.6 3029.1" stroke-width="0" /><circle c_padhole="1" cx="4081.5" cy="3026" r="1.75" stroke-width="0" /></g><g c_partid="part_pad" c_etype="pinpart" c_origin="4071.5,3026" layerid="11" number="2" net="P1_2" plated ="Y" c_shapetype="group" id="gge90" locked="0" c_rotation="90" c_width="6.2" c_height="6.2" title="P1_2" c_shape="ELLIPSE" pasteExpansion="0" solderExpansion="0.4"><ellipse cx="4071.5" cy="3026" rx="3.1" ry="3.1" stroke-width="0" /><circle c_padhole="1" cx="4071.5" cy="3026" r="1.75" stroke-width="0" /></g><g c_partid="part_pad" c_etype="pinpart" c_origin="4193.8,3055" layerid="11" number="2" net="SW2_2" plated ="Y" c_shapetype="group" id="gge271" locked="0" c_rotation="90" c_width="7.874" c_height="7.874" title="SW2_2" c_shape="ELLIPSE" pasteExpansion="0" solderExpansion="0.4"><ellipse cx="4193.8" cy="3055" rx="3.937" ry="3.937" stroke-width="0" /><circle c_padhole="1" cx="4193.7992" cy="3055" r="2.362" stroke-width="0" /></g><g c_partid="part_pad" c_etype="pinpart" c_origin="4193.8,3035" layerid="11" number="1" net="GND" plated ="Y" c_shapetype="group" id="gge276" locked="0" c_rotation="90" c_width="7.874" c_height="7.874" title="GND" c_shape="ELLIPSE" pasteExpansion="0" solderExpansion="0.4"><ellipse cx="4193.8" cy="3035" rx="3.937" ry="3.937" stroke-width="0" /><circle c_padhole="1" cx="4193.7992" cy="3035" r="2.362" stroke-width="0" /></g><g c_partid="part_pad" c_etype="pinpart" c_origin="4038,3054.5" layerid="11" number="2" net="SW1_2" plated ="Y" c_shapetype="group" id="gge290" locked="0" c_rotation="180" c_width="7.874" c_height="7.874" title="SW1_2" c_shape="ELLIPSE" pasteExpansion="0" solderExpansion="0.4"><ellipse cx="4038" cy="3054.5" rx="3.937" ry="3.937" stroke-width="0" /><circle c_padhole="1" cx="4038" cy="3054.5" r="2.362" stroke-width="0" /></g><g c_partid="part_pad" c_etype="pinpart" c_origin="4018,3054.5" layerid="11" number="1" net="GND" plated ="Y" c_shapetype="group" id="gge295" locked="0" c_rotation="180" c_width="7.874" c_height="7.874" title="GND" c_shape="ELLIPSE" pasteExpansion="0" solderExpansion="0.4"><ellipse cx="4018" cy="3054.5" rx="3.937" ry="3.937" stroke-width="0" /><circle c_padhole="1" cx="4018" cy="3054.5" r="2.362" stroke-width="0" /></g><g c_partid="part_pad" c_etype="pinpart" c_origin="4038.5,3023" layerid="11" number="2" net="SW8_2" plated ="Y" c_shapetype="group" id="gge309" locked="0" c_rotation="180" c_width="7.874" c_height="7.874" title="SW8_2" c_shape="ELLIPSE" pasteExpansion="0" solderExpansion="0.4"><ellipse cx="4038.5" cy="3023" rx="3.937" ry="3.937" stroke-width="0" /><circle c_padhole="1" cx="4038.5" cy="3023" r="2.362" stroke-width="0" /></g><g c_partid="part_pad" c_etype="pinpart" c_origin="4018.5,3023" layerid="11" number="1" net="GND" plated ="Y" c_shapetype="group" id="gge314" locked="0" c_rotation="180" c_width="7.874" c_height="7.874" title="GND" c_shape="ELLIPSE" pasteExpansion="0" solderExpansion="0.4"><ellipse cx="4018.5" cy="3023" rx="3.937" ry="3.937" stroke-width="0" /><circle c_padhole="1" cx="4018.5" cy="3023" r="2.362" stroke-width="0" /></g><g c_partid="part_pad" c_etype="pinpart" c_origin="4182,3129" layerid="11" number="1" net="LED2_1" plated ="Y" c_shapetype="group" id="gge329" locked="0" c_rotation="0" c_width="6.5" c_height="6.5" title="LED2_1" c_shape="ELLIPSE" pasteExpansion="0" solderExpansion="0.4"><ellipse cx="4182" cy="3129" rx="3.25" ry="3.25" stroke-width="0" /><circle c_padhole="1" cx="4182" cy="3129" r="1.7717" stroke-width="0" /></g><g c_partid="part_pad" c_etype="pinpart" c_origin="4172,3129" layerid="11" number="2" net="LED2_2" plated ="Y" c_shapetype="group" id="gge334" locked="0" c_rotation="0" c_width="6.5" c_height="6.5" title="LED2_2" c_shape="ELLIPSE" pasteExpansion="0" solderExpansion="0.4"><ellipse cx="4172" cy="3129" rx="3.25" ry="3.25" stroke-width="0" /><circle c_padhole="1" cx="4172" cy="3129" r="1.7717" stroke-width="0" /></g><g c_partid="part_pad" c_etype="pinpart" c_origin="4182,3151.5" layerid="11" number="1" net="R6_2" plated ="Y" c_shapetype="group" id="gge348" locked="0" c_rotation="0" c_width="6.5" c_height="6.5" title="R6_2" c_shape="ELLIPSE" pasteExpansion="0" solderExpansion="0.4"><ellipse cx="4182" cy="3151.5" rx="3.25" ry="3.25" stroke-width="0" /><circle c_padhole="1" cx="4182" cy="3151.5" r="1.7717" stroke-width="0" /></g><g c_partid="part_pad" c_etype="pinpart" c_origin="4172,3151.5" layerid="11" number="2" net="LED1_2" plated ="Y" c_shapetype="group" id="gge353" locked="0" c_rotation="0" c_width="6.5" c_height="6.5" title="LED1_2" c_shape="ELLIPSE" pasteExpansion="0" solderExpansion="0.4"><ellipse cx="4172" cy="3151.5" rx="3.25" ry="3.25" stroke-width="0" /><circle c_padhole="1" cx="4172" cy="3151.5" r="1.7717" stroke-width="0" /></g><polyline points="4052.849 3093.65 4052.849 3147.981 4072.14 3147.981 4072.14 3093.651 4071.747 3093.257 4052.849 3093.257 4052.849 3093.65" stroke-width="1" c_shapetype="line" stroke-linecap="round" fill="none" layerid="3" net="" id="gge11" /><polyline points="4066.5 3031 4066.5 3021.1 4086.5 3021.1 4086.5 3031 4066.5 3031" stroke-width="0.8" c_shapetype="line" stroke-linecap="round" fill="none" layerid="3" net="" id="gge84" /><polyline points="4144.413 3070.836 4121.185 3070.836 4121.185 3094.064 4144.413 3094.064 4144.413 3070.836" stroke-width="1" c_shapetype="line" stroke-linecap="round" fill="none" layerid="3" net="" id="gge262" /><polyline points="4185.925 3056.811 4181.988 3052.874 4181.988 3037.126 4185.925 3033.189 4201.673 3033.189 4205.61 3037.126 4205.61 3052.874 4201.673 3056.811 4185.925 3056.811" stroke-width="1" c_shapetype="line" stroke-linecap="round" fill="none" layerid="3" net="" id="gge268" /><polyline points="4181.988 3056.811 4181.988 3033.189 4205.61 3033.189 4205.61 3056.811 4181.988 3056.811" stroke-width="1" c_shapetype="line" stroke-linecap="round" fill="none" layerid="3" net="" id="gge281" /><polyline points="4039.811 3062.374 4035.874 3066.311 4020.126 3066.311 4016.189 3062.374 4016.189 3046.626 4020.126 3042.689 4035.874 3042.689 4039.811 3046.626 4039.811 3062.374" stroke-width="1" c_shapetype="line" stroke-linecap="round" fill="none" layerid="3" net="" id="gge287" /><polyline points="4039.811 3066.311 4016.189 3066.311 4016.189 3042.689 4039.811 3042.689 4039.811 3066.311" stroke-width="1" c_shapetype="line" stroke-linecap="round" fill="none" layerid="3" net="" id="gge300" /><polyline points="4040.311 3030.874 4036.374 3034.811 4020.626 3034.811 4016.689 3030.874 4016.689 3015.126 4020.626 3011.189 4036.374 3011.189 4040.311 3015.126 4040.311 3030.874" stroke-width="1" c_shapetype="line" stroke-linecap="round" fill="none" layerid="3" net="" id="gge306" /><polyline points="4040.311 3034.811 4016.689 3034.811 4016.689 3011.189 4040.311 3011.189 4040.311 3034.811" stroke-width="1" c_shapetype="line" stroke-linecap="round" fill="none" layerid="3" net="" id="gge319" /><polyline points="4171.095 3123.792 4171.095 3124.864" stroke-width="1" c_shapetype="line" stroke-linecap="round" fill="none" layerid="3" net="" id="gge326" /><polyline points="4171.095 3133.136 4171.095 3134.208" stroke-width="1" c_shapetype="line" stroke-linecap="round" fill="none" layerid="3" net="" id="gge328" /><polyline points="4171.095 3146.292 4171.095 3147.364" stroke-width="1" c_shapetype="line" stroke-linecap="round" fill="none" layerid="3" net="" id="gge345" /><polyline points="4171.095 3155.636 4171.095 3156.708" stroke-width="1" c_shapetype="line" stroke-linecap="round" fill="none" layerid="3" net="" id="gge347" /><polyline points="4016.457 3091.276 4016.457 3100.724" stroke-width="1" c_shapetype="line" stroke-linecap="round" fill="none" layerid="3" net="" id="gge373" /><polyline points="4030.236 3100.724 4036.142 3100.724" stroke-width="1" c_shapetype="line" stroke-linecap="round" fill="none" layerid="3" net="" id="gge374" /><polyline points="4030.236 3091.276 4036.142 3091.276" stroke-width="1" c_shapetype="line" stroke-linecap="round" fill="none" layerid="3" net="" id="gge375" /><polyline points="4022.362 3100.724 4016.457 3100.724" stroke-width="1" c_shapetype="line" stroke-linecap="round" fill="none" layerid="3" net="" id="gge376" /><polyline points="4022.362 3091.276 4016.457 3091.276" stroke-width="1" c_shapetype="line" stroke-linecap="round" fill="none" layerid="3" net="" id="gge377" /><polyline points="4036.142 3091.276 4036.142 3100.724" stroke-width="1" c_shapetype="line" stroke-linecap="round" fill="none" layerid="3" net="" id="gge378" /><polyline points="4016.457 3136.276 4016.457 3145.724" stroke-width="1" c_shapetype="line" stroke-linecap="round" fill="none" layerid="3" net="" id="gge394" /><polyline points="4030.236 3145.724 4036.142 3145.724" stroke-width="1" c_shapetype="line" stroke-linecap="round" fill="none" layerid="3" net="" id="gge395" /><polyline points="4030.236 3136.276 4036.142 3136.276" stroke-width="1" c_shapetype="line" stroke-linecap="round" fill="none" layerid="3" net="" id="gge396" /><polyline points="4022.362 3145.724 4016.457 3145.724" stroke-width="1" c_shapetype="line" stroke-linecap="round" fill="none" layerid="3" net="" id="gge397" /><polyline points="4022.362 3136.276 4016.457 3136.276" stroke-width="1" c_shapetype="line" stroke-linecap="round" fill="none" layerid="3" net="" id="gge398" /><polyline points="4036.142 3136.276 4036.142 3145.724" stroke-width="1" c_shapetype="line" stroke-linecap="round" fill="none" layerid="3" net="" id="gge399" /><polyline points="4217.842 3131.724 4217.842 3122.276" stroke-width="1" c_shapetype="line" stroke-linecap="round" fill="none" layerid="3" net="" id="gge415" /><polyline points="4204.063 3122.276 4198.157 3122.276" stroke-width="1" c_shapetype="line" stroke-linecap="round" fill="none" layerid="3" net="" id="gge416" /><polyline points="4204.063 3131.724 4198.157 3131.724" stroke-width="1" c_shapetype="line" stroke-linecap="round" fill="none" layerid="3" net="" id="gge417" /><polyline points="4211.937 3122.276 4217.842 3122.276" stroke-width="1" c_shapetype="line" stroke-linecap="round" fill="none" layerid="3" net="" id="gge418" /><polyline points="4211.937 3131.724 4217.842 3131.724" stroke-width="1" c_shapetype="line" stroke-linecap="round" fill="none" layerid="3" net="" id="gge419" /><polyline points="4198.157 3131.724 4198.157 3122.276" stroke-width="1" c_shapetype="line" stroke-linecap="round" fill="none" layerid="3" net="" id="gge420" /><polyline points="4217.843 3156.224 4217.843 3146.776" stroke-width="1" c_shapetype="line" stroke-linecap="round" fill="none" layerid="3" net="" id="gge436" /><polyline points="4204.063 3146.776 4198.158 3146.776" stroke-width="1" c_shapetype="line" stroke-linecap="round" fill="none" layerid="3" net="" id="gge437" /><polyline points="4204.063 3156.224 4198.158 3156.224" stroke-width="1" c_shapetype="line" stroke-linecap="round" fill="none" layerid="3" net="" id="gge438" /><polyline points="4211.937 3146.776 4217.843 3146.776" stroke-width="1" c_shapetype="line" stroke-linecap="round" fill="none" layerid="3" net="" id="gge439" /><polyline points="4211.937 3156.224 4217.843 3156.224" stroke-width="1" c_shapetype="line" stroke-linecap="round" fill="none" layerid="3" net="" id="gge440" /><polyline points="4198.158 3156.224 4198.158 3146.776" stroke-width="1" c_shapetype="line" stroke-linecap="round" fill="none" layerid="3" net="" id="gge441" /><g c_partid="part_pcbtext" c_origin="4053.71,3120.98" c_rotation="90" c_mirror="" id="gge7" layerid="3" c_shapetype="group" ><path c_fontSize="4.5" c_fontFamily="" c_text="X2" d="M 4047.5592 3120.981 L 4051.8492 3118.121 M 4047.5592 3118.121 L 4051.8492 3120.981 M 4048.5792 3116.561 L 4048.3692 3116.561 L 4047.9592 3116.361 L 4047.7592 3116.151 L 4047.5592 3115.741 L 4047.5592 3114.931 L 4047.7592 3114.521 L 4047.9592 3114.311 L 4048.3692 3114.111 L 4048.7792 3114.111 L 4049.1892 3114.311 L 4049.8092 3114.721 L 4051.8492 3116.771 L 4051.8492 3113.901" fill="none"  stroke-width="0.6" c_note="note_pre" /></g><g c_partid="part_pcbtext" c_origin="4048.21,3120.98" c_rotation="90" c_mirror="" id="gge9" layerid="3" c_shapetype="group" display="none"><path c_fontSize="4.5" c_fontFamily="" c_text="16MHz" d="M 4042.8692 3120.981 L 4042.6692 3120.571 L 4042.0592 3119.961 L 4046.3492 3119.961 M 4042.6692 3116.151 L 4042.2592 3116.361 L 4042.0592 3116.971 L 4042.0592 3117.381 L 4042.2592 3117.991 L 4042.8692 3118.401 L 4043.8992 3118.611 L 4044.9192 3118.611 L 4045.7392 3118.401 L 4046.1492 3117.991 L 4046.3492 3117.381 L 4046.3492 3117.181 L 4046.1492 3116.561 L 4045.7392 3116.151 L 4045.1192 3115.951 L 4044.9192 3115.951 L 4044.3092 3116.151 L 4043.8992 3116.561 L 4043.6892 3117.181 L 4043.6892 3117.381 L 4043.8992 3117.991 L 4044.3092 3118.401 L 4044.9192 3118.611 M 4042.0592 3114.601 L 4046.3492 3114.601 M 4042.0592 3114.601 L 4046.3492 3112.961 M 4042.0592 3111.331 L 4046.3492 3112.961 M 4042.0592 3111.331 L 4046.3492 3111.331 M 4042.0592 3109.981 L 4046.3492 3109.981 M 4042.0592 3107.111 L 4046.3492 3107.111 M 4044.0992 3109.981 L 4044.0992 3107.111 M 4043.4892 3103.511 L 4046.3492 3105.761 M 4043.4892 3105.761 L 4043.4892 3103.511 M 4046.3492 3105.761 L 4046.3492 3103.511" fill="none"  stroke-width="0.6"  /></g><g c_partid="part_pcbtext" c_origin="4071.26,3038.15" c_rotation="0" c_mirror="" id="gge80" layerid="3" c_shapetype="group" ><path c_fontSize="4.5" c_fontFamily="" c_text="P1" d="M 4071.2598 3032 L 4071.2598 3036.29 M 4071.2598 3032 L 4073.0998 3032 L 4073.7098 3032.2 L 4073.9198 3032.4 L 4074.1198 3032.81 L 4074.1198 3033.43 L 4073.9198 3033.84 L 4073.7098 3034.04 L 4073.0998 3034.25 L 4071.2598 3034.25 M 4075.4698 3032.81 L 4075.8798 3032.61 L 4076.4998 3032 L 4076.4998 3036.29" fill="none"  stroke-width="0.6" c_note="note_pre" /></g><g c_partid="part_pcbtext" c_origin="4076.5,3035.64" c_rotation="180" c_mirror="" id="gge82" layerid="3" c_shapetype="group" display="none"><path c_fontSize="4.5" c_fontFamily="" c_text="rx-tx" d="M 4076.5 3040.36 L 4076.5 3037.5 M 4076.5 3039.14 L 4076.3 3039.75 L 4075.89 3040.16 L 4075.48 3040.36 L 4074.86 3040.36 M 4073.51 3040.36 L 4071.26 3037.5 M 4071.26 3040.36 L 4073.51 3037.5 M 4069.91 3039.34 L 4066.23 3039.34 M 4064.27 3041.79 L 4064.27 3038.32 L 4064.06 3037.7 L 4063.65 3037.5 L 4063.25 3037.5 M 4064.88 3040.36 L 4063.45 3040.36 M 4061.9 3040.36 L 4059.65 3037.5 M 4059.65 3040.36 L 4061.9 3037.5" fill="none"  stroke-width="0.6"  /></g><g c_partid="part_pcbtext" c_origin="4132.8,3063.75" c_rotation="0" c_mirror="" id="gge96" layerid="3" c_shapetype="group" ><path c_fontSize="4.5" c_fontFamily="" c_text="U2" d="M 4132.7992 3057.59 L 4132.7992 3060.66 L 4132.9992 3061.28 L 4133.4092 3061.68 L 4134.0292 3061.89 L 4134.4392 3061.89 L 4135.0492 3061.68 L 4135.4592 3061.28 L 4135.6592 3060.66 L 4135.6592 3057.59 M 4137.2192 3058.62 L 4137.2192 3058.41 L 4137.4192 3058 L 4137.6292 3057.8 L 4138.0392 3057.59 L 4138.8492 3057.59 L 4139.2592 3057.8 L 4139.4692 3058 L 4139.6692 3058.41 L 4139.6692 3058.82 L 4139.4692 3059.23 L 4139.0592 3059.84 L 4137.0092 3061.89 L 4139.8792 3061.89" fill="none"  stroke-width="0.6" c_note="note_pre" /></g><g c_partid="part_pcbtext" c_origin="4132.8,3058.25" c_rotation="0" c_mirror="" id="gge98" layerid="3" c_shapetype="group" display="none"><path c_fontSize="4.5" c_fontFamily="" c_text="ATMEGA8L-8AU" d="M 4134.4392 3052.09 L 4132.7992 3056.39 M 4134.4392 3052.09 L 4136.0692 3056.39 M 4133.4092 3054.96 L 4135.4592 3054.96 M 4138.8492 3052.09 L 4138.8492 3056.39 M 4137.4192 3052.09 L 4140.2892 3052.09 M 4141.6392 3052.09 L 4141.6392 3056.39 M 4141.6392 3052.09 L 4143.2692 3056.39 M 4144.9092 3052.09 L 4143.2692 3056.39 M 4144.9092 3052.09 L 4144.9092 3056.39 M 4146.2592 3052.09 L 4146.2592 3056.39 M 4146.2592 3052.09 L 4148.9192 3052.09 M 4146.2592 3054.14 L 4147.8992 3054.14 M 4146.2592 3056.39 L 4148.9192 3056.39 M 4153.3392 3053.12 L 4153.1292 3052.71 L 4152.7192 3052.3 L 4152.3092 3052.09 L 4151.4992 3052.09 L 4151.0892 3052.3 L 4150.6792 3052.71 L 4150.4692 3053.12 L 4150.2692 3053.73 L 4150.2692 3054.75 L 4150.4692 3055.37 L 4150.6792 3055.78 L 4151.0892 3056.18 L 4151.4992 3056.39 L 4152.3092 3056.39 L 4152.7192 3056.18 L 4153.1292 3055.78 L 4153.3392 3055.37 L 4153.3392 3054.75 M 4152.3092 3054.75 L 4153.3392 3054.75 M 4156.3192 3052.09 L 4154.6892 3056.39 M 4156.3192 3052.09 L 4157.9592 3056.39 M 4155.2992 3054.96 L 4157.3492 3054.96 M 4160.3292 3052.09 L 4159.7192 3052.3 L 4159.5092 3052.71 L 4159.5092 3053.12 L 4159.7192 3053.53 L 4160.1292 3053.73 L 4160.9492 3053.93 L 4161.5592 3054.14 L 4161.9692 3054.55 L 4162.1692 3054.96 L 4162.1692 3055.57 L 4161.9692 3055.98 L 4161.7592 3056.18 L 4161.1492 3056.39 L 4160.3292 3056.39 L 4159.7192 3056.18 L 4159.5092 3055.98 L 4159.3092 3055.57 L 4159.3092 3054.96 L 4159.5092 3054.55 L 4159.9192 3054.14 L 4160.5392 3053.93 L 4161.3492 3053.73 L 4161.7592 3053.53 L 4161.9692 3053.12 L 4161.9692 3052.71 L 4161.7592 3052.3 L 4161.1492 3052.09 L 4160.3292 3052.09 M 4163.5192 3052.09 L 4163.5192 3056.39 M 4163.5192 3056.39 L 4165.9792 3056.39 M 4167.3292 3054.55 L 4171.0092 3054.55 M 4173.3792 3052.09 L 4172.7692 3052.3 L 4172.5592 3052.71 L 4172.5592 3053.12 L 4172.7692 3053.53 L 4173.1792 3053.73 L 4173.9992 3053.93 L 4174.6092 3054.14 L 4175.0192 3054.55 L 4175.2192 3054.96 L 4175.2192 3055.57 L 4175.0192 3055.98 L 4174.8092 3056.18 L 4174.1992 3056.39 L 4173.3792 3056.39 L 4172.7692 3056.18 L 4172.5592 3055.98 L 4172.3592 3055.57 L 4172.3592 3054.96 L 4172.5592 3054.55 L 4172.9692 3054.14 L 4173.5892 3053.93 L 4174.3992 3053.73 L 4174.8092 3053.53 L 4175.0192 3053.12 L 4175.0192 3052.71 L 4174.8092 3052.3 L 4174.1992 3052.09 L 4173.3792 3052.09 M 4178.2092 3052.09 L 4176.5692 3056.39 M 4178.2092 3052.09 L 4179.8492 3056.39 M 4177.1892 3054.96 L 4179.2292 3054.96 M 4181.1992 3052.09 L 4181.1992 3055.16 L 4181.3992 3055.78 L 4181.8092 3056.18 L 4182.4192 3056.39 L 4182.8292 3056.39 L 4183.4492 3056.18 L 4183.8492 3055.78 L 4184.0592 3055.16 L 4184.0592 3052.09" fill="none"  stroke-width="0.6"  /></g><g c_partid="part_pcbtext" c_origin="4182.85,3045" c_rotation="90" c_mirror="" id="gge264" layerid="3" c_shapetype="group" ><path c_fontSize="4.5" c_fontFamily="" c_text="SW2" d="M 4177.3092 3042.14 L 4176.8992 3042.55 L 4176.6892 3043.16 L 4176.6892 3043.98 L 4176.8992 3044.59 L 4177.3092 3045 L 4177.7192 3045 L 4178.1292 3044.8 L 4178.3292 3044.59 L 4178.5392 3044.18 L 4178.9392 3042.95 L 4179.1492 3042.55 L 4179.3492 3042.34 L 4179.7592 3042.14 L 4180.3792 3042.14 L 4180.7892 3042.55 L 4180.9892 3043.16 L 4180.9892 3043.98 L 4180.7892 3044.59 L 4180.3792 3045 M 4176.6892 3040.79 L 4180.9892 3039.76 M 4176.6892 3038.74 L 4180.9892 3039.76 M 4176.6892 3038.74 L 4180.9892 3037.72 M 4176.6892 3036.7 L 4180.9892 3037.72 M 4177.7192 3035.14 L 4177.5092 3035.14 L 4177.0992 3034.94 L 4176.8992 3034.73 L 4176.6892 3034.32 L 4176.6892 3033.5 L 4176.8992 3033.1 L 4177.0992 3032.89 L 4177.5092 3032.69 L 4177.9192 3032.69 L 4178.3292 3032.89 L 4178.9392 3033.3 L 4180.9892 3035.35 L 4180.9892 3032.48" fill="none"  stroke-width="0.6" c_note="note_pre" /></g><g c_partid="part_pcbtext" c_origin="4177.35,3045" c_rotation="90" c_mirror="" id="gge266" layerid="3" c_shapetype="group" display="none"><path c_fontSize="4.5" c_fontFamily="" c_text="btn pc4" d="M 4171.1892 3045 L 4175.4892 3045 M 4173.2392 3045 L 4172.8292 3044.59 L 4172.6292 3044.18 L 4172.6292 3043.57 L 4172.8292 3043.16 L 4173.2392 3042.75 L 4173.8492 3042.55 L 4174.2592 3042.55 L 4174.8792 3042.75 L 4175.2892 3043.16 L 4175.4892 3043.57 L 4175.4892 3044.18 L 4175.2892 3044.59 L 4174.8792 3045 M 4171.1892 3040.58 L 4174.6692 3040.58 L 4175.2892 3040.38 L 4175.4892 3039.97 L 4175.4892 3039.56 M 4172.6292 3041.2 L 4172.6292 3039.76 M 4172.6292 3038.21 L 4175.4892 3038.21 M 4173.4392 3038.21 L 4172.8292 3037.6 L 4172.6292 3037.19 L 4172.6292 3036.57 L 4172.8292 3036.16 L 4173.4392 3035.96 L 4175.4892 3035.96 M 4172.6292 3031.46 L 4176.9192 3031.46 M 4173.2392 3031.46 L 4172.8292 3031.05 L 4172.6292 3030.64 L 4172.6292 3030.03 L 4172.8292 3029.62 L 4173.2392 3029.21 L 4173.8492 3029 L 4174.2592 3029 L 4174.8792 3029.21 L 4175.2892 3029.62 L 4175.4892 3030.03 L 4175.4892 3030.64 L 4175.2892 3031.05 L 4174.8792 3031.46 M 4173.2392 3025.2 L 4172.8292 3025.61 L 4172.6292 3026.02 L 4172.6292 3026.63 L 4172.8292 3027.04 L 4173.2392 3027.45 L 4173.8492 3027.65 L 4174.2592 3027.65 L 4174.8792 3027.45 L 4175.2892 3027.04 L 4175.4892 3026.63 L 4175.4892 3026.02 L 4175.2892 3025.61 L 4174.8792 3025.2 M 4171.1892 3021.8 L 4174.0592 3023.85 L 4174.0592 3020.78 M 4171.1892 3021.8 L 4175.4892 3021.8" fill="none"  stroke-width="0.6"  /></g><g c_partid="part_pcbtext" c_origin="4017.32,3073.47" c_rotation="0" c_mirror="" id="gge283" layerid="3" c_shapetype="group" ><path c_fontSize="4.5" c_fontFamily="" c_text="SW1" d="M 4020.1798 3067.9302 L 4019.7698 3067.5202 L 4019.1598 3067.3102 L 4018.3398 3067.3102 L 4017.7298 3067.5202 L 4017.3198 3067.9302 L 4017.3198 3068.3402 L 4017.5198 3068.7502 L 4017.7298 3068.9502 L 4018.1398 3069.1602 L 4019.3698 3069.5602 L 4019.7698 3069.7702 L 4019.9798 3069.9702 L 4020.1798 3070.3802 L 4020.1798 3071.0002 L 4019.7698 3071.4102 L 4019.1598 3071.6102 L 4018.3398 3071.6102 L 4017.7298 3071.4102 L 4017.3198 3071.0002 M 4021.5298 3067.3102 L 4022.5598 3071.6102 M 4023.5798 3067.3102 L 4022.5598 3071.6102 M 4023.5798 3067.3102 L 4024.5998 3071.6102 M 4025.6198 3067.3102 L 4024.5998 3071.6102 M 4026.9698 3068.1302 L 4027.3798 3067.9302 L 4027.9998 3067.3102 L 4027.9998 3071.6102" fill="none"  stroke-width="0.6" c_note="note_pre" /></g><g c_partid="part_pcbtext" c_origin="4028,3070.95" c_rotation="180" c_mirror="" id="gge285" layerid="3" c_shapetype="group" display="none"><path c_fontSize="4.5" c_fontFamily="" c_text="btn int1" d="M 4028 3077.11 L 4028 3072.81 M 4028 3075.06 L 4027.59 3075.47 L 4027.18 3075.67 L 4026.57 3075.67 L 4026.16 3075.47 L 4025.75 3075.06 L 4025.55 3074.45 L 4025.55 3074.04 L 4025.75 3073.42 L 4026.16 3073.01 L 4026.57 3072.81 L 4027.18 3072.81 L 4027.59 3073.01 L 4028 3073.42 M 4023.58 3077.11 L 4023.58 3073.63 L 4023.38 3073.01 L 4022.97 3072.81 L 4022.56 3072.81 M 4024.2 3075.67 L 4022.76 3075.67 M 4021.21 3075.67 L 4021.21 3072.81 M 4021.21 3074.86 L 4020.6 3075.47 L 4020.19 3075.67 L 4019.57 3075.67 L 4019.16 3075.47 L 4018.96 3074.86 L 4018.96 3072.81 M 4014.46 3077.11 L 4014.25 3076.9 L 4014.05 3077.11 L 4014.25 3077.31 L 4014.46 3077.11 M 4014.25 3075.67 L 4014.25 3072.81 M 4012.7 3075.67 L 4012.7 3072.81 M 4012.7 3074.86 L 4012.09 3075.47 L 4011.68 3075.67 L 4011.06 3075.67 L 4010.65 3075.47 L 4010.45 3074.86 L 4010.45 3072.81 M 4008.49 3077.11 L 4008.49 3073.63 L 4008.28 3073.01 L 4007.87 3072.81 L 4007.46 3072.81 M 4009.1 3075.67 L 4007.67 3075.67 M 4006.11 3076.29 L 4005.7 3076.49 L 4005.09 3077.11 L 4005.09 3072.81" fill="none"  stroke-width="0.6"  /></g><g c_partid="part_pcbtext" c_origin="4015.98,3041.97" c_rotation="0" c_mirror="" id="gge302" layerid="3" c_shapetype="group" ><path c_fontSize="4.5" c_fontFamily="" c_text="SW8" d="M 4018.84 3036.4302 L 4018.43 3036.0202 L 4017.82 3035.8102 L 4017 3035.8102 L 4016.39 3036.0202 L 4015.98 3036.4302 L 4015.98 3036.8402 L 4016.18 3037.2502 L 4016.39 3037.4502 L 4016.8 3037.6602 L 4018.03 3038.0602 L 4018.43 3038.2702 L 4018.64 3038.4702 L 4018.84 3038.8802 L 4018.84 3039.5002 L 4018.43 3039.9102 L 4017.82 3040.1102 L 4017 3040.1102 L 4016.39 3039.9102 L 4015.98 3039.5002 M 4020.19 3035.8102 L 4021.22 3040.1102 M 4022.24 3035.8102 L 4021.22 3040.1102 M 4022.24 3035.8102 L 4023.26 3040.1102 M 4024.28 3035.8102 L 4023.26 3040.1102 M 4026.66 3035.8102 L 4026.04 3036.0202 L 4025.84 3036.4302 L 4025.84 3036.8402 L 4026.04 3037.2502 L 4026.45 3037.4502 L 4027.27 3037.6602 L 4027.88 3037.8602 L 4028.29 3038.2702 L 4028.5 3038.6802 L 4028.5 3039.2902 L 4028.29 3039.7002 L 4028.09 3039.9102 L 4027.48 3040.1102 L 4026.66 3040.1102 L 4026.04 3039.9102 L 4025.84 3039.7002 L 4025.63 3039.2902 L 4025.63 3038.6802 L 4025.84 3038.2702 L 4026.25 3037.8602 L 4026.86 3037.6602 L 4027.68 3037.4502 L 4028.09 3037.2502 L 4028.29 3036.8402 L 4028.29 3036.4302 L 4028.09 3036.0202 L 4027.48 3035.8102 L 4026.66 3035.8102" fill="none"  stroke-width="0.6" c_note="note_pre" /></g><g c_partid="part_pcbtext" c_origin="4028.5,3039.45" c_rotation="180" c_mirror="" id="gge304" layerid="3" c_shapetype="group" display="none"><path c_fontSize="4.5" c_fontFamily="" c_text="btn int0" d="M 4028.5 3045.61 L 4028.5 3041.31 M 4028.5 3043.56 L 4028.09 3043.97 L 4027.68 3044.17 L 4027.07 3044.17 L 4026.66 3043.97 L 4026.25 3043.56 L 4026.05 3042.95 L 4026.05 3042.54 L 4026.25 3041.92 L 4026.66 3041.51 L 4027.07 3041.31 L 4027.68 3041.31 L 4028.09 3041.51 L 4028.5 3041.92 M 4024.08 3045.61 L 4024.08 3042.13 L 4023.88 3041.51 L 4023.47 3041.31 L 4023.06 3041.31 M 4024.7 3044.17 L 4023.26 3044.17 M 4021.71 3044.17 L 4021.71 3041.31 M 4021.71 3043.36 L 4021.1 3043.97 L 4020.69 3044.17 L 4020.07 3044.17 L 4019.66 3043.97 L 4019.46 3043.36 L 4019.46 3041.31 M 4014.96 3045.61 L 4014.75 3045.4 L 4014.55 3045.61 L 4014.75 3045.81 L 4014.96 3045.61 M 4014.75 3044.17 L 4014.75 3041.31 M 4013.2 3044.17 L 4013.2 3041.31 M 4013.2 3043.36 L 4012.59 3043.97 L 4012.18 3044.17 L 4011.56 3044.17 L 4011.15 3043.97 L 4010.95 3043.36 L 4010.95 3041.31 M 4008.99 3045.61 L 4008.99 3042.13 L 4008.78 3041.51 L 4008.37 3041.31 L 4007.96 3041.31 M 4009.6 3044.17 L 4008.17 3044.17 M 4005.39 3045.61 L 4006 3045.4 L 4006.41 3044.79 L 4006.61 3043.76 L 4006.61 3043.15 L 4006.41 3042.13 L 4006 3041.51 L 4005.39 3041.31 L 4004.98 3041.31 L 4004.36 3041.51 L 4003.95 3042.13 L 4003.75 3043.15 L 4003.75 3043.76 L 4003.95 3044.79 L 4004.36 3045.4 L 4004.98 3045.61 L 4005.39 3045.61" fill="none"  stroke-width="0.6"  /></g><g c_partid="part_pcbtext" c_origin="4192.8,3142.89" c_rotation="90" c_mirror="" id="gge321" layerid="3" c_shapetype="group" ><path c_fontSize="4.5" c_fontFamily="" c_text="LED2" d="M 4186.6498 3142.8901 L 4190.9398 3142.8901 M 4190.9398 3142.8901 L 4190.9398 3140.4401 M 4186.6498 3139.0901 L 4190.9398 3139.0901 M 4186.6498 3139.0901 L 4186.6498 3136.4301 M 4188.6898 3139.0901 L 4188.6898 3137.4501 M 4190.9398 3139.0901 L 4190.9398 3136.4301 M 4186.6498 3135.0801 L 4190.9398 3135.0801 M 4186.6498 3135.0801 L 4186.6498 3133.6401 L 4186.8498 3133.0301 L 4187.2598 3132.6201 L 4187.6698 3132.4201 L 4188.2798 3132.2101 L 4189.2998 3132.2101 L 4189.9198 3132.4201 L 4190.3298 3132.6201 L 4190.7398 3133.0301 L 4190.9398 3133.6401 L 4190.9398 3135.0801 M 4187.6698 3130.6601 L 4187.4598 3130.6601 L 4187.0498 3130.4501 L 4186.8498 3130.2501 L 4186.6498 3129.8401 L 4186.6498 3129.0201 L 4186.8498 3128.6101 L 4187.0498 3128.4101 L 4187.4598 3128.2001 L 4187.8698 3128.2001 L 4188.2798 3128.4101 L 4188.8998 3128.8201 L 4190.9398 3130.8601 L 4190.9398 3128.0001" fill="none"  stroke-width="0.6" c_note="note_pre" /></g><g c_partid="part_pcbtext" c_origin="4190.29,3128" c_rotation="270" c_mirror="" id="gge323" layerid="3" c_shapetype="group" display="none"><path c_fontSize="4.5" c_fontFamily="" c_text="led pd7" d="M 4196.44 3128 L 4192.15 3128 M 4193.79 3129.35 L 4193.79 3131.8 L 4194.19 3131.8 L 4194.6 3131.6 L 4194.81 3131.4 L 4195.01 3130.99 L 4195.01 3130.37 L 4194.81 3129.96 L 4194.4 3129.55 L 4193.79 3129.35 L 4193.38 3129.35 L 4192.76 3129.55 L 4192.35 3129.96 L 4192.15 3130.37 L 4192.15 3130.99 L 4192.35 3131.4 L 4192.76 3131.8 M 4196.44 3135.61 L 4192.15 3135.61 M 4194.4 3135.61 L 4194.81 3135.2 L 4195.01 3134.79 L 4195.01 3134.18 L 4194.81 3133.77 L 4194.4 3133.36 L 4193.79 3133.15 L 4193.38 3133.15 L 4192.76 3133.36 L 4192.35 3133.77 L 4192.15 3134.18 L 4192.15 3134.79 L 4192.35 3135.2 L 4192.76 3135.61 M 4195.01 3140.11 L 4190.72 3140.11 M 4194.4 3140.11 L 4194.81 3140.52 L 4195.01 3140.93 L 4195.01 3141.54 L 4194.81 3141.95 L 4194.4 3142.36 L 4193.79 3142.56 L 4193.38 3142.56 L 4192.76 3142.36 L 4192.35 3141.95 L 4192.15 3141.54 L 4192.15 3140.93 L 4192.35 3140.52 L 4192.76 3140.11 M 4196.44 3146.37 L 4192.15 3146.37 M 4194.4 3146.37 L 4194.81 3145.96 L 4195.01 3145.55 L 4195.01 3144.94 L 4194.81 3144.53 L 4194.4 3144.12 L 4193.79 3143.91 L 4193.38 3143.91 L 4192.76 3144.12 L 4192.35 3144.53 L 4192.15 3144.94 L 4192.15 3145.55 L 4192.35 3145.96 L 4192.76 3146.37 M 4196.44 3150.58 L 4192.15 3148.54 M 4196.44 3147.72 L 4196.44 3150.58" fill="none"  stroke-width="0.6"  /></g><g c_partid="part_pcbtext" c_origin="4192.8,3163.55" c_rotation="90" c_mirror="" id="gge340" layerid="3" c_shapetype="group" ><path c_fontSize="4.5" c_fontFamily="" c_text="LED1" d="M 4186.6498 3163.5498 L 4190.9398 3163.5498 M 4190.9398 3163.5498 L 4190.9398 3161.0998 M 4186.6498 3159.7498 L 4190.9398 3159.7498 M 4186.6498 3159.7498 L 4186.6498 3157.0898 M 4188.6898 3159.7498 L 4188.6898 3158.1098 M 4190.9398 3159.7498 L 4190.9398 3157.0898 M 4186.6498 3155.7398 L 4190.9398 3155.7398 M 4186.6498 3155.7398 L 4186.6498 3154.2998 L 4186.8498 3153.6898 L 4187.2598 3153.2798 L 4187.6698 3153.0798 L 4188.2798 3152.8698 L 4189.2998 3152.8698 L 4189.9198 3153.0798 L 4190.3298 3153.2798 L 4190.7398 3153.6898 L 4190.9398 3154.2998 L 4190.9398 3155.7398 M 4187.4598 3151.5198 L 4187.2598 3151.1098 L 4186.6498 3150.4998 L 4190.9398 3150.4998" fill="none"  stroke-width="0.6" c_note="note_pre" /></g><g c_partid="part_pcbtext" c_origin="4190.29,3150.5" c_rotation="270" c_mirror="" id="gge342" layerid="3" c_shapetype="group" display="none"><path c_fontSize="4.5" c_fontFamily="" c_text="led pd6" d="M 4196.44 3150.5 L 4192.15 3150.5 M 4193.79 3151.85 L 4193.79 3154.3 L 4194.19 3154.3 L 4194.6 3154.1 L 4194.81 3153.9 L 4195.01 3153.49 L 4195.01 3152.87 L 4194.81 3152.46 L 4194.4 3152.05 L 4193.79 3151.85 L 4193.38 3151.85 L 4192.76 3152.05 L 4192.35 3152.46 L 4192.15 3152.87 L 4192.15 3153.49 L 4192.35 3153.9 L 4192.76 3154.3 M 4196.44 3158.11 L 4192.15 3158.11 M 4194.4 3158.11 L 4194.81 3157.7 L 4195.01 3157.29 L 4195.01 3156.68 L 4194.81 3156.27 L 4194.4 3155.86 L 4193.79 3155.65 L 4193.38 3155.65 L 4192.76 3155.86 L 4192.35 3156.27 L 4192.15 3156.68 L 4192.15 3157.29 L 4192.35 3157.7 L 4192.76 3158.11 M 4195.01 3162.61 L 4190.72 3162.61 M 4194.4 3162.61 L 4194.81 3163.02 L 4195.01 3163.43 L 4195.01 3164.04 L 4194.81 3164.45 L 4194.4 3164.86 L 4193.79 3165.06 L 4193.38 3165.06 L 4192.76 3164.86 L 4192.35 3164.45 L 4192.15 3164.04 L 4192.15 3163.43 L 4192.35 3163.02 L 4192.76 3162.61 M 4196.44 3168.87 L 4192.15 3168.87 M 4194.4 3168.87 L 4194.81 3168.46 L 4195.01 3168.05 L 4195.01 3167.44 L 4194.81 3167.03 L 4194.4 3166.62 L 4193.79 3166.41 L 4193.38 3166.41 L 4192.76 3166.62 L 4192.35 3167.03 L 4192.15 3167.44 L 4192.15 3168.05 L 4192.35 3168.46 L 4192.76 3168.87 M 4195.83 3172.67 L 4196.24 3172.47 L 4196.44 3171.85 L 4196.44 3171.45 L 4196.24 3170.83 L 4195.63 3170.42 L 4194.6 3170.22 L 4193.58 3170.22 L 4192.76 3170.42 L 4192.35 3170.83 L 4192.15 3171.45 L 4192.15 3171.65 L 4192.35 3172.26 L 4192.76 3172.67 L 4193.38 3172.88 L 4193.58 3172.88 L 4194.19 3172.67 L 4194.6 3172.26 L 4194.81 3171.65 L 4194.81 3171.45 L 4194.6 3170.83 L 4194.19 3170.42 L 4193.58 3170.22" fill="none"  stroke-width="0.6"  /></g><g c_partid="part_pcbtext" c_origin="4036.34,3094.3" c_rotation="0" c_mirror="" id="gge359" layerid="3" c_shapetype="group" ><path c_fontSize="4.5" c_fontFamily="" c_text="C4" d="M 4039.4104 3089.17 L 4039.2004 3088.76 L 4038.7904 3088.35 L 4038.3904 3088.15 L 4037.5704 3088.15 L 4037.1604 3088.35 L 4036.7504 3088.76 L 4036.5404 3089.17 L 4036.3404 3089.78 L 4036.3404 3090.8 L 4036.5404 3091.42 L 4036.7504 3091.83 L 4037.1604 3092.24 L 4037.5704 3092.44 L 4038.3904 3092.44 L 4038.7904 3092.24 L 4039.2004 3091.83 L 4039.4104 3091.42 M 4042.8004 3088.15 L 4040.7604 3091.01 L 4043.8304 3091.01 M 4042.8004 3088.15 L 4042.8004 3092.44" fill="none"  stroke-width="0.6" c_note="note_pre" /></g><g c_partid="part_pcbtext" c_origin="4036.34,3088.8" c_rotation="0" c_mirror="" id="gge361" layerid="3" c_shapetype="group" display="none"><path c_fontSize="4.5" c_fontFamily="" c_text="22p" d="M 4036.5404 3083.67 L 4036.5404 3083.46 L 4036.7504 3083.05 L 4036.9504 3082.85 L 4037.3604 3082.65 L 4038.1804 3082.65 L 4038.5904 3082.85 L 4038.7904 3083.05 L 4039.0004 3083.46 L 4039.0004 3083.87 L 4038.7904 3084.28 L 4038.3904 3084.9 L 4036.3404 3086.94 L 4039.2004 3086.94 M 4040.7604 3083.67 L 4040.7604 3083.46 L 4040.9604 3083.05 L 4041.1704 3082.85 L 4041.5804 3082.65 L 4042.3904 3082.65 L 4042.8004 3082.85 L 4043.0104 3083.05 L 4043.2104 3083.46 L 4043.2104 3083.87 L 4043.0104 3084.28 L 4042.6004 3084.9 L 4040.5504 3086.94 L 4043.4204 3086.94 M 4044.7704 3084.08 L 4044.7704 3088.37 M 4044.7704 3084.69 L 4045.1804 3084.28 L 4045.5904 3084.08 L 4046.2004 3084.08 L 4046.6104 3084.28 L 4047.0204 3084.69 L 4047.2204 3085.3 L 4047.2204 3085.71 L 4047.0204 3086.33 L 4046.6104 3086.74 L 4046.2004 3086.94 L 4045.5904 3086.94 L 4045.1804 3086.74 L 4044.7704 3086.33" fill="none"  stroke-width="0.6"  /></g><g c_partid="part_pcbtext" c_origin="4036.34,3139.3" c_rotation="0" c_mirror="" id="gge380" layerid="3" c_shapetype="group" ><path c_fontSize="4.5" c_fontFamily="" c_text="C3" d="M 4039.4104 3134.17 L 4039.2004 3133.76 L 4038.7904 3133.35 L 4038.3904 3133.15 L 4037.5704 3133.15 L 4037.1604 3133.35 L 4036.7504 3133.76 L 4036.5404 3134.17 L 4036.3404 3134.78 L 4036.3404 3135.8 L 4036.5404 3136.42 L 4036.7504 3136.83 L 4037.1604 3137.24 L 4037.5704 3137.44 L 4038.3904 3137.44 L 4038.7904 3137.24 L 4039.2004 3136.83 L 4039.4104 3136.42 M 4041.1704 3133.15 L 4043.4204 3133.15 L 4042.1904 3134.78 L 4042.8004 3134.78 L 4043.2104 3134.99 L 4043.4204 3135.19 L 4043.6204 3135.8 L 4043.6204 3136.21 L 4043.4204 3136.83 L 4043.0104 3137.24 L 4042.3904 3137.44 L 4041.7804 3137.44 L 4041.1704 3137.24 L 4040.9604 3137.03 L 4040.7604 3136.62" fill="none"  stroke-width="0.6" c_note="note_pre" /></g><g c_partid="part_pcbtext" c_origin="4036.34,3133.8" c_rotation="0" c_mirror="" id="gge382" layerid="3" c_shapetype="group" display="none"><path c_fontSize="4.5" c_fontFamily="" c_text="22p" d="M 4036.5404 3128.67 L 4036.5404 3128.46 L 4036.7504 3128.05 L 4036.9504 3127.85 L 4037.3604 3127.65 L 4038.1804 3127.65 L 4038.5904 3127.85 L 4038.7904 3128.05 L 4039.0004 3128.46 L 4039.0004 3128.87 L 4038.7904 3129.28 L 4038.3904 3129.9 L 4036.3404 3131.94 L 4039.2004 3131.94 M 4040.7604 3128.67 L 4040.7604 3128.46 L 4040.9604 3128.05 L 4041.1704 3127.85 L 4041.5804 3127.65 L 4042.3904 3127.65 L 4042.8004 3127.85 L 4043.0104 3128.05 L 4043.2104 3128.46 L 4043.2104 3128.87 L 4043.0104 3129.28 L 4042.6004 3129.9 L 4040.5504 3131.94 L 4043.4204 3131.94 M 4044.7704 3129.08 L 4044.7704 3133.37 M 4044.7704 3129.69 L 4045.1804 3129.28 L 4045.5904 3129.08 L 4046.2004 3129.08 L 4046.6104 3129.28 L 4047.0204 3129.69 L 4047.2204 3130.3 L 4047.2204 3130.71 L 4047.0204 3131.33 L 4046.6104 3131.74 L 4046.2004 3131.94 L 4045.5904 3131.94 L 4045.1804 3131.74 L 4044.7704 3131.33" fill="none"  stroke-width="0.6"  /></g><g c_partid="part_pcbtext" c_origin="4212.02,3135.18" c_rotation="0" c_mirror="" id="gge401" layerid="3" c_shapetype="group" ><path c_fontSize="4.5" c_fontFamily="" c_text="R1" d="M 4212.0192 3132.7288 L 4212.0192 3137.0188 M 4212.0192 3132.7288 L 4213.8592 3132.7288 L 4214.4692 3132.9288 L 4214.6792 3133.1288 L 4214.8792 3133.5388 L 4214.8792 3133.9488 L 4214.6792 3134.3588 L 4214.4692 3134.5688 L 4213.8592 3134.7688 L 4212.0192 3134.7688 M 4213.4492 3134.7688 L 4214.8792 3137.0188 M 4216.2292 3133.5388 L 4216.6392 3133.3388 L 4217.2592 3132.7288 L 4217.2592 3137.0188" fill="none"  stroke-width="0.6" c_note="note_pre" /></g><g c_partid="part_pcbtext" c_origin="4217.26,3136.37" c_rotation="180" c_mirror="" id="gge403" layerid="3" c_shapetype="group" display="none"><path c_fontSize="4.5" c_fontFamily="" c_text="1k" d="M 4217.2594 3138.0088 L 4216.8494 3138.2088 L 4216.2394 3138.8188 L 4216.2394 3134.5288 M 4214.8894 3138.8188 L 4214.8894 3134.5288 M 4212.8394 3137.3888 L 4214.8894 3135.3488 M 4214.0694 3136.1688 L 4212.6394 3134.5288" fill="none"  stroke-width="0.6"  /></g><g c_partid="part_pcbtext" c_origin="4210.39,3159.68" c_rotation="0" c_mirror="" id="gge422" layerid="3" c_shapetype="group" ><path c_fontSize="4.5" c_fontFamily="" c_text="R6" d="M 4210.3899 3157.2288 L 4210.3899 3161.5188 M 4210.3899 3157.2288 L 4212.2299 3157.2288 L 4212.8399 3157.4288 L 4213.0499 3157.6288 L 4213.2499 3158.0388 L 4213.2499 3158.4488 L 4213.0499 3158.8588 L 4212.8399 3159.0688 L 4212.2299 3159.2688 L 4210.3899 3159.2688 M 4211.8199 3159.2688 L 4213.2499 3161.5188 M 4217.0599 3157.8388 L 4216.8499 3157.4288 L 4216.2399 3157.2288 L 4215.8299 3157.2288 L 4215.2199 3157.4288 L 4214.8099 3158.0388 L 4214.5999 3159.0688 L 4214.5999 3160.0888 L 4214.8099 3160.9088 L 4215.2199 3161.3188 L 4215.8299 3161.5188 L 4216.0399 3161.5188 L 4216.6499 3161.3188 L 4217.0599 3160.9088 L 4217.2599 3160.2888 L 4217.2599 3160.0888 L 4217.0599 3159.4788 L 4216.6499 3159.0688 L 4216.0399 3158.8588 L 4215.8299 3158.8588 L 4215.2199 3159.0688 L 4214.8099 3159.4788 L 4214.5999 3160.0888" fill="none"  stroke-width="0.6" c_note="note_pre" /></g><g c_partid="part_pcbtext" c_origin="4217.26,3160.87" c_rotation="180" c_mirror="" id="gge424" layerid="3" c_shapetype="group" display="none"><path c_fontSize="4.5" c_fontFamily="" c_text="1k" d="M 4217.26 3162.5088 L 4216.85 3162.7088 L 4216.24 3163.3188 L 4216.24 3159.0288 M 4214.89 3163.3188 L 4214.89 3159.0288 M 4212.84 3161.8888 L 4214.89 3159.8488 M 4214.07 3160.6688 L 4212.64 3159.0288" fill="none"  stroke-width="0.6"  /></g><path d="M 4116.4592 3067.88 A 0.59055 0.59055 0 1 0 4116.4592 3067.89" c_shapetype="line" fill="none" stroke-width="1.1811" c_helper_type="arc2" net="" layerid="3" id="gge260" /><path d="M 4124.9292 3073.79 A 0.7874 0.7874 0 1 0 4124.9292 3073.8" c_shapetype="line" fill="none" stroke-width="1.5748" c_helper_type="arc2" net="" layerid="3" id="gge261" /><path d="M 4183.9071 3125.2196 A 7.874 7.874 0 0 0 4171.0945 3123.7918" c_shapetype="line" fill="none" stroke-width="1" c_helper_type="arc2" net="" layerid="3" id="gge325" /><path d="M 4171.0945 3134.2082 A 7.874 7.874 0 0 0 4183.9071 3132.7804" c_shapetype="line" fill="none" stroke-width="1" c_helper_type="arc2" net="" layerid="3" id="gge327" /><path d="M 4183.9071 3147.7196 A 7.874 7.874 0 0 0 4171.0945 3146.2918" c_shapetype="line" fill="none" stroke-width="1" c_helper_type="arc2" net="" layerid="3" id="gge344" /><path d="M 4171.0945 3156.7082 A 7.874 7.874 0 0 0 4183.9071 3155.2804" c_shapetype="line" fill="none" stroke-width="1" c_helper_type="arc2" net="" layerid="3" id="gge346" /><circle cx="4193.61" cy="3045.18" r="2.95" stroke-width="1" fill="none" layerid="3" id="gge269" c_shapetype="line" /><circle cx="4193.61" cy="3045.18" r="6.89" stroke-width="1" fill="none" layerid="3" id="gge270" c_shapetype="line" /><circle cx="4028.18" cy="3054.69" r="2.95" stroke-width="1" fill="none" layerid="3" id="gge288" c_shapetype="line" /><circle cx="4028.18" cy="3054.69" r="6.89" stroke-width="1" fill="none" layerid="3" id="gge289" c_shapetype="line" /><circle cx="4028.68" cy="3023.19" r="2.95" stroke-width="1" fill="none" layerid="3" id="gge307" c_shapetype="line" /><circle cx="4028.68" cy="3023.19" r="6.89" stroke-width="1" fill="none" layerid="3" id="gge308" c_shapetype="line" /><polyline points="4001.299 3001 4240 3001 4240 3183 4000.799 3183 4001 3001" stroke-width="1" c_shapetype="line" stroke-linecap="round" fill="none" layerid="10" net="null" id="gge825" /></g></svg>