<svg xmlns="http://www.w3.org/2000/svg" xmlns:xlink="http://www.w3.org/1999/xlink" width="44.704mm" height="46.406mm" viewBox="4147.5 3006.5 176 182.7"><title></title><style type="text/css">
*[layerid="1"] {stroke:#000000;fill:#000000;}
*[layerid="2"] {stroke:#000000;fill:#000000;}
*[layerid="3"] {stroke:#000000;fill:#000000;}
*[layerid="4"] {stroke:#000000;fill:#000000;}
*[layerid="5"] {stroke:#000000;fill:#000000;}
*[layerid="6"] {stroke:#000000;fill:#000000;}
*[layerid="7"] {stroke:#000000;fill:#000000;}
*[layerid="8"] {stroke:#000000;fill:#000000;}
*[layerid="9"] {stroke:#000000;fill:#000000;}
*[layerid="10"] {stroke:#000000;fill:#000000;}
*[layerid="11"] {stroke:#000000;fill:#000000;}
*[layerid="12"] {stroke:#000000;fill:#000000;}
*[layerid="13"] {stroke:#000000;fill:#000000;}
*[layerid="14"] {stroke:#000000;fill:#000000;}
*[layerid="15"] {stroke:#000000;fill:#000000;}
*[layerid="21"] {stroke:#000000;fill:#000000;}
*[layerid="22"] {stroke:#000000;fill:#000000;}
*[layerid="23"] {stroke:#000000;fill:#000000;}
*[layerid="24"] {stroke:#000000;fill:#000000;}
*[layerid="25"] {stroke:#000000;fill:#000000;}
*[layerid="26"] {stroke:#000000;fill:#000000;}
*[layerid="27"] {stroke:#000000;fill:#000000;}
*[layerid="28"] {stroke:#000000;fill:#000000;}
*[layerid="29"] {stroke:#000000;fill:#000000;}
*[layerid="30"] {stroke:#000000;fill:#000000;}
*[layerid="31"] {stroke:#000000;fill:#000000;}
*[layerid="32"] {stroke:#000000;fill:#000000;}
*[layerid="33"] {stroke:#000000;fill:#000000;}
*[layerid="34"] {stroke:#000000;fill:#000000;}
*[layerid="35"] {stroke:#000000;fill:#000000;}
*[layerid="36"] {stroke:#000000;fill:#000000;}
*[layerid="37"] {stroke:#000000;fill:#000000;}
*[layerid="38"] {stroke:#000000;fill:#000000;}
*[layerid="39"] {stroke:#000000;fill:#000000;}
*[layerid="40"] {stroke:#000000;fill:#000000;}
*[layerid="41"] {stroke:#000000;fill:#000000;}
*[layerid="42"] {stroke:#000000;fill:#000000;}
*[layerid="43"] {stroke:#000000;fill:#000000;}
*[layerid="44"] {stroke:#000000;fill:#000000;}
*[layerid="45"] {stroke:#000000;fill:#000000;}
*[layerid="46"] {stroke:#000000;fill:#000000;}
*[layerid="47"] {stroke:#000000;fill:#000000;}
*[layerid="48"] {stroke:#000000;fill:#000000;}
*[layerid="49"] {stroke:#000000;fill:#000000;}
*[layerid="50"] {stroke:#000000;fill:#000000;}
*[layerid="51"] {stroke:#000000;fill:#000000;}
*[layerid="52"] {stroke:#000000;fill:#000000;}
*[fill="none"] {fill: none;}
*[stroke="none"] {stroke: none;}
path, polyline, polygon, line {stroke-linecap:round;}
g[c_partid="part_pad"][layerid="1"] ellipse:not([c_padid]) {fill:#000000;}
g[c_partid="part_pad"][layerid="1"]  polygon:not([c_padid]) {fill:#000000;}
g[c_partid="part_pad"][layerid="1"]  polyline:not([c_padid]) {stroke:#000000;}
g[c_partid="part_pad"][layerid="1"]  circle {fill:#000000;}
g[c_partid="part_pad"][layerid="2"]  ellipse:not([c_padid]) {fill:#000000;}
g[c_partid="part_pad"][layerid="2"]  polygon:not([c_padid]) {fill:#000000;}
g[c_partid="part_pad"][layerid="2"]  polyline:not([c_padid]) {stroke:#000000;}
g[c_partid="part_pad"][layerid="2"]  circle {fill:#000000;}
g[c_partid="part_pad"][layerid="11"]  ellipse:not([c_padid]) {fill:#000000;}
g[c_partid="part_pad"][layerid="11"]  polygon:not([c_padid]) {fill:#000000;}
g[c_partid="part_pad"][layerid="11"]  polyline:not([c_padid]) {stroke:#000000;}
g[c_partid="part_pad"][layerid="11"]  circle {fill:#000000;}
g[c_partid="part_pad"][layerid] > circle[c_padhole] {fill: #FFFFFF;}
g[c_partid="part_pad"][layerid] > polyline[c_padhole] {stroke:#FFFFFF;}
g[c_partid="part_via"][layerid] > * + circle {fill: #FFFFFF;}
g[c_partid="part_pad"] > polygon[c_padid] {stroke-linejoin: miter;stroke-miterlimit: 100;}
g[c_partid="part_hole"] > circle {fill: #FFFFFF;}path, polyline, polygon {stroke-linejoin:round;}
rect, circle, ellipse, polyline, line, polygon, path {shape-rendering:crispEdges;}
</style>
<rect x="4147.5" y="3006.5" width="176" height="182.7" fill="#FFFFFF" stroke="none"/><g id="g1" cpara="package`R1206`" c_transformList="" importFlag="0" xmlns="http://www.w3.org/2000/svg"><polyline points="4251 3038.2 4244.901 3037.401 4230 3037.401" stroke-width="1" c_shapetype="line" stroke-linecap="round" fill="none" layerid="1" net="GND" id="gge2" /><polyline points="4185.6 3091 4184.5 3091 4171.5 3091" stroke-width="1" c_shapetype="line" stroke-linecap="round" fill="none" layerid="1" net="U3_2" id="gge3" /><polyline points="4196.5 3029.5 4187 3036.5 4157.5 3036.5 4157.5 3100 4157.5 3109 4172.5 3109.1" stroke-width="1" c_shapetype="line" stroke-linecap="round" fill="none" layerid="1" net="GND" id="gge4" /><polyline points="4172.5 3108.599 4181.401 3108.599 4185.6 3104.4 4185.6 3101" stroke-width="1" c_shapetype="line" stroke-linecap="round" fill="none" layerid="1" net="GND" id="gge5" /><polyline points="4240.5 3107.5 4263 3107.5 4269 3079 4269.9 3079" stroke-width="1" c_shapetype="line" stroke-linecap="round" fill="none" layerid="1" net="R6_1" id="gge359" /><polyline points="4284 3165.9 4284.1 3166 4308 3166 4308 3144.5" stroke-width="1" c_shapetype="line" stroke-linecap="round" fill="none" layerid="1" net="R9_2" id="gge7" /><polyline points="4284 3160 4277 3153 4258.5 3153" stroke-width="1" c_shapetype="line" stroke-linecap="round" fill="none" layerid="1" net="GND" id="gge8" /><polyline points="4258.5 3153 4232 3153 4228 3149 4228 3135.455" stroke-width="1" c_shapetype="line" stroke-linecap="round" fill="none" layerid="1" net="GND" id="gge9" /><polyline points="4194.5 3151 4172.5 3151 4172.5 3149 4172.5 3108.599" stroke-width="1" c_shapetype="line" stroke-linecap="round" fill="none" layerid="1" net="GND" id="gge10" /><polyline points="4194.5 3151 4225.473 3151 4228 3148.473" stroke-width="1" c_shapetype="line" stroke-linecap="round" fill="none" layerid="1" net="GND" id="gge11" /><polyline points="4209.4 3091 4221.5 3091 4233 3083" stroke-width="1" c_shapetype="line" stroke-linecap="round" fill="none" layerid="1" net="U3_7" id="gge12" /><polyline points="4209.4 3096 4245 3096 4251 3095.5" stroke-width="1" c_shapetype="line" stroke-linecap="round" fill="none" layerid="1" net="LED4_2" id="gge13" /><polyline points="4196.5 3049.5 4191.5 3054.5 4191.5 3068.5" stroke-width="1" c_shapetype="line" stroke-linecap="round" fill="none" layerid="1" net="R1_2" id="gge14" /><polyline points="4172.5 3096 4171.5 3095 4171.5 3043.099" stroke-width="1" c_shapetype="line" stroke-linecap="round" fill="none" layerid="1" net="U3_2" id="gge15" /><polyline points="4194.5 3131 4194.5 3096 4185.6 3096" stroke-width="1" c_shapetype="line" stroke-linecap="round" fill="none" layerid="1" net="SW9_2" id="gge16" /><polyline points="4228 3129.545 4241.455 3143 4258.5 3143" stroke-width="1" c_shapetype="line" stroke-linecap="round" fill="none" layerid="1" net="R1_1" id="gge17" /><polyline points="4209.4 3086 4200 3086 4200 3106.2 4209.3 3115.5 4213.955 3115.5 4228 3129.545" stroke-width="1" c_shapetype="line" stroke-linecap="round" fill="none" layerid="1" net="R1_1" id="gge18" /><polyline points="4258.5 3163 4272.5 3163 4278 3168.5 4281.41 3168.5 4284 3165.91" stroke-width="1" c_shapetype="line" stroke-linecap="round" fill="none" layerid="1" net="R9_2" id="gge19" /><polyline points="4269.902 3079 4268.508 3077.606 4268.508 3064.025" stroke-width="1" c_shapetype="line" stroke-linecap="round" fill="none" layerid="1" net="R6_1" id="gge20" /><polyline points="4287.5 3115.5 4287.5 3097.5 4293.401 3091.599 4298 3091.599" stroke-width="1" c_shapetype="line" stroke-linecap="round" fill="none" layerid="1" net="R3_2" id="gge366" /><polyline points="4209.4 3101 4212 3101 4218.5 3107.5 4227.901 3107.5" stroke-width="1" c_shapetype="line" stroke-linecap="round" fill="none" layerid="1" net="U3_5" id="gge22" /><polyline points="4298.5 3035.5 4298.455 3035.545 4277.504 3035.545" stroke-width="1" c_shapetype="line" stroke-linecap="round" fill="none" layerid="1" net="Q3_2" id="gge23" /><polyline points="4308.5 3035.5 4308.5 3144 4308 3144.5" stroke-width="1" c_shapetype="line" stroke-linecap="round" fill="none" layerid="1" net="R9_2" id="gge24" /><polyline points="4284 3160 4298 3146 4298 3144.5" stroke-width="1" c_shapetype="line" stroke-linecap="round" fill="none" layerid="1" net="GND" id="gge26" /><polyline points="4251 3050.799 4251 3085.5" stroke-width="1" c_shapetype="line" stroke-linecap="round" fill="none" layerid="1" net="R12_2" id="gge27" /><polyline points="4233 3073 4230 3070 4230 3050" stroke-width="1" c_shapetype="line" stroke-linecap="round" fill="none" layerid="1" net="LED1_1" id="gge28" /><polyline points="4308.5 3035.5 4308.5 3016.5 4171.5 3016.5 4171.5 3030.5" stroke-width="1" c_shapetype="line" stroke-linecap="round" fill="none" layerid="1" net="R9_2" id="gge29" /><polyline points="4230 3037.401 4222.099 3029.5 4196.5 3029.5" stroke-width="1" c_shapetype="line" stroke-linecap="round" fill="none" layerid="1" net="GND" id="gge30" /><polyline points="4185.6 3086 4183 3083.4 4183 3069 4183.5 3068.5 4191.5 3068.5" stroke-width="1" c_shapetype="line" stroke-linecap="round" fill="none" layerid="1" net="R1_2" id="gge31" /><polyline points="4209.4 3086 4213 3082.4 4213 3068.5 4204.098 3068.5" stroke-width="1" c_shapetype="line" stroke-linecap="round" fill="none" layerid="1" net="R1_1" id="gge32" /><polyline points="4298.5 3035.5 4298 3036 4298 3079" stroke-width="1" c_shapetype="line" stroke-linecap="round" fill="none" layerid="1" net="Q3_2" id="gge364" /><polyline points="4297.5 3115.5 4308.5 3115.5" stroke-width="1" c_shapetype="line" stroke-linecap="round" fill="none" layerid="1" net="R9_2" id="gge368" /><polyline points="4286.5 3064 4282.5 3068 4282.5 3079" stroke-width="1" c_shapetype="line" stroke-linecap="round" fill="none" layerid="1" net="GND" id="gge377" /><polyline points="4282.5 3079 4282.5 3086.5 4273.5 3095.5 4273.5 3120.5 4297.5 3144.5 4298 3144.5" stroke-width="1" c_shapetype="line" stroke-linecap="round" fill="none" layerid="1" net="GND" id="gge378" /><g c_partid="part_pad" c_etype="pinpart" c_origin="4185.6,3086" layerid="1" number="1" net="R1_2" plated ="Y" c_shapetype="group" id="gge99" locked="0" c_rotation="90" c_width="2.7559" c_height="8.6614" title="R1_2" c_shape="OVAL" pasteExpansion="0" solderExpansion="0.4"><polyline points="4182.647 3086 4188.553 3086" stroke-width="2.7559" /><circle c_padhole="1" cx="4185.6" cy="3086" r="0" stroke-width="0" /></g><g c_partid="part_pad" c_etype="pinpart" c_origin="4185.6,3091" layerid="1" number="2" net="U3_2" plated ="Y" c_shapetype="group" id="gge100" locked="0" c_rotation="90" c_width="2.7559" c_height="8.6614" title="U3_2" c_shape="OVAL" pasteExpansion="0" solderExpansion="0.4"><polyline points="4182.647 3091 4188.553 3091" stroke-width="2.7559" /><circle c_padhole="1" cx="4185.6" cy="3091" r="0" stroke-width="0" /></g><g c_partid="part_pad" c_etype="pinpart" c_origin="4185.6,3096" layerid="1" number="3" net="SW9_2" plated ="Y" c_shapetype="group" id="gge101" locked="0" c_rotation="90" c_width="2.7559" c_height="8.6614" title="SW9_2" c_shape="OVAL" pasteExpansion="0" solderExpansion="0.4"><polyline points="4182.647 3096 4188.553 3096" stroke-width="2.7559" /><circle c_padhole="1" cx="4185.6" cy="3096" r="0" stroke-width="0" /></g><g c_partid="part_pad" c_etype="pinpart" c_origin="4185.6,3101" layerid="1" number="4" net="GND" plated ="Y" c_shapetype="group" id="gge102" locked="0" c_rotation="90" c_width="2.7559" c_height="8.6614" title="GND" c_shape="OVAL" pasteExpansion="0" solderExpansion="0.4"><polyline points="4182.647 3101 4188.553 3101" stroke-width="2.7559" /><circle c_padhole="1" cx="4185.6" cy="3101" r="0" stroke-width="0" /></g><g c_partid="part_pad" c_etype="pinpart" c_origin="4209.4,3086" layerid="1" number="8" net="R1_1" plated ="Y" c_shapetype="group" id="gge103" locked="0" c_rotation="90" c_width="2.7559" c_height="8.6614" title="R1_1" c_shape="OVAL" pasteExpansion="0" solderExpansion="0.4"><polyline points="4206.447 3086 4212.353 3086" stroke-width="2.7559" /><circle c_padhole="1" cx="4209.4" cy="3086" r="0" stroke-width="0" /></g><g c_partid="part_pad" c_etype="pinpart" c_origin="4209.4,3091" layerid="1" number="7" net="U3_7" plated ="Y" c_shapetype="group" id="gge104" locked="0" c_rotation="90" c_width="2.7559" c_height="8.6614" title="U3_7" c_shape="OVAL" pasteExpansion="0" solderExpansion="0.4"><polyline points="4206.447 3091 4212.353 3091" stroke-width="2.7559" /><circle c_padhole="1" cx="4209.4" cy="3091" r="0" stroke-width="0" /></g><g c_partid="part_pad" c_etype="pinpart" c_origin="4209.4,3096" layerid="1" number="6" net="LED4_2" plated ="Y" c_shapetype="group" id="gge105" locked="0" c_rotation="90" c_width="2.7559" c_height="8.6614" title="LED4_2" c_shape="OVAL" pasteExpansion="0" solderExpansion="0.4"><polyline points="4206.447 3096 4212.353 3096" stroke-width="2.7559" /><circle c_padhole="1" cx="4209.4" cy="3096" r="0" stroke-width="0" /></g><g c_partid="part_pad" c_etype="pinpart" c_origin="4209.4,3101" layerid="1" number="5" net="U3_5" plated ="Y" c_shapetype="group" id="gge106" locked="0" c_rotation="90" c_width="2.7559" c_height="8.6614" title="U3_5" c_shape="OVAL" pasteExpansion="0" solderExpansion="0.4"><polyline points="4206.447 3101 4212.353 3101" stroke-width="2.7559" /><circle c_padhole="1" cx="4209.4" cy="3101" r="0" stroke-width="0" /></g><g c_partid="part_pad" c_etype="pinpart" c_origin="4286.5,3064" layerid="1" number="3" net="GND" plated ="Y" c_shapetype="group" id="gge129" locked="0" c_rotation="180" c_width="6.2992" c_height="11.811" title="GND" c_shape="RECT" pasteExpansion="0" solderExpansion="0.4"><polygon points="4289.65 3069.91 4283.35 3069.91 4283.35 3058.09 4289.65 3058.09" stroke-width="0" /><circle c_padhole="1" cx="4286.5001" cy="3064" r="0" stroke-width="0" /></g><g c_partid="part_pad" c_etype="pinpart" c_origin="4268.51,3064.03" layerid="1" number="1" net="R6_1" plated ="Y" c_shapetype="group" id="gge130" locked="0" c_rotation="0" c_width="6.2992" c_height="11.811" title="R6_1" c_shape="RECT" pasteExpansion="0" solderExpansion="0.4"><polygon points="4265.358 3058.12 4271.658 3058.12 4271.658 3069.93 4265.358 3069.93" stroke-width="0" /><circle c_padhole="1" cx="4268.5079" cy="3064.025" r="0" stroke-width="0" /></g><g c_partid="part_pad" c_etype="pinpart" c_origin="4277.5,3035.55" layerid="1" number="2" net="Q3_2" plated ="Y" c_shapetype="group" id="gge131" locked="0" c_rotation="0" c_width="23.6221" c_height="25.5905" title="Q3_2" c_shape="RECT" pasteExpansion="0" solderExpansion="0.4"><polygon points="4265.694 3022.75 4289.314 3022.75 4289.314 3048.34 4265.694 3048.34" stroke-width="0" /><circle c_padhole="1" cx="4277.504" cy="3035.545" r="0" stroke-width="0" /></g><g c_partid="part_pad" c_etype="pinpart" c_origin="4251,3050.8" layerid="1" number="2" net="R12_2" plated ="Y" c_shapetype="group" id="gge139" locked="0" c_rotation="270" c_width="4.7244" c_height="7.4803" title="R12_2" c_shape="RECT" pasteExpansion="0" solderExpansion="0.4"><polygon points="4254.74 3048.437 4254.74 3053.162 4247.26 3053.162 4247.26 3048.437" stroke-width="0" /><circle c_padhole="1" cx="4251" cy="3050.7991" r="0" stroke-width="0" /></g><g c_partid="part_pad" c_etype="pinpart" c_origin="4251,3038.2" layerid="1" number="1" net="GND" plated ="Y" c_shapetype="group" id="gge140" locked="0" c_rotation="270" c_width="4.7244" c_height="7.4803" title="GND" c_shape="RECT" pasteExpansion="0" solderExpansion="0.4"><polygon points="4254.74 3035.838 4254.74 3040.563 4247.26 3040.563 4247.26 3035.838" stroke-width="0" /><circle c_padhole="1" cx="4251" cy="3038.2005" r="0" stroke-width="0" /></g><g c_partid="part_pad" c_etype="pinpart" c_origin="4191.5,3068.5" layerid="1" number="2" net="R1_2" plated ="Y" c_shapetype="group" id="gge150" locked="0" c_rotation="180" c_width="4.7244" c_height="7.4803" title="R1_2" c_shape="RECT" pasteExpansion="0" solderExpansion="0.4"><polygon points="4193.862 3072.24 4189.137 3072.24 4189.137 3064.76 4193.862 3064.76" stroke-width="0" /><circle c_padhole="1" cx="4191.4999" cy="3068.5" r="0" stroke-width="0" /></g><g c_partid="part_pad" c_etype="pinpart" c_origin="4204.1,3068.5" layerid="1" number="1" net="R1_1" plated ="Y" c_shapetype="group" id="gge151" locked="0" c_rotation="180" c_width="4.7244" c_height="7.4803" title="R1_1" c_shape="RECT" pasteExpansion="0" solderExpansion="0.4"><polygon points="4206.461 3072.24 4201.736 3072.24 4201.736 3064.76 4206.461 3064.76" stroke-width="0" /><circle c_padhole="1" cx="4204.0985" cy="3068.5" r="0" stroke-width="0" /></g><g c_partid="part_pad" c_etype="pinpart" c_origin="4227.9,3107.5" layerid="1" number="2" net="U3_5" plated ="Y" c_shapetype="group" id="gge161" locked="0" c_rotation="180" c_width="4.7244" c_height="7.4803" title="U3_5" c_shape="RECT" pasteExpansion="0" solderExpansion="0.4"><polygon points="4230.263 3111.24 4225.539 3111.24 4225.539 3103.76 4230.263 3103.76" stroke-width="0" /><circle c_padhole="1" cx="4227.9011" cy="3107.5" r="0" stroke-width="0" /></g><g c_partid="part_pad" c_etype="pinpart" c_origin="4240.5,3107.5" layerid="1" number="1" net="R6_1" plated ="Y" c_shapetype="group" id="gge162" locked="0" c_rotation="180" c_width="4.7244" c_height="7.4803" title="R6_1" c_shape="RECT" pasteExpansion="0" solderExpansion="0.4"><polygon points="4242.862 3111.24 4238.138 3111.24 4238.138 3103.76 4242.862 3103.76" stroke-width="0" /><circle c_padhole="1" cx="4240.4997" cy="3107.5" r="0" stroke-width="0" /></g><g c_partid="part_pad" c_etype="pinpart" c_origin="4269.9,3079" layerid="1" number="2" net="R6_1" plated ="Y" c_shapetype="group" id="gge172" locked="0" c_rotation="180" c_width="4.7244" c_height="7.4803" title="R6_1" c_shape="RECT" pasteExpansion="0" solderExpansion="0.4"><polygon points="4272.264 3082.74 4267.539 3082.74 4267.539 3075.26 4272.264 3075.26" stroke-width="0" /><circle c_padhole="1" cx="4269.9019" cy="3079" r="0" stroke-width="0" /></g><g c_partid="part_pad" c_etype="pinpart" c_origin="4282.5,3079" layerid="1" number="1" net="GND" plated ="Y" c_shapetype="group" id="gge173" locked="0" c_rotation="180" c_width="4.7244" c_height="7.4803" title="GND" c_shape="RECT" pasteExpansion="0" solderExpansion="0.4"><polygon points="4284.863 3082.74 4280.138 3082.74 4280.138 3075.26 4284.863 3075.26" stroke-width="0" /><circle c_padhole="1" cx="4282.5005" cy="3079" r="0" stroke-width="0" /></g><g c_partid="part_pad" c_etype="pinpart" c_origin="4230,3050" layerid="1" number="2" net="LED1_1" plated ="Y" c_shapetype="group" id="gge183" locked="0" c_rotation="270" c_width="4.7244" c_height="7.4803" title="LED1_1" c_shape="RECT" pasteExpansion="0" solderExpansion="0.4"><polygon points="4233.74 3047.637 4233.74 3052.362 4226.26 3052.362 4226.26 3047.637" stroke-width="0" /><circle c_padhole="1" cx="4230" cy="3049.9991" r="0" stroke-width="0" /></g><g c_partid="part_pad" c_etype="pinpart" c_origin="4230,3037.4" layerid="1" number="1" net="GND" plated ="Y" c_shapetype="group" id="gge184" locked="0" c_rotation="270" c_width="4.7244" c_height="7.4803" title="GND" c_shape="RECT" pasteExpansion="0" solderExpansion="0.4"><polygon points="4233.74 3035.038 4233.74 3039.763 4226.26 3039.763 4226.26 3035.038" stroke-width="0" /><circle c_padhole="1" cx="4230" cy="3037.4005" r="0" stroke-width="0" /></g><g c_partid="part_pad" c_etype="pinpart" c_origin="4298,3091.6" layerid="1" number="2" net="R3_2" plated ="Y" c_shapetype="group" id="gge196" locked="0" c_rotation="270" c_width="4.7244" c_height="7.4803" title="R3_2" c_shape="RECT" pasteExpansion="0" solderExpansion="0.4"><polygon points="4301.74 3089.237 4301.74 3093.962 4294.26 3093.962 4294.26 3089.237" stroke-width="0" /><circle c_padhole="1" cx="4298" cy="3091.5989" r="0" stroke-width="0" /></g><g c_partid="part_pad" c_etype="pinpart" c_origin="4298,3079" layerid="1" number="1" net="Q3_2" plated ="Y" c_shapetype="group" id="gge201" locked="0" c_rotation="270" c_width="4.7244" c_height="7.4803" title="Q3_2" c_shape="RECT" pasteExpansion="0" solderExpansion="0.4"><polygon points="4301.74 3076.638 4301.74 3081.363 4294.26 3081.363 4294.26 3076.638" stroke-width="0" /><circle c_padhole="1" cx="4298" cy="3079.0003" r="0" stroke-width="0" /></g><g c_partid="part_pad" c_etype="pinpart" c_origin="4196.7,3115.5" layerid="1" number="2" net="SW9_2" plated ="Y" c_shapetype="group" id="gge215" locked="0" c_rotation="180" c_width="4.7244" c_height="7.4803" title="SW9_2" c_shape="RECT" pasteExpansion="0" solderExpansion="0.4"><polygon points="4199.063 3119.24 4194.338 3119.24 4194.338 3111.76 4199.063 3111.76" stroke-width="0" /><circle c_padhole="1" cx="4196.7009" cy="3115.5" r="0" stroke-width="0" /></g><g c_partid="part_pad" c_etype="pinpart" c_origin="4209.3,3115.5" layerid="1" number="1" net="R1_1" plated ="Y" c_shapetype="group" id="gge220" locked="0" c_rotation="180" c_width="4.7244" c_height="7.4803" title="R1_1" c_shape="RECT" pasteExpansion="0" solderExpansion="0.4"><polygon points="4211.662 3119.24 4206.937 3119.24 4206.937 3111.76 4211.662 3111.76" stroke-width="0" /><circle c_padhole="1" cx="4209.2995" cy="3115.5" r="0" stroke-width="0" /></g><g c_partid="part_pad" c_etype="pinpart" c_origin="4171.5,3030.5" layerid="1" number="2" net="R9_2" plated ="Y" c_shapetype="group" id="gge284" locked="0" c_rotation="90" c_width="4.7244" c_height="7.4803" title="R9_2" c_shape="RECT" pasteExpansion="0" solderExpansion="0.4"><polygon points="4167.759 3032.863 4167.759 3028.138 4175.239 3028.138 4175.239 3032.863" stroke-width="0" /><circle c_padhole="1" cx="4171.4988" cy="3030.5009" r="0" stroke-width="0" /></g><g c_partid="part_pad" c_etype="pinpart" c_origin="4171.5,3043.1" layerid="1" number="1" net="U3_2" plated ="Y" c_shapetype="group" id="gge289" locked="0" c_rotation="90" c_width="4.7244" c_height="7.4803" title="U3_2" c_shape="RECT" pasteExpansion="0" solderExpansion="0.4"><polygon points="4167.759 3045.462 4167.759 3040.737 4175.239 3040.737 4175.239 3045.462" stroke-width="0" /><circle c_padhole="1" cx="4171.4988" cy="3043.0995" r="0" stroke-width="0" /></g><g c_partid="part_pad" c_etype="pinpart" c_origin="4172.5,3096" layerid="1" number="2" net="U3_2" plated ="Y" c_shapetype="group" id="gge303" locked="0" c_rotation="90" c_width="4.7244" c_height="7.4803" title="U3_2" c_shape="RECT" pasteExpansion="0" solderExpansion="0.4"><polygon points="4168.759 3098.363 4168.759 3093.638 4176.239 3093.638 4176.239 3098.363" stroke-width="0" /><circle c_padhole="1" cx="4172.4988" cy="3096.0009" r="0" stroke-width="0" /></g><g c_partid="part_pad" c_etype="pinpart" c_origin="4172.5,3108.6" layerid="1" number="1" net="GND" plated ="Y" c_shapetype="group" id="gge308" locked="0" c_rotation="90" c_width="4.7244" c_height="7.4803" title="GND" c_shape="RECT" pasteExpansion="0" solderExpansion="0.4"><polygon points="4168.759 3110.962 4168.759 3106.237 4176.239 3106.237 4176.239 3110.962" stroke-width="0" /><circle c_padhole="1" cx="4172.4988" cy="3108.5995" r="0" stroke-width="0" /></g><g c_partid="part_pad" c_etype="pinpart" c_origin="4284,3160" layerid="11" number="2" net="GND" plated ="Y" c_shapetype="group" id="gge40" locked="0" c_rotation="180" c_width="3.937" c_height="3.937" title="GND" c_shape="ELLIPSE" pasteExpansion="0" solderExpansion="0.4"><ellipse cx="4284" cy="3160" rx="1.9685" ry="1.9685" stroke-width="0" /><circle c_padhole="1" cx="4284" cy="3160" r="1.378" stroke-width="0" /></g><g c_partid="part_pad" c_etype="pinpart" c_origin="4284,3165.91" layerid="11" number="1" net="R9_2" plated ="Y" c_shapetype="group" id="gge41" locked="0" c_rotation="180" c_width="3.937" c_height="3.937" title="R9_2" c_shape="ELLIPSE" pasteExpansion="0" solderExpansion="0.4"><ellipse cx="4284" cy="3165.91" rx="1.9685" ry="1.9685" stroke-width="0" /><circle c_padhole="1" cx="4284" cy="3165.91" r="1.378" stroke-width="0" /></g><g c_partid="part_pad" c_etype="pinpart" c_origin="4228,3135.46" layerid="11" number="2" net="GND" plated ="Y" c_shapetype="group" id="gge49" locked="0" c_rotation="0" c_width="3.937" c_height="3.937" title="GND" c_shape="ELLIPSE" pasteExpansion="0" solderExpansion="0.4"><ellipse cx="4228" cy="3135.46" rx="1.9685" ry="1.9685" stroke-width="0" /><circle c_padhole="1" cx="4228" cy="3135.455" r="1.378" stroke-width="0" /></g><g c_partid="part_pad" c_etype="pinpart" c_origin="4228,3129.55" layerid="11" number="1" net="R1_1" plated ="Y" c_shapetype="group" id="gge50" locked="0" c_rotation="0" c_width="3.937" c_height="3.937" title="R1_1" c_shape="ELLIPSE" pasteExpansion="0" solderExpansion="0.4"><ellipse cx="4228" cy="3129.55" rx="1.9685" ry="1.9685" stroke-width="0" /><circle c_padhole="1" cx="4228" cy="3129.545" r="1.378" stroke-width="0" /></g><g c_partid="part_pad" c_etype="pinpart" c_origin="4258.5,3163" layerid="11" number="1" net="R9_2" plated ="Y" c_shapetype="group" id="gge57" locked="0" c_rotation="90" c_width="7.874" c_height="9.8425" title="R9_2" c_shape="RECT" pasteExpansion="0" solderExpansion="0.4"><polygon points="4253.58 3166.94 4253.58 3159.06 4263.42 3159.06 4263.42 3166.94" stroke-width="0" /><circle c_padhole="1" cx="4258.5" cy="3163" r="2.7559" stroke-width="0" /></g><g c_partid="part_pad" c_etype="pinpart" c_origin="4258.5,3143" layerid="11" number="3" net="R1_1" plated ="Y" c_shapetype="group" id="gge58" locked="0" c_rotation="90" c_width="7.874" c_height="9.8425" title="R1_1" c_shape="OVAL" pasteExpansion="0" solderExpansion="0.4"><polyline points="4257.516 3143 4259.484 3143" stroke-width="7.874" /><circle c_padhole="1" cx="4258.5" cy="3143" r="2.7559" stroke-width="0" /></g><g c_partid="part_pad" c_etype="pinpart" c_origin="4258.5,3153" layerid="11" number="2" net="GND" plated ="Y" c_shapetype="group" id="gge59" locked="0" c_rotation="90" c_width="7.874" c_height="9.8425" title="GND" c_shape="OVAL" pasteExpansion="0" solderExpansion="0.4"><polyline points="4257.516 3153 4259.484 3153" stroke-width="7.874" /><circle c_padhole="1" cx="4258.5" cy="3153" r="2.7559" stroke-width="0" /></g><g c_partid="part_pad" c_etype="pinpart" c_origin="4194.5,3131" layerid="11" number="2" net="SW9_2" plated ="Y" c_shapetype="group" id="gge66" locked="0" c_rotation="270" c_width="7.874" c_height="7.874" title="SW9_2" c_shape="ELLIPSE" pasteExpansion="0" solderExpansion="0.4"><ellipse cx="4194.5" cy="3131" rx="3.937" ry="3.937" stroke-width="0" /><circle c_padhole="1" cx="4194.5" cy="3131" r="2.362" stroke-width="0" /></g><g c_partid="part_pad" c_etype="pinpart" c_origin="4194.5,3151" layerid="11" number="1" net="GND" plated ="Y" c_shapetype="group" id="gge67" locked="0" c_rotation="270" c_width="7.874" c_height="7.874" title="GND" c_shape="ELLIPSE" pasteExpansion="0" solderExpansion="0.4"><ellipse cx="4194.5" cy="3151" rx="3.937" ry="3.937" stroke-width="0" /><circle c_padhole="1" cx="4194.5" cy="3151" r="2.362" stroke-width="0" /></g><g c_partid="part_pad" c_etype="pinpart" c_origin="4196.5,3049.5" layerid="11" number="2" net="R1_2" plated ="Y" c_shapetype="group" id="gge75" locked="0" c_rotation="90" c_width="7.874" c_height="7.874" title="R1_2" c_shape="ELLIPSE" pasteExpansion="0" solderExpansion="0.4"><ellipse cx="4196.5" cy="3049.5" rx="3.937" ry="3.937" stroke-width="0" /><circle c_padhole="1" cx="4196.5" cy="3049.5" r="2.362" stroke-width="0" /></g><g c_partid="part_pad" c_etype="pinpart" c_origin="4196.5,3029.5" layerid="11" number="1" net="GND" plated ="Y" c_shapetype="group" id="gge76" locked="0" c_rotation="90" c_width="7.874" c_height="7.874" title="GND" c_shape="ELLIPSE" pasteExpansion="0" solderExpansion="0.4"><ellipse cx="4196.5" cy="3029.5" rx="3.937" ry="3.937" stroke-width="0" /><circle c_padhole="1" cx="4196.5" cy="3029.5" r="2.362" stroke-width="0" /></g><g c_partid="part_pad" c_etype="pinpart" c_origin="4251,3085.5" layerid="11" number="1" net="R12_2" plated ="Y" c_shapetype="group" id="gge85" locked="0" c_rotation="90" c_width="6.5" c_height="6.5" title="R12_2" c_shape="ELLIPSE" pasteExpansion="0" solderExpansion="0.4"><ellipse cx="4251" cy="3085.5" rx="3.25" ry="3.25" stroke-width="0" /><circle c_padhole="1" cx="4251" cy="3085.5" r="1.7717" stroke-width="0" /></g><g c_partid="part_pad" c_etype="pinpart" c_origin="4251,3095.5" layerid="11" number="2" net="LED4_2" plated ="Y" c_shapetype="group" id="gge86" locked="0" c_rotation="90" c_width="6.5" c_height="6.5" title="LED4_2" c_shape="ELLIPSE" pasteExpansion="0" solderExpansion="0.4"><ellipse cx="4251" cy="3095.5" rx="3.25" ry="3.25" stroke-width="0" /><circle c_padhole="1" cx="4251" cy="3095.5" r="1.7717" stroke-width="0" /></g><g c_partid="part_pad" c_etype="pinpart" c_origin="4233,3073" layerid="11" number="1" net="LED1_1" plated ="Y" c_shapetype="group" id="gge94" locked="0" c_rotation="90" c_width="6.5" c_height="6.5" title="LED1_1" c_shape="ELLIPSE" pasteExpansion="0" solderExpansion="0.4"><ellipse cx="4233" cy="3073" rx="3.25" ry="3.25" stroke-width="0" /><circle c_padhole="1" cx="4233" cy="3073" r="1.7717" stroke-width="0" /></g><g c_partid="part_pad" c_etype="pinpart" c_origin="4233,3083" layerid="11" number="2" net="U3_7" plated ="Y" c_shapetype="group" id="gge95" locked="0" c_rotation="90" c_width="6.5" c_height="6.5" title="U3_7" c_shape="ELLIPSE" pasteExpansion="0" solderExpansion="0.4"><ellipse cx="4233" cy="3083" rx="3.25" ry="3.25" stroke-width="0" /><circle c_padhole="1" cx="4233" cy="3083" r="1.7717" stroke-width="0" /></g><g c_partid="part_pad" c_etype="pinpart" c_origin="4298.5,3035.5" layerid="11" number="1" net="Q3_2" plated ="Y" c_shapetype="group" id="gge117" locked="0" c_rotation="0" c_width="7.4803" c_height="7.4803" title="Q3_2" c_shape="RECT" pasteExpansion="0" solderExpansion="0.4"><polygon points="4294.76 3031.76 4302.24 3031.76 4302.24 3039.24 4294.76 3039.24" stroke-width="0" /><circle c_padhole="1" cx="4298.5" cy="3035.5" r="2.5591" stroke-width="0" /></g><g c_partid="part_pad" c_etype="pinpart" c_origin="4308.5,3035.5" layerid="11" number="2" net="R9_2" plated ="Y" c_shapetype="group" id="gge118" locked="0" c_rotation="0" c_width="7.4803" c_height="7.4803" title="R9_2" c_shape="ELLIPSE" pasteExpansion="0" solderExpansion="0.4"><ellipse cx="4308.5" cy="3035.5" rx="3.74015" ry="3.74015" stroke-width="0" /><circle c_padhole="1" cx="4308.5" cy="3035.5" r="2.5591" stroke-width="0" /></g><g c_partid="part_pad" c_etype="pinpart" c_origin="4298,3144.5" layerid="11" number="1" net="GND" plated ="Y" c_shapetype="group" id="gge124" locked="0" c_rotation="0" c_width="7.4803" c_height="7.4803" title="GND" c_shape="RECT" pasteExpansion="0" solderExpansion="0.4"><polygon points="4294.26 3140.76 4301.74 3140.76 4301.74 3148.24 4294.26 3148.24" stroke-width="0" /><circle c_padhole="1" cx="4298" cy="3144.5" r="2.5591" stroke-width="0" /></g><g c_partid="part_pad" c_etype="pinpart" c_origin="4308,3144.5" layerid="11" number="2" net="R9_2" plated ="Y" c_shapetype="group" id="gge125" locked="0" c_rotation="0" c_width="7.4803" c_height="7.4803" title="R9_2" c_shape="ELLIPSE" pasteExpansion="0" solderExpansion="0.4"><ellipse cx="4308" cy="3144.5" rx="3.74015" ry="3.74015" stroke-width="0" /><circle c_padhole="1" cx="4308" cy="3144.5" r="2.5591" stroke-width="0" /></g><g c_partid="part_pad" c_etype="pinpart" c_origin="4287.5,3115.5" layerid="11" number="1" net="R3_2" plated ="Y" c_shapetype="group" id="gge238" locked="0" c_rotation="180" c_width="6.5" c_height="6.5" title="R3_2" c_shape="ELLIPSE" pasteExpansion="0" solderExpansion="0.4"><ellipse cx="4287.5" cy="3115.5" rx="3.25" ry="3.25" stroke-width="0" /><circle c_padhole="1" cx="4287.5" cy="3115.5" r="1.7717" stroke-width="0" /></g><g c_partid="part_pad" c_etype="pinpart" c_origin="4297.5,3115.5" layerid="11" number="2" net="R9_2" plated ="Y" c_shapetype="group" id="gge241" locked="0" c_rotation="180" c_width="6.5" c_height="6.5" title="R9_2" c_shape="ELLIPSE" pasteExpansion="0" solderExpansion="0.4"><ellipse cx="4297.5" cy="3115.5" rx="3.25" ry="3.25" stroke-width="0" /><circle c_padhole="1" cx="4297.5" cy="3115.5" r="1.7717" stroke-width="0" /></g><polyline points="4285.457 3171.811 4282.357 3171.811" stroke-width="1" c_shapetype="line" stroke-linecap="round" fill="none" layerid="3" net="" id="gge36" /><polyline points="4283.961 3170.086 4283.961 3173.386" stroke-width="1" c_shapetype="line" stroke-linecap="round" fill="none" layerid="3" net="" id="gge37" /><polyline points="4226.543 3123.644 4229.643 3123.644" stroke-width="1" c_shapetype="line" stroke-linecap="round" fill="none" layerid="3" net="" id="gge45" /><polyline points="4228.039 3125.369 4228.039 3122.069" stroke-width="1" c_shapetype="line" stroke-linecap="round" fill="none" layerid="3" net="" id="gge46" /><polyline points="4247.48 3173.87 4247.48 3132.13 4266.37 3132.13 4266.37 3173.87 4247.5 3173.87 4247.48 3173.87" stroke-width="1" c_shapetype="line" stroke-linecap="round" fill="none" layerid="3" net="" id="gge55" /><polyline points="4249.445 3132.134 4249.445 3173.866" stroke-width="1" c_shapetype="line" stroke-linecap="round" fill="none" layerid="3" net="" id="gge56" /><polyline points="4202.374 3129.189 4206.311 3133.126 4206.311 3148.874 4202.374 3152.811 4186.626 3152.811 4182.689 3148.874 4182.689 3133.126 4186.626 3129.189 4202.374 3129.189" stroke-width="1" c_shapetype="line" stroke-linecap="round" fill="none" layerid="3" net="" id="gge63" /><polyline points="4206.311 3129.189 4206.311 3152.811 4182.689 3152.811 4182.689 3129.189 4206.311 3129.189" stroke-width="1" c_shapetype="line" stroke-linecap="round" fill="none" layerid="3" net="" id="gge68" /><polyline points="4188.626 3051.311 4184.689 3047.374 4184.689 3031.626 4188.626 3027.689 4204.374 3027.689 4208.311 3031.626 4208.311 3047.374 4204.374 3051.311 4188.626 3051.311" stroke-width="1" c_shapetype="line" stroke-linecap="round" fill="none" layerid="3" net="" id="gge72" /><polyline points="4184.689 3051.311 4184.689 3027.689 4208.311 3027.689 4208.311 3051.311 4184.689 3051.311" stroke-width="1" c_shapetype="line" stroke-linecap="round" fill="none" layerid="3" net="" id="gge77" /><polyline points="4245.792 3096.406 4246.864 3096.406" stroke-width="1" c_shapetype="line" stroke-linecap="round" fill="none" layerid="3" net="" id="gge82" /><polyline points="4255.136 3096.406 4256.208 3096.406" stroke-width="1" c_shapetype="line" stroke-linecap="round" fill="none" layerid="3" net="" id="gge84" /><polyline points="4227.792 3083.906 4228.864 3083.906" stroke-width="1" c_shapetype="line" stroke-linecap="round" fill="none" layerid="3" net="" id="gge91" /><polyline points="4237.136 3083.906 4238.208 3083.906" stroke-width="1" c_shapetype="line" stroke-linecap="round" fill="none" layerid="3" net="" id="gge93" /><polyline points="4191.2 3084 4191.2 3103 4203.6 3103 4203.6 3084" stroke-width="1" c_shapetype="line" stroke-linecap="round" fill="none" layerid="3" net="" id="gge107" /><polyline points="4203.6 3084 4199.9 3084" stroke-width="1" c_shapetype="line" stroke-linecap="round" fill="none" layerid="3" net="" id="gge108" /><polyline points="4194.9 3084 4191.2 3084" stroke-width="1" c_shapetype="line" stroke-linecap="round" fill="none" layerid="3" net="" id="gge109" /><polyline points="4313.5 3030.5 4313.5 3040.5 4293.5 3040.5 4293.5 3030.5 4301 3030.5" stroke-width="0.8" c_shapetype="line" stroke-linecap="round" fill="none" layerid="3" net="" id="gge115" /><polyline points="4313.5 3030.5 4301 3030.5" stroke-width="0.79921" c_shapetype="line" stroke-linecap="round" fill="none" layerid="3" net="" id="gge116" /><polyline points="4313 3139.5 4313 3149.5 4293 3149.5 4293 3139.5 4300.5 3139.5" stroke-width="0.8" c_shapetype="line" stroke-linecap="round" fill="none" layerid="3" net="" id="gge122" /><polyline points="4313 3139.5 4300.5 3139.5" stroke-width="0.79921" c_shapetype="line" stroke-linecap="round" fill="none" layerid="3" net="" id="gge123" /><polyline points="4267.268 3052.076 4267.268 3057.194 4269.236 3057.194 4269.236 3052.076" stroke-width="1" c_shapetype="line" stroke-linecap="round" fill="none" layerid="3" net="" id="gge133" /><polyline points="4263.437 3020.777 4263.437 3052.076 4291.571 3052.076 4291.571 3020.777 4263.437 3020.777" stroke-width="1" c_shapetype="line" stroke-linecap="round" fill="none" layerid="3" net="" id="gge134" /><polyline points="4285.86 3052.06 4285.86 3057.178 4287.829 3057.178 4287.829 3052.06" stroke-width="1" c_shapetype="line" stroke-linecap="round" fill="none" layerid="3" net="" id="gge135" /><polyline points="4255.724 3034.657 4246.276 3034.657" stroke-width="1" c_shapetype="line" stroke-linecap="round" fill="none" layerid="3" net="" id="gge141" /><polyline points="4246.276 3048.437 4246.276 3054.342" stroke-width="1" c_shapetype="line" stroke-linecap="round" fill="none" layerid="3" net="" id="gge142" /><polyline points="4255.724 3048.437 4255.724 3054.342" stroke-width="1" c_shapetype="line" stroke-linecap="round" fill="none" layerid="3" net="" id="gge143" /><polyline points="4246.276 3040.563 4246.276 3034.657" stroke-width="1" c_shapetype="line" stroke-linecap="round" fill="none" layerid="3" net="" id="gge144" /><polyline points="4255.724 3040.563 4255.724 3034.657" stroke-width="1" c_shapetype="line" stroke-linecap="round" fill="none" layerid="3" net="" id="gge145" /><polyline points="4255.724 3054.342 4246.276 3054.342" stroke-width="1" c_shapetype="line" stroke-linecap="round" fill="none" layerid="3" net="" id="gge146" /><polyline points="4207.642 3073.224 4207.642 3063.776" stroke-width="1" c_shapetype="line" stroke-linecap="round" fill="none" layerid="3" net="" id="gge152" /><polyline points="4193.862 3063.776 4187.957 3063.776" stroke-width="1" c_shapetype="line" stroke-linecap="round" fill="none" layerid="3" net="" id="gge153" /><polyline points="4193.862 3073.224 4187.957 3073.224" stroke-width="1" c_shapetype="line" stroke-linecap="round" fill="none" layerid="3" net="" id="gge154" /><polyline points="4201.736 3063.776 4207.642 3063.776" stroke-width="1" c_shapetype="line" stroke-linecap="round" fill="none" layerid="3" net="" id="gge155" /><polyline points="4201.736 3073.224 4207.642 3073.224" stroke-width="1" c_shapetype="line" stroke-linecap="round" fill="none" layerid="3" net="" id="gge156" /><polyline points="4187.957 3073.224 4187.957 3063.776" stroke-width="1" c_shapetype="line" stroke-linecap="round" fill="none" layerid="3" net="" id="gge157" /><polyline points="4244.043 3112.224 4244.043 3102.776" stroke-width="1" c_shapetype="line" stroke-linecap="round" fill="none" layerid="3" net="" id="gge163" /><polyline points="4230.263 3102.776 4224.358 3102.776" stroke-width="1" c_shapetype="line" stroke-linecap="round" fill="none" layerid="3" net="" id="gge164" /><polyline points="4230.263 3112.224 4224.358 3112.224" stroke-width="1" c_shapetype="line" stroke-linecap="round" fill="none" layerid="3" net="" id="gge165" /><polyline points="4238.137 3102.776 4244.043 3102.776" stroke-width="1" c_shapetype="line" stroke-linecap="round" fill="none" layerid="3" net="" id="gge166" /><polyline points="4238.137 3112.224 4244.043 3112.224" stroke-width="1" c_shapetype="line" stroke-linecap="round" fill="none" layerid="3" net="" id="gge167" /><polyline points="4224.358 3112.224 4224.358 3102.776" stroke-width="1" c_shapetype="line" stroke-linecap="round" fill="none" layerid="3" net="" id="gge168" /><polyline points="4286.044 3083.724 4286.044 3074.276" stroke-width="1" c_shapetype="line" stroke-linecap="round" fill="none" layerid="3" net="" id="gge174" /><polyline points="4272.264 3074.276 4266.359 3074.276" stroke-width="1" c_shapetype="line" stroke-linecap="round" fill="none" layerid="3" net="" id="gge175" /><polyline points="4272.264 3083.724 4266.359 3083.724" stroke-width="1" c_shapetype="line" stroke-linecap="round" fill="none" layerid="3" net="" id="gge176" /><polyline points="4280.138 3074.276 4286.044 3074.276" stroke-width="1" c_shapetype="line" stroke-linecap="round" fill="none" layerid="3" net="" id="gge177" /><polyline points="4280.138 3083.724 4286.044 3083.724" stroke-width="1" c_shapetype="line" stroke-linecap="round" fill="none" layerid="3" net="" id="gge178" /><polyline points="4266.359 3083.724 4266.359 3074.276" stroke-width="1" c_shapetype="line" stroke-linecap="round" fill="none" layerid="3" net="" id="gge179" /><polyline points="4234.724 3033.857 4225.276 3033.857" stroke-width="1" c_shapetype="line" stroke-linecap="round" fill="none" layerid="3" net="" id="gge185" /><polyline points="4225.276 3047.637 4225.276 3053.542" stroke-width="1" c_shapetype="line" stroke-linecap="round" fill="none" layerid="3" net="" id="gge186" /><polyline points="4234.724 3047.637 4234.724 3053.542" stroke-width="1" c_shapetype="line" stroke-linecap="round" fill="none" layerid="3" net="" id="gge187" /><polyline points="4225.276 3039.763 4225.276 3033.857" stroke-width="1" c_shapetype="line" stroke-linecap="round" fill="none" layerid="3" net="" id="gge188" /><polyline points="4234.724 3039.763 4234.724 3033.857" stroke-width="1" c_shapetype="line" stroke-linecap="round" fill="none" layerid="3" net="" id="gge189" /><polyline points="4234.724 3053.542 4225.276 3053.542" stroke-width="1" c_shapetype="line" stroke-linecap="round" fill="none" layerid="3" net="" id="gge190" /><polyline points="4302.724 3075.457 4293.276 3075.457" stroke-width="1" c_shapetype="line" stroke-linecap="round" fill="none" layerid="3" net="" id="gge204" /><polyline points="4293.276 3089.237 4293.276 3095.142" stroke-width="1" c_shapetype="line" stroke-linecap="round" fill="none" layerid="3" net="" id="gge205" /><polyline points="4302.724 3089.237 4302.724 3095.142" stroke-width="1" c_shapetype="line" stroke-linecap="round" fill="none" layerid="3" net="" id="gge206" /><polyline points="4293.276 3081.363 4293.276 3075.457" stroke-width="1" c_shapetype="line" stroke-linecap="round" fill="none" layerid="3" net="" id="gge207" /><polyline points="4302.724 3081.363 4302.724 3075.457" stroke-width="1" c_shapetype="line" stroke-linecap="round" fill="none" layerid="3" net="" id="gge208" /><polyline points="4302.724 3095.142 4293.276 3095.142" stroke-width="1" c_shapetype="line" stroke-linecap="round" fill="none" layerid="3" net="" id="gge209" /><polyline points="4212.843 3120.224 4212.843 3110.776" stroke-width="1" c_shapetype="line" stroke-linecap="round" fill="none" layerid="3" net="" id="gge223" /><polyline points="4199.063 3110.776 4193.158 3110.776" stroke-width="1" c_shapetype="line" stroke-linecap="round" fill="none" layerid="3" net="" id="gge224" /><polyline points="4199.063 3120.224 4193.158 3120.224" stroke-width="1" c_shapetype="line" stroke-linecap="round" fill="none" layerid="3" net="" id="gge225" /><polyline points="4206.937 3110.776 4212.843 3110.776" stroke-width="1" c_shapetype="line" stroke-linecap="round" fill="none" layerid="3" net="" id="gge226" /><polyline points="4206.937 3120.224 4212.843 3120.224" stroke-width="1" c_shapetype="line" stroke-linecap="round" fill="none" layerid="3" net="" id="gge227" /><polyline points="4193.158 3120.224 4193.158 3110.776" stroke-width="1" c_shapetype="line" stroke-linecap="round" fill="none" layerid="3" net="" id="gge228" /><polyline points="4298.406 3120.708 4298.406 3119.636" stroke-width="1" c_shapetype="line" stroke-linecap="round" fill="none" layerid="3" net="" id="gge235" /><polyline points="4298.406 3111.364 4298.406 3110.292" stroke-width="1" c_shapetype="line" stroke-linecap="round" fill="none" layerid="3" net="" id="gge237" /><polyline points="4166.774 3046.643 4176.223 3046.643" stroke-width="1" c_shapetype="line" stroke-linecap="round" fill="none" layerid="3" net="" id="gge294" /><polyline points="4176.223 3032.863 4176.223 3026.958" stroke-width="1" c_shapetype="line" stroke-linecap="round" fill="none" layerid="3" net="" id="gge295" /><polyline points="4166.774 3032.863 4166.774 3026.958" stroke-width="1" c_shapetype="line" stroke-linecap="round" fill="none" layerid="3" net="" id="gge296" /><polyline points="4176.223 3040.737 4176.223 3046.643" stroke-width="1" c_shapetype="line" stroke-linecap="round" fill="none" layerid="3" net="" id="gge297" /><polyline points="4166.774 3040.737 4166.774 3046.643" stroke-width="1" c_shapetype="line" stroke-linecap="round" fill="none" layerid="3" net="" id="gge298" /><polyline points="4166.774 3026.958 4176.223 3026.958" stroke-width="1" c_shapetype="line" stroke-linecap="round" fill="none" layerid="3" net="" id="gge299" /><polyline points="4167.774 3112.143 4177.223 3112.143" stroke-width="1" c_shapetype="line" stroke-linecap="round" fill="none" layerid="3" net="" id="gge313" /><polyline points="4177.223 3098.363 4177.223 3092.458" stroke-width="1" c_shapetype="line" stroke-linecap="round" fill="none" layerid="3" net="" id="gge314" /><polyline points="4167.774 3098.363 4167.774 3092.458" stroke-width="1" c_shapetype="line" stroke-linecap="round" fill="none" layerid="3" net="" id="gge315" /><polyline points="4177.223 3106.237 4177.223 3112.143" stroke-width="1" c_shapetype="line" stroke-linecap="round" fill="none" layerid="3" net="" id="gge316" /><polyline points="4167.774 3106.237 4167.774 3112.143" stroke-width="1" c_shapetype="line" stroke-linecap="round" fill="none" layerid="3" net="" id="gge317" /><polyline points="4167.774 3092.458 4177.223 3092.458" stroke-width="1" c_shapetype="line" stroke-linecap="round" fill="none" layerid="3" net="" id="gge318" /><g c_partid="part_pcbtext" c_origin="4278.56,3180.54" c_rotation="0" c_mirror="" id="gge34" layerid="3" c_shapetype="group" ><path c_fontSize="4.5" c_fontFamily="" c_text="C1" d="M 4281.6299 3175.4102 L 4281.4199 3175.0002 L 4281.0099 3174.5902 L 4280.6099 3174.3902 L 4279.7899 3174.3902 L 4279.3799 3174.5902 L 4278.9699 3175.0002 L 4278.7599 3175.4102 L 4278.5599 3176.0302 L 4278.5599 3177.0502 L 4278.7599 3177.6602 L 4278.9699 3178.0702 L 4279.3799 3178.4802 L 4279.7899 3178.6802 L 4280.6099 3178.6802 L 4281.0099 3178.4802 L 4281.4199 3178.0702 L 4281.6299 3177.6602 M 4282.9799 3175.2102 L 4283.3899 3175.0002 L 4283.9999 3174.3902 L 4283.9999 3178.6802" fill="none"  stroke-width="0.6" c_note="note_pre" /></g><g c_partid="part_pcbtext" c_origin="4284,3178.03" c_rotation="180" c_mirror="" id="gge35" layerid="3" c_shapetype="group" display="none"><path c_fontSize="4.5" c_fontFamily="" c_text="1u" d="M 4284 3183.36 L 4283.59 3183.57 L 4282.98 3184.18 L 4282.98 3179.89 M 4281.63 3182.75 L 4281.63 3180.7 L 4281.42 3180.09 L 4281.01 3179.89 L 4280.4 3179.89 L 4279.99 3180.09 L 4279.38 3180.7 M 4279.38 3182.75 L 4279.38 3179.89" fill="none"  stroke-width="0.6"  /></g><g c_partid="part_pcbtext" c_origin="4228,3122.93" c_rotation="0" c_mirror="" id="gge43" layerid="3" c_shapetype="group" ><path c_fontSize="4.5" c_fontFamily="" c_text="C2" d="M 4231.0701 3117.7948 L 4230.8601 3117.3848 L 4230.4501 3116.9748 L 4230.0501 3116.7748 L 4229.2301 3116.7748 L 4228.8201 3116.9748 L 4228.4101 3117.3848 L 4228.2001 3117.7948 L 4228.0001 3118.4148 L 4228.0001 3119.4348 L 4228.2001 3120.0448 L 4228.4101 3120.4548 L 4228.8201 3120.8648 L 4229.2301 3121.0648 L 4230.0501 3121.0648 L 4230.4501 3120.8648 L 4230.8601 3120.4548 L 4231.0701 3120.0448 M 4232.6201 3117.7948 L 4232.6201 3117.5948 L 4232.8301 3117.1848 L 4233.0301 3116.9748 L 4233.4401 3116.7748 L 4234.2601 3116.7748 L 4234.6701 3116.9748 L 4234.8701 3117.1848 L 4235.0801 3117.5948 L 4235.0801 3118.0048 L 4234.8701 3118.4148 L 4234.4601 3119.0248 L 4232.4201 3121.0648 L 4235.2801 3121.0648" fill="none"  stroke-width="0.6" c_note="note_pre" /></g><g c_partid="part_pcbtext" c_origin="4228,3117.43" c_rotation="0" c_mirror="" id="gge44" layerid="3" c_shapetype="group" display="none"><path c_fontSize="4.5" c_fontFamily="" c_text="1u" d="M 4228 3112.095 L 4228.41 3111.885 L 4229.02 3111.275 L 4229.02 3115.565 M 4230.37 3112.705 L 4230.37 3114.755 L 4230.58 3115.365 L 4230.99 3115.565 L 4231.6 3115.565 L 4232.01 3115.365 L 4232.62 3114.755 M 4232.62 3112.705 L 4232.62 3115.565" fill="none"  stroke-width="0.6"  /></g><g c_partid="part_pcbtext" c_origin="4251.92,3181.02" c_rotation="0" c_mirror="" id="gge52" layerid="3" c_shapetype="group" ><path c_fontSize="4.5" c_fontFamily="" c_text="U2" d="M 4251.9199 3174.87 L 4251.9199 3177.93 L 4252.1199 3178.55 L 4252.5299 3178.96 L 4253.1499 3179.16 L 4253.5599 3179.16 L 4254.1699 3178.96 L 4254.5799 3178.55 L 4254.7799 3177.93 L 4254.7799 3174.87 M 4256.3399 3175.89 L 4256.3399 3175.68 L 4256.5399 3175.27 L 4256.7499 3175.07 L 4257.1599 3174.87 L 4257.9699 3174.87 L 4258.3799 3175.07 L 4258.5899 3175.27 L 4258.7899 3175.68 L 4258.7899 3176.09 L 4258.5899 3176.5 L 4258.1799 3177.12 L 4256.1299 3179.16 L 4258.9999 3179.16" fill="none"  stroke-width="0.6" c_note="note_pre" /></g><g c_partid="part_pcbtext" c_origin="4259,3178.51" c_rotation="180" c_mirror="" id="gge53" layerid="3" c_shapetype="group" display="none"><path c_fontSize="4.5" c_fontFamily="" c_text="MC7805ABTG" d="M 4259 3184.66 L 4259 3180.37 M 4259 3184.66 L 4257.36 3180.37 M 4255.73 3184.66 L 4257.36 3180.37 M 4255.73 3184.66 L 4255.73 3180.37 M 4251.31 3183.64 L 4251.51 3184.05 L 4251.92 3184.46 L 4252.33 3184.66 L 4253.15 3184.66 L 4253.56 3184.46 L 4253.97 3184.05 L 4254.17 3183.64 L 4254.38 3183.03 L 4254.38 3182.01 L 4254.17 3181.39 L 4253.97 3180.98 L 4253.56 3180.57 L 4253.15 3180.37 L 4252.33 3180.37 L 4251.92 3180.57 L 4251.51 3180.98 L 4251.31 3181.39 M 4247.1 3184.66 L 4249.14 3180.37 M 4249.96 3184.66 L 4247.1 3184.66 M 4244.72 3184.66 L 4245.34 3184.46 L 4245.54 3184.05 L 4245.54 3183.64 L 4245.34 3183.23 L 4244.93 3183.03 L 4244.11 3182.82 L 4243.5 3182.62 L 4243.09 3182.21 L 4242.88 3181.8 L 4242.88 3181.19 L 4243.09 3180.78 L 4243.29 3180.57 L 4243.9 3180.37 L 4244.72 3180.37 L 4245.34 3180.57 L 4245.54 3180.78 L 4245.75 3181.19 L 4245.75 3181.8 L 4245.54 3182.21 L 4245.13 3182.62 L 4244.52 3182.82 L 4243.7 3183.03 L 4243.29 3183.23 L 4243.09 3183.64 L 4243.09 3184.05 L 4243.29 3184.46 L 4243.9 3184.66 L 4244.72 3184.66 M 4240.3 3184.66 L 4240.92 3184.46 L 4241.33 3183.85 L 4241.53 3182.82 L 4241.53 3182.21 L 4241.33 3181.19 L 4240.92 3180.57 L 4240.3 3180.37 L 4239.9 3180.37 L 4239.28 3180.57 L 4238.87 3181.19 L 4238.67 3182.21 L 4238.67 3182.82 L 4238.87 3183.85 L 4239.28 3184.46 L 4239.9 3184.66 L 4240.3 3184.66 M 4234.86 3184.66 L 4236.91 3184.66 L 4237.11 3182.82 L 4236.91 3183.03 L 4236.3 3183.23 L 4235.68 3183.23 L 4235.07 3183.03 L 4234.66 3182.62 L 4234.45 3182.01 L 4234.45 3181.6 L 4234.66 3180.98 L 4235.07 3180.57 L 4235.68 3180.37 L 4236.3 3180.37 L 4236.91 3180.57 L 4237.11 3180.78 L 4237.32 3181.19 M 4231.47 3184.66 L 4233.1 3180.37 M 4231.47 3184.66 L 4229.83 3180.37 M 4232.49 3181.8 L 4230.45 3181.8 M 4228.48 3184.66 L 4228.48 3180.37 M 4228.48 3184.66 L 4226.64 3184.66 L 4226.03 3184.46 L 4225.82 3184.26 L 4225.62 3183.85 L 4225.62 3183.44 L 4225.82 3183.03 L 4226.03 3182.82 L 4226.64 3182.62 M 4228.48 3182.62 L 4226.64 3182.62 L 4226.03 3182.41 L 4225.82 3182.21 L 4225.62 3181.8 L 4225.62 3181.19 L 4225.82 3180.78 L 4226.03 3180.57 L 4226.64 3180.37 L 4228.48 3180.37 M 4222.84 3184.66 L 4222.84 3180.37 M 4224.27 3184.66 L 4221.4 3184.66 M 4216.99 3183.64 L 4217.19 3184.05 L 4217.6 3184.46 L 4218.01 3184.66 L 4218.83 3184.66 L 4219.24 3184.46 L 4219.65 3184.05 L 4219.85 3183.64 L 4220.05 3183.03 L 4220.05 3182.01 L 4219.85 3181.39 L 4219.65 3180.98 L 4219.24 3180.57 L 4218.83 3180.37 L 4218.01 3180.37 L 4217.6 3180.57 L 4217.19 3180.98 L 4216.99 3181.39 L 4216.99 3182.01 M 4218.01 3182.01 L 4216.99 3182.01" fill="none"  stroke-width="0.6"  /></g><g c_partid="part_pcbtext" c_origin="4213.47,3153.31" c_rotation="90" c_mirror="" id="gge61" layerid="3" c_shapetype="group" ><path c_fontSize="4.5" c_fontFamily="" c_text="SW9" d="M 4207.9302 3150.4501 L 4207.5202 3150.8601 L 4207.3102 3151.4701 L 4207.3102 3152.2901 L 4207.5202 3152.9001 L 4207.9302 3153.3101 L 4208.3402 3153.3101 L 4208.7502 3153.1101 L 4208.9502 3152.9001 L 4209.1602 3152.4901 L 4209.5602 3151.2601 L 4209.7702 3150.8601 L 4209.9702 3150.6501 L 4210.3802 3150.4501 L 4211.0002 3150.4501 L 4211.4102 3150.8601 L 4211.6102 3151.4701 L 4211.6102 3152.2901 L 4211.4102 3152.9001 L 4211.0002 3153.3101 M 4207.3102 3149.1001 L 4211.6102 3148.0701 M 4207.3102 3147.0501 L 4211.6102 3148.0701 M 4207.3102 3147.0501 L 4211.6102 3146.0301 M 4207.3102 3145.0101 L 4211.6102 3146.0301 M 4208.7502 3141.0001 L 4209.3602 3141.2001 L 4209.7702 3141.6101 L 4209.9702 3142.2201 L 4209.9702 3142.4301 L 4209.7702 3143.0401 L 4209.3602 3143.4501 L 4208.7502 3143.6601 L 4208.5402 3143.6601 L 4207.9302 3143.4501 L 4207.5202 3143.0401 L 4207.3102 3142.4301 L 4207.3102 3142.2201 L 4207.5202 3141.6101 L 4207.9302 3141.2001 L 4208.7502 3141.0001 L 4209.7702 3141.0001 L 4210.7902 3141.2001 L 4211.4102 3141.6101 L 4211.6102 3142.2201 L 4211.6102 3142.6301 L 4211.4102 3143.2501 L 4211.0002 3143.4501" fill="none"  stroke-width="0.6" c_note="note_pre" /></g><g c_partid="part_pcbtext" c_origin="4210.95,3141" c_rotation="270" c_mirror="" id="gge62" layerid="3" c_shapetype="group" display="none"><path c_fontSize="4.5" c_fontFamily="" c_text="mode" d="M 4215.67 3141 L 4212.81 3141 M 4214.86 3141 L 4215.47 3141.61 L 4215.67 3142.02 L 4215.67 3142.64 L 4215.47 3143.05 L 4214.86 3143.25 L 4212.81 3143.25 M 4214.86 3143.25 L 4215.47 3143.86 L 4215.67 3144.27 L 4215.67 3144.89 L 4215.47 3145.3 L 4214.86 3145.5 L 4212.81 3145.5 M 4215.67 3147.87 L 4215.47 3147.46 L 4215.06 3147.05 L 4214.45 3146.85 L 4214.04 3146.85 L 4213.42 3147.05 L 4213.01 3147.46 L 4212.81 3147.87 L 4212.81 3148.49 L 4213.01 3148.9 L 4213.42 3149.3 L 4214.04 3149.51 L 4214.45 3149.51 L 4215.06 3149.3 L 4215.47 3148.9 L 4215.67 3148.49 L 4215.67 3147.87 M 4217.11 3153.31 L 4212.81 3153.31 M 4215.06 3153.31 L 4215.47 3152.9 L 4215.67 3152.5 L 4215.67 3151.88 L 4215.47 3151.47 L 4215.06 3151.06 L 4214.45 3150.86 L 4214.04 3150.86 L 4213.42 3151.06 L 4213.01 3151.47 L 4212.81 3151.88 L 4212.81 3152.5 L 4213.01 3152.9 L 4213.42 3153.31 M 4214.45 3154.66 L 4214.45 3157.12 L 4214.86 3157.12 L 4215.26 3156.91 L 4215.47 3156.71 L 4215.67 3156.3 L 4215.67 3155.69 L 4215.47 3155.28 L 4215.06 3154.87 L 4214.45 3154.66 L 4214.04 3154.66 L 4213.42 3154.87 L 4213.01 3155.28 L 4212.81 3155.69 L 4212.81 3156.3 L 4213.01 3156.71 L 4213.42 3157.12" fill="none"  stroke-width="0.6"  /></g><g c_partid="part_pcbtext" c_origin="4185.55,3039.5" c_rotation="90" c_mirror="" id="gge70" layerid="3" c_shapetype="group" ><path c_fontSize="4.5" c_fontFamily="" c_text="SW7" d="M 4180.0098 3036.64 L 4179.5998 3037.05 L 4179.3898 3037.66 L 4179.3898 3038.48 L 4179.5998 3039.09 L 4180.0098 3039.5 L 4180.4198 3039.5 L 4180.8298 3039.3 L 4181.0298 3039.09 L 4181.2398 3038.68 L 4181.6398 3037.45 L 4181.8498 3037.05 L 4182.0498 3036.84 L 4182.4598 3036.64 L 4183.0798 3036.64 L 4183.4898 3037.05 L 4183.6898 3037.66 L 4183.6898 3038.48 L 4183.4898 3039.09 L 4183.0798 3039.5 M 4179.3898 3035.29 L 4183.6898 3034.26 M 4179.3898 3033.24 L 4183.6898 3034.26 M 4179.3898 3033.24 L 4183.6898 3032.22 M 4179.3898 3031.2 L 4183.6898 3032.22 M 4179.3898 3026.98 L 4183.6898 3029.03 M 4179.3898 3029.85 L 4179.3898 3026.98" fill="none"  stroke-width="0.6" c_note="note_pre" /></g><g c_partid="part_pcbtext" c_origin="4180.05,3039.5" c_rotation="90" c_mirror="" id="gge71" layerid="3" c_shapetype="group" display="none"><path c_fontSize="4.5" c_fontFamily="" c_text="reset" d="M 4175.33 3039.5 L 4178.19 3039.5 M 4176.55 3039.5 L 4175.94 3039.3 L 4175.53 3038.89 L 4175.33 3038.48 L 4175.33 3037.86 M 4176.55 3036.51 L 4176.55 3034.06 L 4176.14 3034.06 L 4175.74 3034.26 L 4175.53 3034.47 L 4175.33 3034.88 L 4175.33 3035.49 L 4175.53 3035.9 L 4175.94 3036.31 L 4176.55 3036.51 L 4176.96 3036.51 L 4177.58 3036.31 L 4177.99 3035.9 L 4178.19 3035.49 L 4178.19 3034.88 L 4177.99 3034.47 L 4177.58 3034.06 M 4175.94 3030.46 L 4175.53 3030.66 L 4175.33 3031.28 L 4175.33 3031.89 L 4175.53 3032.5 L 4175.94 3032.71 L 4176.35 3032.5 L 4176.55 3032.1 L 4176.76 3031.07 L 4176.96 3030.66 L 4177.37 3030.46 L 4177.58 3030.46 L 4177.99 3030.66 L 4178.19 3031.28 L 4178.19 3031.89 L 4177.99 3032.5 L 4177.58 3032.71 M 4176.55 3029.11 L 4176.55 3026.65 L 4176.14 3026.65 L 4175.74 3026.86 L 4175.53 3027.06 L 4175.33 3027.47 L 4175.33 3028.09 L 4175.53 3028.5 L 4175.94 3028.9 L 4176.55 3029.11 L 4176.96 3029.11 L 4177.58 3028.9 L 4177.99 3028.5 L 4178.19 3028.09 L 4178.19 3027.47 L 4177.99 3027.06 L 4177.58 3026.65 M 4173.89 3024.69 L 4177.37 3024.69 L 4177.99 3024.49 L 4178.19 3024.08 L 4178.19 3023.67 M 4175.33 3025.3 L 4175.33 3023.87" fill="none"  stroke-width="0.6"  /></g><g c_partid="part_pcbtext" c_origin="4250,3082.71" c_rotation="0" c_mirror="" id="gge79" layerid="3" c_shapetype="group" ><path c_fontSize="4.5" c_fontFamily="" c_text="LED4" d="M 4250 3076.5602 L 4250 3080.8502 M 4250 3080.8502 L 4252.45 3080.8502 M 4253.8 3076.5602 L 4253.8 3080.8502 M 4253.8 3076.5602 L 4256.46 3076.5602 M 4253.8 3078.6002 L 4255.44 3078.6002 M 4253.8 3080.8502 L 4256.46 3080.8502 M 4257.81 3076.5602 L 4257.81 3080.8502 M 4257.81 3076.5602 L 4259.25 3076.5602 L 4259.86 3076.7602 L 4260.27 3077.1702 L 4260.47 3077.5802 L 4260.68 3078.1902 L 4260.68 3079.2102 L 4260.47 3079.8302 L 4260.27 3080.2402 L 4259.86 3080.6502 L 4259.25 3080.8502 L 4257.81 3080.8502 M 4264.07 3076.5602 L 4262.03 3079.4202 L 4265.1 3079.4202 M 4264.07 3076.5602 L 4264.07 3080.8502" fill="none"  stroke-width="0.6" c_note="note_pre" /></g><g c_partid="part_pcbtext" c_origin="4250,3077.21" c_rotation="0" c_mirror="" id="gge80" layerid="3" c_shapetype="group" display="none"><path c_fontSize="4.5" c_fontFamily="" c_text="Battery Level" d="M 4250 3071.06 L 4250 3075.35 M 4250 3071.06 L 4251.84 3071.06 L 4252.45 3071.26 L 4252.66 3071.46 L 4252.86 3071.87 L 4252.86 3072.28 L 4252.66 3072.69 L 4252.45 3072.9 L 4251.84 3073.1 M 4250 3073.1 L 4251.84 3073.1 L 4252.45 3073.31 L 4252.66 3073.51 L 4252.86 3073.92 L 4252.86 3074.53 L 4252.66 3074.94 L 4252.45 3075.15 L 4251.84 3075.35 L 4250 3075.35 M 4256.67 3072.49 L 4256.67 3075.35 M 4256.67 3073.1 L 4256.26 3072.69 L 4255.85 3072.49 L 4255.24 3072.49 L 4254.83 3072.69 L 4254.42 3073.1 L 4254.21 3073.71 L 4254.21 3074.12 L 4254.42 3074.74 L 4254.83 3075.15 L 4255.24 3075.35 L 4255.85 3075.35 L 4256.26 3075.15 L 4256.67 3074.74 M 4258.63 3071.06 L 4258.63 3074.53 L 4258.84 3075.15 L 4259.25 3075.35 L 4259.65 3075.35 M 4258.02 3072.49 L 4259.45 3072.49 M 4261.62 3071.06 L 4261.62 3074.53 L 4261.82 3075.15 L 4262.23 3075.35 L 4262.64 3075.35 M 4261 3072.49 L 4262.44 3072.49 M 4263.99 3073.71 L 4266.45 3073.71 L 4266.45 3073.31 L 4266.24 3072.9 L 4266.04 3072.69 L 4265.63 3072.49 L 4265.01 3072.49 L 4264.6 3072.69 L 4264.2 3073.1 L 4263.99 3073.71 L 4263.99 3074.12 L 4264.2 3074.74 L 4264.6 3075.15 L 4265.01 3075.35 L 4265.63 3075.35 L 4266.04 3075.15 L 4266.45 3074.74 M 4267.8 3072.49 L 4267.8 3075.35 M 4267.8 3073.71 L 4268 3073.1 L 4268.41 3072.69 L 4268.82 3072.49 L 4269.43 3072.49 M 4270.99 3072.49 L 4272.21 3075.35 M 4273.44 3072.49 L 4272.21 3075.35 L 4271.8 3076.17 L 4271.4 3076.58 L 4270.99 3076.78 L 4270.78 3076.78 M 4277.94 3071.06 L 4277.94 3075.35 M 4277.94 3075.35 L 4280.4 3075.35 M 4281.75 3073.71 L 4284.2 3073.71 L 4284.2 3073.31 L 4284 3072.9 L 4283.79 3072.69 L 4283.38 3072.49 L 4282.77 3072.49 L 4282.36 3072.69 L 4281.95 3073.1 L 4281.75 3073.71 L 4281.75 3074.12 L 4281.95 3074.74 L 4282.36 3075.15 L 4282.77 3075.35 L 4283.38 3075.35 L 4283.79 3075.15 L 4284.2 3074.74 M 4285.55 3072.49 L 4286.78 3075.35 M 4288 3072.49 L 4286.78 3075.35 M 4289.35 3073.71 L 4291.81 3073.71 L 4291.81 3073.31 L 4291.6 3072.9 L 4291.4 3072.69 L 4290.99 3072.49 L 4290.38 3072.49 L 4289.97 3072.69 L 4289.56 3073.1 L 4289.35 3073.71 L 4289.35 3074.12 L 4289.56 3074.74 L 4289.97 3075.15 L 4290.38 3075.35 L 4290.99 3075.35 L 4291.4 3075.15 L 4291.81 3074.74 M 4293.16 3071.06 L 4293.16 3075.35" fill="none"  stroke-width="0.6"  /></g><g c_partid="part_pcbtext" c_origin="4232,3070.21" c_rotation="0" c_mirror="" id="gge88" layerid="3" c_shapetype="group" ><path c_fontSize="4.5" c_fontFamily="" c_text="LED1" d="M 4232 3064.0602 L 4232 3068.3502 M 4232 3068.3502 L 4234.45 3068.3502 M 4235.8 3064.0602 L 4235.8 3068.3502 M 4235.8 3064.0602 L 4238.46 3064.0602 M 4235.8 3066.1002 L 4237.44 3066.1002 M 4235.8 3068.3502 L 4238.46 3068.3502 M 4239.81 3064.0602 L 4239.81 3068.3502 M 4239.81 3064.0602 L 4241.25 3064.0602 L 4241.86 3064.2602 L 4242.27 3064.6702 L 4242.47 3065.0802 L 4242.68 3065.6902 L 4242.68 3066.7102 L 4242.47 3067.3302 L 4242.27 3067.7402 L 4241.86 3068.1502 L 4241.25 3068.3502 L 4239.81 3068.3502 M 4244.03 3064.8702 L 4244.44 3064.6702 L 4245.05 3064.0602 L 4245.05 3068.3502" fill="none"  stroke-width="0.6" c_note="note_pre" /></g><g c_partid="part_pcbtext" c_origin="4232,3064.71" c_rotation="0" c_mirror="" id="gge89" layerid="3" c_shapetype="group" display="none"><path c_fontSize="4.5" c_fontFamily="" c_text="Alarm Low Level" d="M 4233.64 3058.56 L 4232 3062.85 M 4233.64 3058.56 L 4235.27 3062.85 M 4232.61 3061.42 L 4234.66 3061.42 M 4236.62 3058.56 L 4236.62 3062.85 M 4240.43 3059.99 L 4240.43 3062.85 M 4240.43 3060.6 L 4240.02 3060.19 L 4239.61 3059.99 L 4239 3059.99 L 4238.59 3060.19 L 4238.18 3060.6 L 4237.97 3061.21 L 4237.97 3061.62 L 4238.18 3062.24 L 4238.59 3062.65 L 4239 3062.85 L 4239.61 3062.85 L 4240.02 3062.65 L 4240.43 3062.24 M 4241.78 3059.99 L 4241.78 3062.85 M 4241.78 3061.21 L 4241.98 3060.6 L 4242.39 3060.19 L 4242.8 3059.99 L 4243.41 3059.99 M 4244.76 3059.99 L 4244.76 3062.85 M 4244.76 3060.81 L 4245.38 3060.19 L 4245.79 3059.99 L 4246.4 3059.99 L 4246.81 3060.19 L 4247.01 3060.81 L 4247.01 3062.85 M 4247.01 3060.81 L 4247.63 3060.19 L 4248.04 3059.99 L 4248.65 3059.99 L 4249.06 3060.19 L 4249.26 3060.81 L 4249.26 3062.85 M 4253.76 3058.56 L 4253.76 3062.85 M 4253.76 3062.85 L 4256.22 3062.85 M 4258.59 3059.99 L 4258.18 3060.19 L 4257.77 3060.6 L 4257.57 3061.21 L 4257.57 3061.62 L 4257.77 3062.24 L 4258.18 3062.65 L 4258.59 3062.85 L 4259.2 3062.85 L 4259.61 3062.65 L 4260.02 3062.24 L 4260.23 3061.62 L 4260.23 3061.21 L 4260.02 3060.6 L 4259.61 3060.19 L 4259.2 3059.99 L 4258.59 3059.99 M 4261.58 3059.99 L 4262.4 3062.85 M 4263.21 3059.99 L 4262.4 3062.85 M 4263.21 3059.99 L 4264.03 3062.85 M 4264.85 3059.99 L 4264.03 3062.85 M 4269.35 3058.56 L 4269.35 3062.85 M 4269.35 3062.85 L 4271.8 3062.85 M 4273.15 3061.21 L 4275.61 3061.21 L 4275.61 3060.81 L 4275.4 3060.4 L 4275.2 3060.19 L 4274.79 3059.99 L 4274.18 3059.99 L 4273.77 3060.19 L 4273.36 3060.6 L 4273.15 3061.21 L 4273.15 3061.62 L 4273.36 3062.24 L 4273.77 3062.65 L 4274.18 3062.85 L 4274.79 3062.85 L 4275.2 3062.65 L 4275.61 3062.24 M 4276.96 3059.99 L 4278.19 3062.85 M 4279.41 3059.99 L 4278.19 3062.85 M 4280.76 3061.21 L 4283.22 3061.21 L 4283.22 3060.81 L 4283.01 3060.4 L 4282.81 3060.19 L 4282.4 3059.99 L 4281.79 3059.99 L 4281.38 3060.19 L 4280.97 3060.6 L 4280.76 3061.21 L 4280.76 3061.62 L 4280.97 3062.24 L 4281.38 3062.65 L 4281.79 3062.85 L 4282.4 3062.85 L 4282.81 3062.65 L 4283.22 3062.24 M 4284.57 3058.56 L 4284.57 3062.85" fill="none"  stroke-width="0.6"  /></g><g c_partid="part_pcbtext" c_origin="4197,3083.21" c_rotation="0" c_mirror="" id="gge97" layerid="3" c_shapetype="group" ><path c_fontSize="4.5" c_fontFamily="" c_text="U3" d="M 4196.9998 3077.0602 L 4196.9998 3080.1202 L 4197.1998 3080.7402 L 4197.6098 3081.1502 L 4198.2298 3081.3502 L 4198.6398 3081.3502 L 4199.2498 3081.1502 L 4199.6598 3080.7402 L 4199.8598 3080.1202 L 4199.8598 3077.0602 M 4201.6198 3077.0602 L 4203.8698 3077.0602 L 4202.6498 3078.6902 L 4203.2598 3078.6902 L 4203.6698 3078.9002 L 4203.8698 3079.1002 L 4204.0798 3079.7102 L 4204.0798 3080.1202 L 4203.8698 3080.7402 L 4203.4598 3081.1502 L 4202.8498 3081.3502 L 4202.2398 3081.3502 L 4201.6198 3081.1502 L 4201.4198 3080.9402 L 4201.2098 3080.5302" fill="none"  stroke-width="0.6" c_note="note_pre" /></g><g c_partid="part_pcbtext" c_origin="4197,3077.71" c_rotation="0" c_mirror="" id="gge98" layerid="3" c_shapetype="group" display="none"><path c_fontSize="4.5" c_fontFamily="" c_text="ATTINY13A-SSH" d="M 4198.64 3071.56 L 4197 3075.85 M 4198.64 3071.56 L 4200.27 3075.85 M 4197.61 3074.42 L 4199.66 3074.42 M 4203.05 3071.56 L 4203.05 3075.85 M 4201.62 3071.56 L 4204.49 3071.56 M 4207.27 3071.56 L 4207.27 3075.85 M 4205.84 3071.56 L 4208.7 3071.56 M 4210.05 3071.56 L 4210.05 3075.85 M 4211.4 3071.56 L 4211.4 3075.85 M 4211.4 3071.56 L 4214.26 3075.85 M 4214.26 3071.56 L 4214.26 3075.85 M 4215.61 3071.56 L 4217.25 3073.6 L 4217.25 3075.85 M 4218.89 3071.56 L 4217.25 3073.6 M 4220.24 3072.37 L 4220.65 3072.17 L 4221.26 3071.56 L 4221.26 3075.85 M 4223.02 3071.56 L 4225.27 3071.56 L 4224.04 3073.19 L 4224.65 3073.19 L 4225.06 3073.4 L 4225.27 3073.6 L 4225.47 3074.21 L 4225.47 3074.62 L 4225.27 3075.24 L 4224.86 3075.65 L 4224.25 3075.85 L 4223.63 3075.85 L 4223.02 3075.65 L 4222.81 3075.44 L 4222.61 3075.03 M 4228.46 3071.56 L 4226.82 3075.85 M 4228.46 3071.56 L 4230.1 3075.85 M 4227.44 3074.42 L 4229.48 3074.42 M 4231.45 3074.01 L 4235.13 3074.01 M 4239.34 3072.17 L 4238.93 3071.76 L 4238.32 3071.56 L 4237.5 3071.56 L 4236.89 3071.76 L 4236.48 3072.17 L 4236.48 3072.58 L 4236.68 3072.99 L 4236.89 3073.19 L 4237.3 3073.4 L 4238.52 3073.81 L 4238.93 3074.01 L 4239.14 3074.21 L 4239.34 3074.62 L 4239.34 3075.24 L 4238.93 3075.65 L 4238.32 3075.85 L 4237.5 3075.85 L 4236.89 3075.65 L 4236.48 3075.24 M 4243.55 3072.17 L 4243.15 3071.76 L 4242.53 3071.56 L 4241.71 3071.56 L 4241.1 3071.76 L 4240.69 3072.17 L 4240.69 3072.58 L 4240.9 3072.99 L 4241.1 3073.19 L 4241.51 3073.4 L 4242.74 3073.81 L 4243.15 3074.01 L 4243.35 3074.21 L 4243.55 3074.62 L 4243.55 3075.24 L 4243.15 3075.65 L 4242.53 3075.85 L 4241.71 3075.85 L 4241.1 3075.65 L 4240.69 3075.24 M 4244.9 3071.56 L 4244.9 3075.85 M 4247.77 3071.56 L 4247.77 3075.85 M 4244.9 3073.6 L 4247.77 3073.6" fill="none"  stroke-width="0.6"  /></g><g c_partid="part_pcbtext" c_origin="4294.36,3036" c_rotation="90" c_mirror="" id="gge113" layerid="3" c_shapetype="group" ><path c_fontSize="4.5" c_fontFamily="" c_text="H1" d="M 4288.21 3036 L 4292.5 3036 M 4288.21 3033.14 L 4292.5 3033.14 M 4290.25 3036 L 4290.25 3033.14 M 4289.02 3031.79 L 4288.82 3031.38 L 4288.21 3030.76 L 4292.5 3030.76" fill="none"  stroke-width="0.6" c_note="note_pre" /></g><g c_partid="part_pcbtext" c_origin="4288.86,3036" c_rotation="90" c_mirror="" id="gge114" layerid="3" c_shapetype="group" display="none"><path c_fontSize="4.5" c_fontFamily="" c_text="load" d="M 4282.71 3036 L 4287 3036 M 4284.14 3033.63 L 4284.34 3034.04 L 4284.75 3034.45 L 4285.36 3034.65 L 4285.77 3034.65 L 4286.39 3034.45 L 4286.8 3034.04 L 4287 3033.63 L 4287 3033.01 L 4286.8 3032.6 L 4286.39 3032.2 L 4285.77 3031.99 L 4285.36 3031.99 L 4284.75 3032.2 L 4284.34 3032.6 L 4284.14 3033.01 L 4284.14 3033.63 M 4284.14 3028.19 L 4287 3028.19 M 4284.75 3028.19 L 4284.34 3028.6 L 4284.14 3029 L 4284.14 3029.62 L 4284.34 3030.03 L 4284.75 3030.44 L 4285.36 3030.64 L 4285.77 3030.64 L 4286.39 3030.44 L 4286.8 3030.03 L 4287 3029.62 L 4287 3029 L 4286.8 3028.6 L 4286.39 3028.19 M 4282.71 3024.38 L 4287 3024.38 M 4284.75 3024.38 L 4284.34 3024.79 L 4284.14 3025.2 L 4284.14 3025.81 L 4284.34 3026.22 L 4284.75 3026.63 L 4285.36 3026.84 L 4285.77 3026.84 L 4286.39 3026.63 L 4286.8 3026.22 L 4287 3025.81 L 4287 3025.2 L 4286.8 3024.79 L 4286.39 3024.38" fill="none"  stroke-width="0.6"  /></g><g c_partid="part_pcbtext" c_origin="4293.86,3145" c_rotation="90" c_mirror="" id="gge120" layerid="3" c_shapetype="group" ><path c_fontSize="4.5" c_fontFamily="" c_text="H2" d="M 4287.71 3145 L 4292 3145 M 4287.71 3142.14 L 4292 3142.14 M 4289.75 3145 L 4289.75 3142.14 M 4288.73 3140.58 L 4288.52 3140.58 L 4288.11 3140.38 L 4287.91 3140.17 L 4287.71 3139.76 L 4287.71 3138.95 L 4287.91 3138.54 L 4288.11 3138.33 L 4288.52 3138.13 L 4288.93 3138.13 L 4289.34 3138.33 L 4289.96 3138.74 L 4292 3140.79 L 4292 3137.92" fill="none"  stroke-width="0.6" c_note="note_pre" /></g><g c_partid="part_pcbtext" c_origin="4288.36,3145" c_rotation="90" c_mirror="" id="gge121" layerid="3" c_shapetype="group" display="none"><path c_fontSize="4.5" c_fontFamily="" c_text="Header-Male-2.54_1x2" d="M 4282.21 3145 L 4286.5 3145 M 4282.21 3142.14 L 4286.5 3142.14 M 4284.25 3145 L 4284.25 3142.14 M 4284.86 3140.79 L 4284.86 3138.33 L 4284.46 3138.33 L 4284.05 3138.54 L 4283.84 3138.74 L 4283.64 3139.15 L 4283.64 3139.76 L 4283.84 3140.17 L 4284.25 3140.58 L 4284.86 3140.79 L 4285.27 3140.79 L 4285.89 3140.58 L 4286.3 3140.17 L 4286.5 3139.76 L 4286.5 3139.15 L 4286.3 3138.74 L 4285.89 3138.33 M 4283.64 3134.53 L 4286.5 3134.53 M 4284.25 3134.53 L 4283.84 3134.94 L 4283.64 3135.35 L 4283.64 3135.96 L 4283.84 3136.37 L 4284.25 3136.78 L 4284.86 3136.98 L 4285.27 3136.98 L 4285.89 3136.78 L 4286.3 3136.37 L 4286.5 3135.96 L 4286.5 3135.35 L 4286.3 3134.94 L 4285.89 3134.53 M 4282.21 3130.72 L 4286.5 3130.72 M 4284.25 3130.72 L 4283.84 3131.13 L 4283.64 3131.54 L 4283.64 3132.15 L 4283.84 3132.56 L 4284.25 3132.97 L 4284.86 3133.18 L 4285.27 3133.18 L 4285.89 3132.97 L 4286.3 3132.56 L 4286.5 3132.15 L 4286.5 3131.54 L 4286.3 3131.13 L 4285.89 3130.72 M 4284.86 3129.37 L 4284.86 3126.92 L 4284.46 3126.92 L 4284.05 3127.12 L 4283.84 3127.33 L 4283.64 3127.74 L 4283.64 3128.35 L 4283.84 3128.76 L 4284.25 3129.17 L 4284.86 3129.37 L 4285.27 3129.37 L 4285.89 3129.17 L 4286.3 3128.76 L 4286.5 3128.35 L 4286.5 3127.74 L 4286.3 3127.33 L 4285.89 3126.92 M 4283.64 3125.57 L 4286.5 3125.57 M 4284.86 3125.57 L 4284.25 3125.36 L 4283.84 3124.95 L 4283.64 3124.55 L 4283.64 3123.93 M 4284.66 3122.58 L 4284.66 3118.9 M 4282.21 3117.55 L 4286.5 3117.55 M 4282.21 3117.55 L 4286.5 3115.91 M 4282.21 3114.28 L 4286.5 3115.91 M 4282.21 3114.28 L 4286.5 3114.28 M 4283.64 3110.47 L 4286.5 3110.47 M 4284.25 3110.47 L 4283.84 3110.88 L 4283.64 3111.29 L 4283.64 3111.9 L 4283.84 3112.31 L 4284.25 3112.72 L 4284.86 3112.93 L 4285.27 3112.93 L 4285.89 3112.72 L 4286.3 3112.31 L 4286.5 3111.9 L 4286.5 3111.29 L 4286.3 3110.88 L 4285.89 3110.47 M 4282.21 3109.12 L 4286.5 3109.12 M 4284.86 3107.77 L 4284.86 3105.32 L 4284.46 3105.32 L 4284.05 3105.52 L 4283.84 3105.73 L 4283.64 3106.14 L 4283.64 3106.75 L 4283.84 3107.16 L 4284.25 3107.57 L 4284.86 3107.77 L 4285.27 3107.77 L 4285.89 3107.57 L 4286.3 3107.16 L 4286.5 3106.75 L 4286.5 3106.14 L 4286.3 3105.73 L 4285.89 3105.32 M 4284.66 3103.97 L 4284.66 3100.29 M 4283.23 3098.73 L 4283.02 3098.73 L 4282.61 3098.53 L 4282.41 3098.32 L 4282.21 3097.91 L 4282.21 3097.1 L 4282.41 3096.69 L 4282.61 3096.48 L 4283.02 3096.28 L 4283.43 3096.28 L 4283.84 3096.48 L 4284.46 3096.89 L 4286.5 3098.94 L 4286.5 3096.07 M 4285.48 3094.52 L 4285.68 3094.72 L 4285.89 3094.52 L 4285.68 3094.31 L 4285.48 3094.52 M 4282.21 3090.51 L 4282.21 3092.55 L 4284.05 3092.76 L 4283.84 3092.55 L 4283.64 3091.94 L 4283.64 3091.33 L 4283.84 3090.71 L 4284.25 3090.3 L 4284.86 3090.1 L 4285.27 3090.1 L 4285.89 3090.3 L 4286.3 3090.71 L 4286.5 3091.33 L 4286.5 3091.94 L 4286.3 3092.55 L 4286.09 3092.76 L 4285.68 3092.96 M 4282.21 3086.7 L 4285.07 3088.75 L 4285.07 3085.68 M 4282.21 3086.7 L 4286.5 3086.7 M 4287.93 3084.33 L 4287.93 3080.65 M 4283.02 3079.3 L 4282.82 3078.89 L 4282.21 3078.28 L 4286.5 3078.28 M 4283.64 3076.93 L 4286.5 3074.68 M 4283.64 3074.68 L 4286.5 3076.93 M 4283.23 3073.12 L 4283.02 3073.12 L 4282.61 3072.92 L 4282.41 3072.71 L 4282.21 3072.3 L 4282.21 3071.49 L 4282.41 3071.08 L 4282.61 3070.87 L 4283.02 3070.67 L 4283.43 3070.67 L 4283.84 3070.87 L 4284.46 3071.28 L 4286.5 3073.33 L 4286.5 3070.46" fill="none"  stroke-width="0.6"  /></g><g c_partid="part_pcbtext" c_origin="4298.73,3052.09" c_rotation="90" c_mirror="" id="gge127" layerid="3" c_shapetype="group" ><path c_fontSize="4.5" c_fontFamily="" c_text="Q3" d="M 4292.5741 3050.8598 L 4292.7741 3051.2698 L 4293.1841 3051.6798 L 4293.5941 3051.8898 L 4294.2041 3052.0898 L 4295.2341 3052.0898 L 4295.8441 3051.8898 L 4296.2541 3051.6798 L 4296.6641 3051.2698 L 4296.8641 3050.8598 L 4296.8641 3050.0398 L 4296.6641 3049.6398 L 4296.2541 3049.2298 L 4295.8441 3049.0198 L 4295.2341 3048.8198 L 4294.2041 3048.8198 L 4293.5941 3049.0198 L 4293.1841 3049.2298 L 4292.7741 3049.6398 L 4292.5741 3050.0398 L 4292.5741 3050.8598 M 4296.0541 3050.2498 L 4297.2741 3049.0198 M 4292.5741 3047.0598 L 4292.5741 3044.8098 L 4294.2041 3046.0398 L 4294.2041 3045.4198 L 4294.4141 3045.0098 L 4294.6141 3044.8098 L 4295.2341 3044.5998 L 4295.6441 3044.5998 L 4296.2541 3044.8098 L 4296.6641 3045.2198 L 4296.8641 3045.8298 L 4296.8641 3046.4398 L 4296.6641 3047.0598 L 4296.4541 3047.2598 L 4296.0541 3047.4698" fill="none"  stroke-width="0.6" c_note="note_pre" /></g><g c_partid="part_pcbtext" c_origin="4296.62,3044.6" c_rotation="270" c_mirror="" id="gge128" layerid="3" c_shapetype="group" display="none"><path c_fontSize="4.5" c_fontFamily="" c_text="IRLR8726TRLPBF" d="M 4302.774 3044.6 L 4298.484 3044.6 M 4302.774 3045.95 L 4298.484 3045.95 M 4302.774 3045.95 L 4302.774 3047.79 L 4302.574 3048.4 L 4302.364 3048.61 L 4301.954 3048.81 L 4301.544 3048.81 L 4301.144 3048.61 L 4300.934 3048.4 L 4300.734 3047.79 L 4300.734 3045.95 M 4300.734 3047.38 L 4298.484 3048.81 M 4302.774 3050.16 L 4298.484 3050.16 M 4298.484 3050.16 L 4298.484 3052.62 M 4302.774 3053.97 L 4298.484 3053.97 M 4302.774 3053.97 L 4302.774 3055.81 L 4302.574 3056.42 L 4302.364 3056.63 L 4301.954 3056.83 L 4301.544 3056.83 L 4301.144 3056.63 L 4300.934 3056.42 L 4300.734 3055.81 L 4300.734 3053.97 M 4300.734 3055.4 L 4298.484 3056.83 M 4302.774 3059.2 L 4302.574 3058.59 L 4302.164 3058.39 L 4301.754 3058.39 L 4301.344 3058.59 L 4301.144 3059 L 4300.934 3059.82 L 4300.734 3060.43 L 4300.324 3060.84 L 4299.914 3061.05 L 4299.294 3061.05 L 4298.894 3060.84 L 4298.684 3060.64 L 4298.484 3060.02 L 4298.484 3059.2 L 4298.684 3058.59 L 4298.894 3058.39 L 4299.294 3058.18 L 4299.914 3058.18 L 4300.324 3058.39 L 4300.734 3058.8 L 4300.934 3059.41 L 4301.144 3060.23 L 4301.344 3060.64 L 4301.754 3060.84 L 4302.164 3060.84 L 4302.574 3060.64 L 4302.774 3060.02 L 4302.774 3059.2 M 4302.774 3065.26 L 4298.484 3063.21 M 4302.774 3062.4 L 4302.774 3065.26 M 4301.754 3066.81 L 4301.954 3066.81 L 4302.364 3067.02 L 4302.574 3067.22 L 4302.774 3067.63 L 4302.774 3068.45 L 4302.574 3068.86 L 4302.364 3069.06 L 4301.954 3069.27 L 4301.544 3069.27 L 4301.144 3069.06 L 4300.524 3068.65 L 4298.484 3066.61 L 4298.484 3069.47 M 4302.164 3073.28 L 4302.574 3073.07 L 4302.774 3072.46 L 4302.774 3072.05 L 4302.574 3071.44 L 4301.954 3071.03 L 4300.934 3070.82 L 4299.914 3070.82 L 4299.094 3071.03 L 4298.684 3071.44 L 4298.484 3072.05 L 4298.484 3072.25 L 4298.684 3072.87 L 4299.094 3073.28 L 4299.704 3073.48 L 4299.914 3073.48 L 4300.524 3073.28 L 4300.934 3072.87 L 4301.144 3072.25 L 4301.144 3072.05 L 4300.934 3071.44 L 4300.524 3071.03 L 4299.914 3070.82 M 4302.774 3076.26 L 4298.484 3076.26 M 4302.774 3074.83 L 4302.774 3077.7 M 4302.774 3079.05 L 4298.484 3079.05 M 4302.774 3079.05 L 4302.774 3080.89 L 4302.574 3081.5 L 4302.364 3081.7 L 4301.954 3081.91 L 4301.544 3081.91 L 4301.144 3081.7 L 4300.934 3081.5 L 4300.734 3080.89 L 4300.734 3079.05 M 4300.734 3080.48 L 4298.484 3081.91 M 4302.774 3083.26 L 4298.484 3083.26 M 4298.484 3083.26 L 4298.484 3085.71 M 4302.774 3087.06 L 4298.484 3087.06 M 4302.774 3087.06 L 4302.774 3088.9 L 4302.574 3089.52 L 4302.364 3089.72 L 4301.954 3089.93 L 4301.344 3089.93 L 4300.934 3089.72 L 4300.734 3089.52 L 4300.524 3088.9 L 4300.524 3087.06 M 4302.774 3091.28 L 4298.484 3091.28 M 4302.774 3091.28 L 4302.774 3093.12 L 4302.574 3093.73 L 4302.364 3093.94 L 4301.954 3094.14 L 4301.544 3094.14 L 4301.144 3093.94 L 4300.934 3093.73 L 4300.734 3093.12 M 4300.734 3091.28 L 4300.734 3093.12 L 4300.524 3093.73 L 4300.324 3093.94 L 4299.914 3094.14 L 4299.294 3094.14 L 4298.894 3093.94 L 4298.684 3093.73 L 4298.484 3093.12 L 4298.484 3091.28 M 4302.774 3095.49 L 4298.484 3095.49 M 4302.774 3095.49 L 4302.774 3098.15 M 4300.734 3095.49 L 4300.734 3097.13" fill="none"  stroke-width="0.6"  /></g><g c_partid="part_pcbtext" c_origin="4262.87,3063.21" c_rotation="90" c_mirror="" id="gge137" layerid="3" c_shapetype="group" ><path c_fontSize="4.5" c_fontFamily="" c_text="R12" d="M 4256.72 3063.2114 L 4261.01 3063.2114 M 4256.72 3063.2114 L 4256.72 3061.3714 L 4256.92 3060.7614 L 4257.12 3060.5514 L 4257.53 3060.3514 L 4257.94 3060.3514 L 4258.35 3060.5514 L 4258.56 3060.7614 L 4258.76 3061.3714 L 4258.76 3063.2114 M 4258.76 3061.7814 L 4261.01 3060.3514 M 4257.53 3059.0014 L 4257.33 3058.5914 L 4256.72 3057.9714 L 4261.01 3057.9714 M 4257.74 3056.4214 L 4257.53 3056.4214 L 4257.12 3056.2114 L 4256.92 3056.0114 L 4256.72 3055.6014 L 4256.72 3054.7814 L 4256.92 3054.3714 L 4257.12 3054.1714 L 4257.53 3053.9614 L 4257.94 3053.9614 L 4258.35 3054.1714 L 4258.97 3054.5814 L 4261.01 3056.6214 L 4261.01 3053.7614" fill="none"  stroke-width="0.6" c_note="note_pre" /></g><g c_partid="part_pcbtext" c_origin="4260.36,3053.76" c_rotation="270" c_mirror="" id="gge138" layerid="3" c_shapetype="group" display="none"><path c_fontSize="4.5" c_fontFamily="" c_text="1k" d="M 4265.7 3053.7612 L 4265.9 3054.1712 L 4266.51 3054.7812 L 4262.22 3054.7812 M 4266.51 3056.1312 L 4262.22 3056.1312 M 4265.08 3058.1812 L 4263.04 3056.1312 M 4263.86 3056.9512 L 4262.22 3058.3812" fill="none"  stroke-width="0.6"  /></g><g c_partid="part_pcbtext" c_origin="4183.3,3080.37" c_rotation="0" c_mirror="" id="gge148" layerid="3" c_shapetype="group" ><path c_fontSize="4.5" c_fontFamily="" c_text="R1" d="M 4183.298 3074.22 L 4183.298 3078.51 M 4183.298 3074.22 L 4185.138 3074.22 L 4185.748 3074.42 L 4185.958 3074.62 L 4186.158 3075.03 L 4186.158 3075.44 L 4185.958 3075.85 L 4185.748 3076.06 L 4185.138 3076.26 L 4183.298 3076.26 M 4184.728 3076.26 L 4186.158 3078.51 M 4187.508 3075.03 L 4187.918 3074.83 L 4188.538 3074.22 L 4188.538 3078.51" fill="none"  stroke-width="0.6" c_note="note_pre" /></g><g c_partid="part_pcbtext" c_origin="4188.54,3077.86" c_rotation="180" c_mirror="" id="gge149" layerid="3" c_shapetype="group" display="none"><path c_fontSize="4.5" c_fontFamily="" c_text="10k" d="M 4188.5378 3083.2 L 4188.1278 3083.4 L 4187.5178 3084.01 L 4187.5178 3079.72 M 4184.9378 3084.01 L 4185.5478 3083.81 L 4185.9578 3083.2 L 4186.1678 3082.17 L 4186.1678 3081.56 L 4185.9578 3080.54 L 4185.5478 3079.92 L 4184.9378 3079.72 L 4184.5278 3079.72 L 4183.9178 3079.92 L 4183.5078 3080.54 L 4183.2978 3081.56 L 4183.2978 3082.17 L 4183.5078 3083.2 L 4183.9178 3083.81 L 4184.5278 3084.01 L 4184.9378 3084.01 M 4181.9478 3084.01 L 4181.9478 3079.72 M 4179.9078 3082.58 L 4181.9478 3080.54 M 4181.1378 3081.36 L 4179.6978 3079.72" fill="none"  stroke-width="0.6"  /></g><g c_partid="part_pcbtext" c_origin="4218.07,3119.37" c_rotation="0" c_mirror="" id="gge159" layerid="3" c_shapetype="group" ><path c_fontSize="4.5" c_fontFamily="" c_text="R6" d="M 4218.0691 3113.22 L 4218.0691 3117.51 M 4218.0691 3113.22 L 4219.9091 3113.22 L 4220.5191 3113.42 L 4220.7291 3113.62 L 4220.9291 3114.03 L 4220.9291 3114.44 L 4220.7291 3114.85 L 4220.5191 3115.06 L 4219.9091 3115.26 L 4218.0691 3115.26 M 4219.4991 3115.26 L 4220.9291 3117.51 M 4224.7391 3113.83 L 4224.5291 3113.42 L 4223.9191 3113.22 L 4223.5091 3113.22 L 4222.8991 3113.42 L 4222.4891 3114.03 L 4222.2791 3115.06 L 4222.2791 3116.08 L 4222.4891 3116.9 L 4222.8991 3117.31 L 4223.5091 3117.51 L 4223.7191 3117.51 L 4224.3291 3117.31 L 4224.7391 3116.9 L 4224.9391 3116.28 L 4224.9391 3116.08 L 4224.7391 3115.47 L 4224.3291 3115.06 L 4223.7191 3114.85 L 4223.5091 3114.85 L 4222.8991 3115.06 L 4222.4891 3115.47 L 4222.2791 3116.08" fill="none"  stroke-width="0.6" c_note="note_pre" /></g><g c_partid="part_pcbtext" c_origin="4224.94,3116.86" c_rotation="180" c_mirror="" id="gge160" layerid="3" c_shapetype="group" display="none"><path c_fontSize="4.5" c_fontFamily="" c_text="1k" d="M 4224.939 3122.2 L 4224.529 3122.4 L 4223.919 3123.01 L 4223.919 3118.72 M 4222.569 3123.01 L 4222.569 3118.72 M 4220.519 3121.58 L 4222.569 3119.54 M 4221.749 3120.36 L 4220.319 3118.72" fill="none"  stroke-width="0.6"  /></g><g c_partid="part_pcbtext" c_origin="4259.86,3090.87" c_rotation="0" c_mirror="" id="gge170" layerid="3" c_shapetype="group" ><path c_fontSize="4.5" c_fontFamily="" c_text="R7" d="M 4259.8594 3084.72 L 4259.8594 3089.01 M 4259.8594 3084.72 L 4261.6994 3084.72 L 4262.3094 3084.92 L 4262.5194 3085.12 L 4262.7194 3085.53 L 4262.7194 3085.94 L 4262.5194 3086.35 L 4262.3094 3086.56 L 4261.6994 3086.76 L 4259.8594 3086.76 M 4261.2894 3086.76 L 4262.7194 3089.01 M 4266.9394 3084.72 L 4264.8894 3089.01 M 4264.0694 3084.72 L 4266.9394 3084.72" fill="none"  stroke-width="0.6" c_note="note_pre" /></g><g c_partid="part_pcbtext" c_origin="4266.94,3088.36" c_rotation="180" c_mirror="" id="gge171" layerid="3" c_shapetype="group" display="none"><path c_fontSize="4.5" c_fontFamily="" c_text="10k" d="M 4266.9398 3093.7 L 4266.5298 3093.9 L 4265.9198 3094.51 L 4265.9198 3090.22 M 4263.3398 3094.51 L 4263.9498 3094.31 L 4264.3598 3093.7 L 4264.5698 3092.67 L 4264.5698 3092.06 L 4264.3598 3091.04 L 4263.9498 3090.42 L 4263.3398 3090.22 L 4262.9298 3090.22 L 4262.3198 3090.42 L 4261.9098 3091.04 L 4261.6998 3092.06 L 4261.6998 3092.67 L 4261.9098 3093.7 L 4262.3198 3094.31 L 4262.9298 3094.51 L 4263.3398 3094.51 M 4260.3498 3094.51 L 4260.3498 3090.22 M 4258.3098 3093.08 L 4260.3498 3091.04 M 4259.5398 3091.86 L 4258.0998 3090.22" fill="none"  stroke-width="0.6"  /></g><g c_partid="part_pcbtext" c_origin="4241.87,3060.04" c_rotation="90" c_mirror="" id="gge181" layerid="3" c_shapetype="group" ><path c_fontSize="4.5" c_fontFamily="" c_text="R2" d="M 4235.72 3060.041 L 4240.01 3060.041 M 4235.72 3060.041 L 4235.72 3058.201 L 4235.92 3057.591 L 4236.12 3057.381 L 4236.53 3057.181 L 4236.94 3057.181 L 4237.35 3057.381 L 4237.56 3057.591 L 4237.76 3058.201 L 4237.76 3060.041 M 4237.76 3058.611 L 4240.01 3057.181 M 4236.74 3055.621 L 4236.53 3055.621 L 4236.12 3055.421 L 4235.92 3055.211 L 4235.72 3054.801 L 4235.72 3053.991 L 4235.92 3053.581 L 4236.12 3053.371 L 4236.53 3053.171 L 4236.94 3053.171 L 4237.35 3053.371 L 4237.97 3053.781 L 4240.01 3055.831 L 4240.01 3052.961" fill="none"  stroke-width="0.6" c_note="note_pre" /></g><g c_partid="part_pcbtext" c_origin="4239.36,3052.96" c_rotation="270" c_mirror="" id="gge182" layerid="3" c_shapetype="group" display="none"><path c_fontSize="4.5" c_fontFamily="" c_text="1k" d="M 4244.7 3052.9612 L 4244.9 3053.3712 L 4245.51 3053.9812 L 4241.22 3053.9812 M 4245.51 3055.3312 L 4241.22 3055.3312 M 4244.08 3057.3812 L 4242.04 3055.3312 M 4242.86 3056.1512 L 4241.22 3057.5812" fill="none"  stroke-width="0.6"  /></g><g c_partid="part_pcbtext" c_origin="4309.88,3091.78" c_rotation="90" c_mirror="" id="gge192" layerid="3" c_shapetype="group" ><path c_fontSize="4.5" c_fontFamily="" c_text="R3" d="M 4303.72 3091.7809 L 4308.02 3091.7809 M 4303.72 3091.7809 L 4303.72 3089.9409 L 4303.93 3089.3309 L 4304.13 3089.1209 L 4304.54 3088.9209 L 4304.95 3088.9209 L 4305.36 3089.1209 L 4305.56 3089.3309 L 4305.77 3089.9409 L 4305.77 3091.7809 M 4305.77 3090.3509 L 4308.02 3088.9209 M 4303.72 3087.1609 L 4303.72 3084.9109 L 4305.36 3086.1309 L 4305.36 3085.5209 L 4305.56 3085.1109 L 4305.77 3084.9109 L 4306.38 3084.7009 L 4306.79 3084.7009 L 4307.4 3084.9109 L 4307.81 3085.3209 L 4308.02 3085.9309 L 4308.02 3086.5409 L 4307.81 3087.1609 L 4307.61 3087.3609 L 4307.2 3087.5709" fill="none"  stroke-width="0.6" c_note="note_pre" /></g><g c_partid="part_pcbtext" c_origin="4307.36,3084.7" c_rotation="270" c_mirror="" id="gge194" layerid="3" c_shapetype="group" display="none"><path c_fontSize="4.5" c_fontFamily="" c_text="1k" d="M 4312.7 3084.701 L 4312.91 3085.111 L 4313.52 3085.721 L 4309.22 3085.721 M 4313.52 3087.071 L 4309.22 3087.071 M 4312.09 3089.121 L 4310.04 3087.071 M 4310.86 3087.891 L 4309.22 3089.321" fill="none"  stroke-width="0.6"  /></g><g c_partid="part_pcbtext" c_origin="4196.32,3127.38" c_rotation="0" c_mirror="" id="gge211" layerid="3" c_shapetype="group" ><path c_fontSize="4.5" c_fontFamily="" c_text="R4" d="M 4196.3189 3121.22 L 4196.3189 3125.52 M 4196.3189 3121.22 L 4198.1589 3121.22 L 4198.7689 3121.43 L 4198.9789 3121.63 L 4199.1789 3122.04 L 4199.1789 3122.45 L 4198.9789 3122.86 L 4198.7689 3123.06 L 4198.1589 3123.27 L 4196.3189 3123.27 M 4197.7489 3123.27 L 4199.1789 3125.52 M 4202.5789 3121.22 L 4200.5289 3124.08 L 4203.5989 3124.08 M 4202.5789 3121.22 L 4202.5789 3125.52" fill="none"  stroke-width="0.6" c_note="note_pre" /></g><g c_partid="part_pcbtext" c_origin="4203.6,3124.86" c_rotation="180" c_mirror="" id="gge213" layerid="3" c_shapetype="group" display="none"><path c_fontSize="4.5" c_fontFamily="" c_text="10k" d="M 4203.5988 3130.2 L 4203.1888 3130.41 L 4202.5788 3131.02 L 4202.5788 3126.72 M 4199.9988 3131.02 L 4200.6088 3130.81 L 4201.0188 3130.2 L 4201.2288 3129.18 L 4201.2288 3128.56 L 4201.0188 3127.54 L 4200.6088 3126.93 L 4199.9988 3126.72 L 4199.5888 3126.72 L 4198.9788 3126.93 L 4198.5688 3127.54 L 4198.3588 3128.56 L 4198.3588 3129.18 L 4198.5688 3130.2 L 4198.9788 3130.81 L 4199.5888 3131.02 L 4199.9988 3131.02 M 4197.0088 3131.02 L 4197.0088 3126.72 M 4194.9688 3129.59 L 4197.0088 3127.54 M 4196.1988 3128.36 L 4194.7588 3126.72" fill="none"  stroke-width="0.6"  /></g><g c_partid="part_pcbtext" c_origin="4284.71,3116.5" c_rotation="90" c_mirror="" id="gge230" layerid="3" c_shapetype="group" ><path c_fontSize="4.5" c_fontFamily="" c_text="LED2" d="M 4278.5602 3116.5 L 4282.8502 3116.5 M 4282.8502 3116.5 L 4282.8502 3114.05 M 4278.5602 3112.7 L 4282.8502 3112.7 M 4278.5602 3112.7 L 4278.5602 3110.04 M 4280.6002 3112.7 L 4280.6002 3111.06 M 4282.8502 3112.7 L 4282.8502 3110.04 M 4278.5602 3108.69 L 4282.8502 3108.69 M 4278.5602 3108.69 L 4278.5602 3107.25 L 4278.7602 3106.64 L 4279.1702 3106.23 L 4279.5802 3106.03 L 4280.1902 3105.82 L 4281.2102 3105.82 L 4281.8302 3106.03 L 4282.2402 3106.23 L 4282.6502 3106.64 L 4282.8502 3107.25 L 4282.8502 3108.69 M 4279.5802 3104.27 L 4279.3702 3104.27 L 4278.9602 3104.06 L 4278.7602 3103.86 L 4278.5602 3103.45 L 4278.5602 3102.63 L 4278.7602 3102.22 L 4278.9602 3102.02 L 4279.3702 3101.81 L 4279.7802 3101.81 L 4280.1902 3102.02 L 4280.8102 3102.43 L 4282.8502 3104.47 L 4282.8502 3101.61" fill="none"  stroke-width="0.6" c_note="note_pre" /></g><g c_partid="part_pcbtext" c_origin="4279.21,3116.5" c_rotation="90" c_mirror="" id="gge232" layerid="3" c_shapetype="group" display="none"><path c_fontSize="4.5" c_fontFamily="" c_text="PowerOn" d="M 4273.06 3116.5 L 4277.35 3116.5 M 4273.06 3116.5 L 4273.06 3114.66 L 4273.26 3114.05 L 4273.46 3113.84 L 4273.87 3113.64 L 4274.49 3113.64 L 4274.9 3113.84 L 4275.1 3114.05 L 4275.31 3114.66 L 4275.31 3116.5 M 4274.49 3111.26 L 4274.69 3111.67 L 4275.1 3112.08 L 4275.71 3112.29 L 4276.12 3112.29 L 4276.74 3112.08 L 4277.15 3111.67 L 4277.35 3111.26 L 4277.35 3110.65 L 4277.15 3110.24 L 4276.74 3109.83 L 4276.12 3109.63 L 4275.71 3109.63 L 4275.1 3109.83 L 4274.69 3110.24 L 4274.49 3110.65 L 4274.49 3111.26 M 4274.49 3108.28 L 4277.35 3107.46 M 4274.49 3106.64 L 4277.35 3107.46 M 4274.49 3106.64 L 4277.35 3105.82 M 4274.49 3105 L 4277.35 3105.82 M 4275.71 3103.65 L 4275.71 3101.2 L 4275.31 3101.2 L 4274.9 3101.4 L 4274.69 3101.61 L 4274.49 3102.02 L 4274.49 3102.63 L 4274.69 3103.04 L 4275.1 3103.45 L 4275.71 3103.65 L 4276.12 3103.65 L 4276.74 3103.45 L 4277.15 3103.04 L 4277.35 3102.63 L 4277.35 3102.02 L 4277.15 3101.61 L 4276.74 3101.2 M 4274.49 3099.85 L 4277.35 3099.85 M 4275.71 3099.85 L 4275.1 3099.65 L 4274.69 3099.24 L 4274.49 3098.83 L 4274.49 3098.21 M 4273.06 3095.64 L 4273.26 3096.05 L 4273.67 3096.45 L 4274.08 3096.66 L 4274.69 3096.86 L 4275.71 3096.86 L 4276.33 3096.66 L 4276.74 3096.45 L 4277.15 3096.05 L 4277.35 3095.64 L 4277.35 3094.82 L 4277.15 3094.41 L 4276.74 3094 L 4276.33 3093.8 L 4275.71 3093.59 L 4274.69 3093.59 L 4274.08 3093.8 L 4273.67 3094 L 4273.26 3094.41 L 4273.06 3094.82 L 4273.06 3095.64 M 4274.49 3092.24 L 4277.35 3092.24 M 4275.31 3092.24 L 4274.69 3091.63 L 4274.49 3091.22 L 4274.49 3090.6 L 4274.69 3090.2 L 4275.31 3089.99 L 4277.35 3089.99" fill="none"  stroke-width="0.6"  /></g><g c_partid="part_pcbtext" c_origin="4162.95,3046.37" c_rotation="90" c_mirror="" id="gge282" layerid="3" c_shapetype="group" ><path c_fontSize="4.5" c_fontFamily="" c_text="R9" d="M 4160.4998 3046.3701 L 4164.7898 3046.3701 M 4160.4998 3046.3701 L 4160.4998 3044.5301 L 4160.6998 3043.9201 L 4160.9098 3043.7101 L 4161.3098 3043.5101 L 4161.7198 3043.5101 L 4162.1298 3043.7101 L 4162.3398 3043.9201 L 4162.5398 3044.5301 L 4162.5398 3046.3701 M 4162.5398 3044.9401 L 4164.7898 3043.5101 M 4161.9298 3039.5001 L 4162.5398 3039.7001 L 4162.9498 3040.1101 L 4163.1598 3040.7201 L 4163.1598 3040.9301 L 4162.9498 3041.5401 L 4162.5398 3041.9501 L 4161.9298 3042.1601 L 4161.7198 3042.1601 L 4161.1098 3041.9501 L 4160.6998 3041.5401 L 4160.4998 3040.9301 L 4160.4998 3040.7201 L 4160.6998 3040.1101 L 4161.1098 3039.7001 L 4161.9298 3039.5001 L 4162.9498 3039.5001 L 4163.9698 3039.7001 L 4164.5898 3040.1101 L 4164.7898 3040.7201 L 4164.7898 3041.1301 L 4164.5898 3041.7501 L 4164.1798 3041.9501" fill="none"  stroke-width="0.6" c_note="note_pre" /></g><g c_partid="part_pcbtext" c_origin="4163.38,3046.06" c_rotation="90" c_mirror="" id="gge283" layerid="3" c_shapetype="group" display="none"><path c_fontSize="4.5" c_fontFamily="" c_text="10k" d="M 4161.739 3046.061L4161.539 3045.651 L4160.929 3045.041 L4165.219 3045.041 M 4160.929 3042.461L4161.129 3043.071 L4161.739 3043.481 L4162.769 3043.691 L4163.379 3043.691 L4164.399 3043.481 L4165.019 3043.071 L4165.219 3042.461 L4165.219 3042.051 L4165.019 3041.441 L4164.399 3041.031 L4163.379 3040.821 L4162.769 3040.821 L4161.739 3041.031 L4161.129 3041.441 L4160.929 3042.051 L4160.929 3042.461 M 4160.929 3039.471L4165.219 3039.471 M 4162.359 3037.431L4164.399 3039.471 M 4163.589 3038.661L4165.219 3037.221 " fill="none"  stroke-width="0.6"  /></g><g c_partid="part_pcbtext" c_origin="4164.46,3090.95" c_rotation="90" c_mirror="" id="gge301" layerid="3" c_shapetype="group" ><path c_fontSize="4.5" c_fontFamily="" c_text="R10" d="M 4161.9999 3090.9501 L 4166.2999 3090.9501 M 4161.9999 3090.9501 L 4161.9999 3089.1101 L 4162.2099 3088.5001 L 4162.4099 3088.2901 L 4162.8199 3088.0901 L 4163.2299 3088.0901 L 4163.6399 3088.2901 L 4163.8399 3088.5001 L 4164.0499 3089.1101 L 4164.0499 3090.9501 M 4164.0499 3089.5201 L 4166.2999 3088.0901 M 4162.8199 3086.7401 L 4162.6199 3086.3301 L 4161.9999 3085.7101 L 4166.2999 3085.7101 M 4161.9999 3083.1401 L 4162.2099 3083.7501 L 4162.8199 3084.1601 L 4163.8399 3084.3601 L 4164.4599 3084.3601 L 4165.4799 3084.1601 L 4166.0899 3083.7501 L 4166.2999 3083.1401 L 4166.2999 3082.7301 L 4166.0899 3082.1101 L 4165.4799 3081.7001 L 4164.4599 3081.5001 L 4163.8399 3081.5001 L 4162.8199 3081.7001 L 4162.2099 3082.1101 L 4161.9999 3082.7301 L 4161.9999 3083.1401" fill="none"  stroke-width="0.6" c_note="note_pre" /></g><g c_partid="part_pcbtext" c_origin="4163.14,3093.04" c_rotation="90" c_mirror="" id="gge302" layerid="3" c_shapetype="group" display="none"><path c_fontSize="4.5" c_fontFamily="" c_text="4.7k" d="M 4160.682 3090.988L4163.552 3093.038 L4163.552 3089.968 M 4160.682 3090.988L4164.982 3090.988 M 4163.962 3088.418L4164.162 3088.618 L4164.372 3088.418 L4164.162 3088.208 L4163.962 3088.418 M 4160.682 3083.998L4164.982 3086.038 M 4160.682 3086.858L4160.682 3083.998 M 4160.682 3082.648L4164.982 3082.648 M 4162.122 3080.598L4164.162 3082.648 M 4163.342 3081.828L4164.982 3080.398 " fill="none"  stroke-width="0.6"  /></g><path d="M 4268.2 3163.9 A 0.7874 0.7874 0 1 0 4268.2 3163.89" c_shapetype="line" fill="none" stroke-width="1.5748" c_helper_type="arc2" net="" layerid="3" id="gge54" /><path d="M 4247.2196 3083.5929 A 7.874 7.874 0 0 0 4245.7918 3096.4055" c_shapetype="line" fill="none" stroke-width="1" c_helper_type="arc2" net="" layerid="3" id="gge81" /><path d="M 4256.2082 3096.4055 A 7.874 7.874 0 0 0 4254.7804 3083.5929" c_shapetype="line" fill="none" stroke-width="1" c_helper_type="arc2" net="" layerid="3" id="gge83" /><path d="M 4229.2196 3071.0929 A 7.874 7.874 0 0 0 4227.7918 3083.9055" c_shapetype="line" fill="none" stroke-width="1" c_helper_type="arc2" net="" layerid="3" id="gge90" /><path d="M 4238.2082 3083.9055 A 7.874 7.874 0 0 0 4236.7804 3071.0929" c_shapetype="line" fill="none" stroke-width="1" c_helper_type="arc2" net="" layerid="3" id="gge92" /><path d="M 4199.9 3084 A 2.5 2.5 0 0 1 4194.9 3084" c_shapetype="line" fill="none" stroke-width="1" c_helper_type="arc2" net="" layerid="3" id="gge110" /><path d="M 4265.304 3055.62 A 0.7874 0.7874 0 1 0 4265.304 3055.63" c_shapetype="line" fill="none" stroke-width="1.5748" c_helper_type="arc2" net="" layerid="3" id="gge132" /><path d="M 4285.5929 3119.2804 A 7.874 7.874 0 0 0 4298.4055 3120.7082" c_shapetype="line" fill="none" stroke-width="1" c_helper_type="arc2" net="" layerid="3" id="gge234" /><path d="M 4298.4055 3110.2918 A 7.874 7.874 0 0 0 4285.5929 3111.7196" c_shapetype="line" fill="none" stroke-width="1" c_helper_type="arc2" net="" layerid="3" id="gge236" /><circle cx="4284" cy="3162.95" r="5.91" stroke-width="1" fill="none" layerid="3" id="gge38" c_shapetype="line" /><circle cx="4228" cy="3132.5" r="5.91" stroke-width="1" fill="none" layerid="3" id="gge47" c_shapetype="line" /><circle cx="4194.69" cy="3140.82" r="2.95" stroke-width="1" fill="none" layerid="3" id="gge64" c_shapetype="line" /><circle cx="4194.69" cy="3140.82" r="6.89" stroke-width="1" fill="none" layerid="3" id="gge65" c_shapetype="line" /><circle cx="4196.31" cy="3039.68" r="2.95" stroke-width="1" fill="none" layerid="3" id="gge73" c_shapetype="line" /><circle cx="4196.31" cy="3039.68" r="6.89" stroke-width="1" fill="none" layerid="3" id="gge74" c_shapetype="line" /><circle cx="4188.9" cy="3083.1" r="0.75" stroke-width="1" fill="none" layerid="3" id="gge111" c_shapetype="line" /><path d="M 4289.905 3162.756 A 5.9193 5.9193 0 0 0 4278.0945 3162.7559 Z " stroke-width="0"  c_shapetype="line" net="" type="solid" layerid="3" id="gge39" locked="0" c_teardrop="" c_targetpad="" c_targetwire="" /><path d="M 4222.095 3132.699 A 5.9193 5.9193 0 0 0 4233.9055 3132.6991 Z " stroke-width="0"  c_shapetype="line" net="" type="solid" layerid="3" id="gge48" locked="0" c_teardrop="" c_targetpad="" c_targetwire="" /></g></svg>